0
SECTION
2
HEADER
9
$INSUNITS
70
4
9
$ACADVER
1
AC1014
9
$HANDSEED
5
FFFF
0
ENDSEC
0
SECTION
2
TABLES
0
TABLE
2
VPORT
5
8
100
AcDbSymbolTable
0
ENDTAB
0
TABLE
2
LTYPE
5
5
100
AcDbSymbolTable
0
LTYPE
5
14
100
AcDbSymbolTableRecord
100
AcDbLinetypeTableRecord
2
BYBLOCK
70
0
0
LTYPE
5
15
100
AcDbSymbolTableRecord
100
AcDbLinetypeTableRecord
2
BYLAYER
70
0
0
ENDTAB
0
TABLE
2
LAYER
5
2
100
AcDbSymbolTable
70
2
0
LAYER
5
50
100
AcDbSymbolTableRecord
100
AcDbLayerTableRecord
2
0
70
0
6
CONTINUOUS
0
ENDTAB
0
TABLE
2
STYLE
5
3
100
AcDbSymbolTable
70
1
0
STYLE
5
11
100
AcDbSymbolTableRecord
100
AcDbTextStyleTableRecord
2
STANDARD
70
0
0
ENDTAB
0
TABLE
2
VIEW
5
6
100
AcDbSymbolTable
70
0
0
ENDTAB
0
TABLE
2
UCS
5
7
100
AcDbSymbolTable
70
0
0
ENDTAB
0
TABLE
2
APPID
5
9
100
AcDbSymbolTable
70
2
0
APPID
5
12
100
AcDbSymbolTableRecord
100
AcDbRegAppTableRecord
2
ACAD
70
0
0
ENDTAB
0
TABLE
2
DIMSTYLE
5
A
100
AcDbSymbolTable
70
1
0
ENDTAB
0
TABLE
2
BLOCK_RECORD
5
1
100
AcDbSymbolTable
70
1
0
BLOCK_RECORD
5
1F
100
AcDbSymbolTableRecord
100
AcDbBlockTableRecord
2
*MODEL_SPACE
0
BLOCK_RECORD
5
1B
100
AcDbSymbolTableRecord
100
AcDbBlockTableRecord
2
*PAPER_SPACE
0
ENDTAB
0
ENDSEC
0
SECTION
2
BLOCKS
0
BLOCK
5
20
100
AcDbEntity
100
AcDbBlockBegin
2
*MODEL_SPACE
0
ENDBLK
5
21
100
AcDbEntity
100
AcDbBlockEnd
0
BLOCK
5
1C
100
AcDbEntity
100
AcDbBlockBegin
2
*PAPER_SPACE
0
ENDBLK
5
1D
100
AcDbEntity
100
AcDbBlockEnd
0
ENDSEC
0
SECTION
2
ENTITIES
0
LINE
5
100
100
AcDbEntity
8
0
100
AcDbLine
10
19.000000000000256
20
18.168916992210882
30
0
11
16.304257247250689
21
12.777431486711768
31
0
0
ARC
5
101
100
AcDbEntity
8
0
100
AcDbCircle
10
-13.173762078750986
20
14.342679070961626
30
0
40
3.5
210
0
220
-0
230
-1
100
AcDbArc
50
206.56505117707809
51
270.00000000000006
0
LINE
5
102
100
AcDbEntity
8
0
100
AcDbLine
10
13.173762078750983
20
10.842679070961621
30
0
11
-13.173762078750983
21
10.842679070961637
31
0
0
ARC
5
103
100
AcDbEntity
8
0
100
AcDbCircle
10
13.173762078750979
20
14.342679070961637
30
0
40
3.5000000000000009
210
-0
220
0
230
-1
100
AcDbArc
50
270
51
333.43494882292202
0
LINE
5
104
100
AcDbEntity
8
0
100
AcDbLine
10
-16.304257247250685
20
12.777431486711786
30
0
11
-19.000000000000238
21
18.1689169922109
31
0
0
LINE
5
105
100
AcDbEntity
8
0
100
AcDbLine
10
-19.000000000000238
20
18.1689169922109
30
0
11
-19.000000000000213
21
41.751567809273027
31
0
0
LINE
5
106
100
AcDbEntity
8
0
100
AcDbLine
10
-19.000000000000213
20
41.751567809273027
30
0
11
-18.585686500383297
21
42.578932749759979
31
0
0
LINE
5
107
100
AcDbEntity
8
0
100
AcDbLine
10
-18.580678873405848
20
42.588932749759998
30
0
11
-14.370735132275726
21
50.995996135466953
31
0
0
LINE
5
108
100
AcDbEntity
8
0
100
AcDbLine
10
19.000000000000256
20
41.751567809273027
30
0
11
19.000000000000256
21
18.168916992210882
31
0
0
LINE
5
109
100
AcDbEntity
8
0
100
AcDbLine
10
18.585686500383357
20
42.578932749759929
30
0
11
19.000000000000256
21
41.751567809273027
31
0
0
LINE
5
110
100
AcDbEntity
8
0
100
AcDbLine
10
14.370735132277135
20
50.995996135464239
30
0
11
18.580678873405912
21
42.588932749759955
31
0
0
LINE
5
111
100
AcDbEntity
8
0
100
AcDbLine
10
11.612119184971005
20
56.499999999999993
30
0
11
14.370735132277135
21
50.995996135464239
31
0
0
LINE
5
112
100
AcDbEntity
8
0
100
AcDbLine
10
-14.370735132275726
20
50.995996135466953
30
0
11
-11.612119184970988
21
56.5
31
0
0
LINE
5
113
100
AcDbEntity
8
0
100
AcDbLine
10
-11.612119184970988
20
56.5
30
0
11
11.612119184971005
21
56.499999999999993
31
0
0
LINE
5
114
100
AcDbEntity
8
0
100
AcDbLine
10
-18.580678873405848
20
42.588932749759998
30
0
11
-18.585686500383297
21
42.578932749759979
31
0
0
LINE
5
115
100
AcDbEntity
8
0
100
AcDbLine
10
18.580678873405912
20
42.588932749759955
30
0
11
18.585686500383357
21
42.578932749759929
31
0
0
LWPOLYLINE
5
116
100
AcDbEntity
8
0
100
AcDbPolyline
90
16
70
1
43
0.0
10
14.191919996980104
20
50.906412941616033
10
18.401848026038039
20
42.499380932192203
10
18.406855653015452
20
42.48938093219224
10
18.800000000000257
20
41.704289812673778
10
18.800000000000253
20
18.216130587710833
10
16.125371809050709
20
12.86687420581176
42
-0.28407904384041216
10
13.173762078750983
20
11.042679070961626
10
-13.173762078750983
20
11.042679070961634
42
-0.28407904384041216
10
-16.125371809050705
20
12.866874205811778
10
-18.800000000000239
20
18.216130587710857
10
-18.800000000000214
20
41.704289812673778
10
-18.40685565301542
20
42.489380932192226
10
-18.40184802603796
20
42.499380932192274
10
-14.191919996979365
20
50.906412941617418
10
-11.488645137688733
20
56.300000000000011
10
11.48864513768876
20
56.299999999999997
0
ENDSEC
0
SECTION
2
OBJECTS
0
DICTIONARY
5
C
100
AcDbDictionary
3
ACAD_GROUP
350
D
3
ACAD_MLINESTYLE
350
17
0
DICTIONARY
5
D
100
AcDbDictionary
0
DICTIONARY
5
1A
330
C
100
AcDbDictionary
0
DICTIONARY
5
17
100
AcDbDictionary
0
ENDSEC
0
EOF
