%TF.GenerationSoftware,KiCad,Pcbnew,7.0.8*%
%TF.CreationDate,2025-01-02T16:25:12-08:00*%
%TF.ProjectId,tachometer board,74616368-6f6d-4657-9465-7220626f6172,rev?*%
%TF.SameCoordinates,Original*%
%TF.FileFunction,Legend,Bot*%
%TF.FilePolarity,Positive*%
%FSLAX46Y46*%
G04 Gerber Fmt 4.6, Leading zero omitted, Abs format (unit mm)*
G04 Created by KiCad (PCBNEW 7.0.8) date 2025-01-02 16:25:12*
%MOMM*%
%LPD*%
G01*
G04 APERTURE LIST*
%ADD10C,0.150000*%
G04 APERTURE END LIST*
D10*
X151727255Y-112769704D02*
X151727255Y-113569704D01*
X151727255Y-113569704D02*
X152155826Y-112769704D01*
X152155826Y-112769704D02*
X152155826Y-113569704D01*
X152798683Y-112807800D02*
X152727255Y-112769704D01*
X152727255Y-112769704D02*
X152584398Y-112769704D01*
X152584398Y-112769704D02*
X152512969Y-112807800D01*
X152512969Y-112807800D02*
X152477255Y-112883990D01*
X152477255Y-112883990D02*
X152477255Y-113188752D01*
X152477255Y-113188752D02*
X152512969Y-113264942D01*
X152512969Y-113264942D02*
X152584398Y-113303038D01*
X152584398Y-113303038D02*
X152727255Y-113303038D01*
X152727255Y-113303038D02*
X152798683Y-113264942D01*
X152798683Y-113264942D02*
X152834398Y-113188752D01*
X152834398Y-113188752D02*
X152834398Y-113112561D01*
X152834398Y-113112561D02*
X152477255Y-113036371D01*
X153155826Y-112769704D02*
X153155826Y-113303038D01*
X153155826Y-113150657D02*
X153191540Y-113226847D01*
X153191540Y-113226847D02*
X153227255Y-113264942D01*
X153227255Y-113264942D02*
X153298683Y-113303038D01*
X153298683Y-113303038D02*
X153370112Y-113303038D01*
X153512969Y-113303038D02*
X153798683Y-113303038D01*
X153620112Y-112769704D02*
X153620112Y-113455419D01*
X153620112Y-113455419D02*
X153655826Y-113531609D01*
X153655826Y-113531609D02*
X153727255Y-113569704D01*
X153727255Y-113569704D02*
X153798683Y-113569704D01*
X154512969Y-113569704D02*
X154941541Y-113569704D01*
X154727255Y-112769704D02*
X154727255Y-113569704D01*
X155512970Y-112769704D02*
X155512970Y-113188752D01*
X155512970Y-113188752D02*
X155477255Y-113264942D01*
X155477255Y-113264942D02*
X155405827Y-113303038D01*
X155405827Y-113303038D02*
X155262970Y-113303038D01*
X155262970Y-113303038D02*
X155191541Y-113264942D01*
X155512970Y-112807800D02*
X155441541Y-112769704D01*
X155441541Y-112769704D02*
X155262970Y-112769704D01*
X155262970Y-112769704D02*
X155191541Y-112807800D01*
X155191541Y-112807800D02*
X155155827Y-112883990D01*
X155155827Y-112883990D02*
X155155827Y-112960180D01*
X155155827Y-112960180D02*
X155191541Y-113036371D01*
X155191541Y-113036371D02*
X155262970Y-113074466D01*
X155262970Y-113074466D02*
X155441541Y-113074466D01*
X155441541Y-113074466D02*
X155512970Y-113112561D01*
X156191541Y-112807800D02*
X156120112Y-112769704D01*
X156120112Y-112769704D02*
X155977255Y-112769704D01*
X155977255Y-112769704D02*
X155905826Y-112807800D01*
X155905826Y-112807800D02*
X155870112Y-112845895D01*
X155870112Y-112845895D02*
X155834398Y-112922085D01*
X155834398Y-112922085D02*
X155834398Y-113150657D01*
X155834398Y-113150657D02*
X155870112Y-113226847D01*
X155870112Y-113226847D02*
X155905826Y-113264942D01*
X155905826Y-113264942D02*
X155977255Y-113303038D01*
X155977255Y-113303038D02*
X156120112Y-113303038D01*
X156120112Y-113303038D02*
X156191541Y-113264942D01*
X156512969Y-112769704D02*
X156512969Y-113569704D01*
X156834398Y-112769704D02*
X156834398Y-113188752D01*
X156834398Y-113188752D02*
X156798683Y-113264942D01*
X156798683Y-113264942D02*
X156727255Y-113303038D01*
X156727255Y-113303038D02*
X156620112Y-113303038D01*
X156620112Y-113303038D02*
X156548683Y-113264942D01*
X156548683Y-113264942D02*
X156512969Y-113226847D01*
X157298683Y-112769704D02*
X157227254Y-112807800D01*
X157227254Y-112807800D02*
X157191540Y-112845895D01*
X157191540Y-112845895D02*
X157155826Y-112922085D01*
X157155826Y-112922085D02*
X157155826Y-113150657D01*
X157155826Y-113150657D02*
X157191540Y-113226847D01*
X157191540Y-113226847D02*
X157227254Y-113264942D01*
X157227254Y-113264942D02*
X157298683Y-113303038D01*
X157298683Y-113303038D02*
X157405826Y-113303038D01*
X157405826Y-113303038D02*
X157477254Y-113264942D01*
X157477254Y-113264942D02*
X157512969Y-113226847D01*
X157512969Y-113226847D02*
X157548683Y-113150657D01*
X157548683Y-113150657D02*
X157548683Y-112922085D01*
X157548683Y-112922085D02*
X157512969Y-112845895D01*
X157512969Y-112845895D02*
X157477254Y-112807800D01*
X157477254Y-112807800D02*
X157405826Y-112769704D01*
X157405826Y-112769704D02*
X157298683Y-112769704D01*
X157870111Y-112769704D02*
X157870111Y-113303038D01*
X157870111Y-113226847D02*
X157905825Y-113264942D01*
X157905825Y-113264942D02*
X157977254Y-113303038D01*
X157977254Y-113303038D02*
X158084397Y-113303038D01*
X158084397Y-113303038D02*
X158155825Y-113264942D01*
X158155825Y-113264942D02*
X158191540Y-113188752D01*
X158191540Y-113188752D02*
X158191540Y-112769704D01*
X158191540Y-113188752D02*
X158227254Y-113264942D01*
X158227254Y-113264942D02*
X158298682Y-113303038D01*
X158298682Y-113303038D02*
X158405825Y-113303038D01*
X158405825Y-113303038D02*
X158477254Y-113264942D01*
X158477254Y-113264942D02*
X158512968Y-113188752D01*
X158512968Y-113188752D02*
X158512968Y-112769704D01*
X159155825Y-112807800D02*
X159084397Y-112769704D01*
X159084397Y-112769704D02*
X158941540Y-112769704D01*
X158941540Y-112769704D02*
X158870111Y-112807800D01*
X158870111Y-112807800D02*
X158834397Y-112883990D01*
X158834397Y-112883990D02*
X158834397Y-113188752D01*
X158834397Y-113188752D02*
X158870111Y-113264942D01*
X158870111Y-113264942D02*
X158941540Y-113303038D01*
X158941540Y-113303038D02*
X159084397Y-113303038D01*
X159084397Y-113303038D02*
X159155825Y-113264942D01*
X159155825Y-113264942D02*
X159191540Y-113188752D01*
X159191540Y-113188752D02*
X159191540Y-113112561D01*
X159191540Y-113112561D02*
X158834397Y-113036371D01*
X159405825Y-113303038D02*
X159691539Y-113303038D01*
X159512968Y-113569704D02*
X159512968Y-112883990D01*
X159512968Y-112883990D02*
X159548682Y-112807800D01*
X159548682Y-112807800D02*
X159620111Y-112769704D01*
X159620111Y-112769704D02*
X159691539Y-112769704D01*
X160227253Y-112807800D02*
X160155825Y-112769704D01*
X160155825Y-112769704D02*
X160012968Y-112769704D01*
X160012968Y-112769704D02*
X159941539Y-112807800D01*
X159941539Y-112807800D02*
X159905825Y-112883990D01*
X159905825Y-112883990D02*
X159905825Y-113188752D01*
X159905825Y-113188752D02*
X159941539Y-113264942D01*
X159941539Y-113264942D02*
X160012968Y-113303038D01*
X160012968Y-113303038D02*
X160155825Y-113303038D01*
X160155825Y-113303038D02*
X160227253Y-113264942D01*
X160227253Y-113264942D02*
X160262968Y-113188752D01*
X160262968Y-113188752D02*
X160262968Y-113112561D01*
X160262968Y-113112561D02*
X159905825Y-113036371D01*
X160584396Y-112769704D02*
X160584396Y-113303038D01*
X160584396Y-113150657D02*
X160620110Y-113226847D01*
X160620110Y-113226847D02*
X160655825Y-113264942D01*
X160655825Y-113264942D02*
X160727253Y-113303038D01*
X160727253Y-113303038D02*
X160798682Y-113303038D01*
X151620112Y-112281704D02*
X151870112Y-111481704D01*
X151870112Y-111481704D02*
X152120112Y-112281704D01*
X152655826Y-111519800D02*
X152584398Y-111481704D01*
X152584398Y-111481704D02*
X152441541Y-111481704D01*
X152441541Y-111481704D02*
X152370112Y-111519800D01*
X152370112Y-111519800D02*
X152334398Y-111595990D01*
X152334398Y-111595990D02*
X152334398Y-111900752D01*
X152334398Y-111900752D02*
X152370112Y-111976942D01*
X152370112Y-111976942D02*
X152441541Y-112015038D01*
X152441541Y-112015038D02*
X152584398Y-112015038D01*
X152584398Y-112015038D02*
X152655826Y-111976942D01*
X152655826Y-111976942D02*
X152691541Y-111900752D01*
X152691541Y-111900752D02*
X152691541Y-111824561D01*
X152691541Y-111824561D02*
X152334398Y-111748371D01*
X153012969Y-111481704D02*
X153012969Y-112015038D01*
X153012969Y-111862657D02*
X153048683Y-111938847D01*
X153048683Y-111938847D02*
X153084398Y-111976942D01*
X153084398Y-111976942D02*
X153155826Y-112015038D01*
X153155826Y-112015038D02*
X153227255Y-112015038D01*
X153441541Y-111519800D02*
X153512969Y-111481704D01*
X153512969Y-111481704D02*
X153655826Y-111481704D01*
X153655826Y-111481704D02*
X153727255Y-111519800D01*
X153727255Y-111519800D02*
X153762969Y-111595990D01*
X153762969Y-111595990D02*
X153762969Y-111634085D01*
X153762969Y-111634085D02*
X153727255Y-111710276D01*
X153727255Y-111710276D02*
X153655826Y-111748371D01*
X153655826Y-111748371D02*
X153548684Y-111748371D01*
X153548684Y-111748371D02*
X153477255Y-111786466D01*
X153477255Y-111786466D02*
X153441541Y-111862657D01*
X153441541Y-111862657D02*
X153441541Y-111900752D01*
X153441541Y-111900752D02*
X153477255Y-111976942D01*
X153477255Y-111976942D02*
X153548684Y-112015038D01*
X153548684Y-112015038D02*
X153655826Y-112015038D01*
X153655826Y-112015038D02*
X153727255Y-111976942D01*
X154084398Y-111481704D02*
X154084398Y-112015038D01*
X154084398Y-112281704D02*
X154048684Y-112243609D01*
X154048684Y-112243609D02*
X154084398Y-112205514D01*
X154084398Y-112205514D02*
X154120112Y-112243609D01*
X154120112Y-112243609D02*
X154084398Y-112281704D01*
X154084398Y-112281704D02*
X154084398Y-112205514D01*
X154548684Y-111481704D02*
X154477255Y-111519800D01*
X154477255Y-111519800D02*
X154441541Y-111557895D01*
X154441541Y-111557895D02*
X154405827Y-111634085D01*
X154405827Y-111634085D02*
X154405827Y-111862657D01*
X154405827Y-111862657D02*
X154441541Y-111938847D01*
X154441541Y-111938847D02*
X154477255Y-111976942D01*
X154477255Y-111976942D02*
X154548684Y-112015038D01*
X154548684Y-112015038D02*
X154655827Y-112015038D01*
X154655827Y-112015038D02*
X154727255Y-111976942D01*
X154727255Y-111976942D02*
X154762970Y-111938847D01*
X154762970Y-111938847D02*
X154798684Y-111862657D01*
X154798684Y-111862657D02*
X154798684Y-111634085D01*
X154798684Y-111634085D02*
X154762970Y-111557895D01*
X154762970Y-111557895D02*
X154727255Y-111519800D01*
X154727255Y-111519800D02*
X154655827Y-111481704D01*
X154655827Y-111481704D02*
X154548684Y-111481704D01*
X155120112Y-112015038D02*
X155120112Y-111481704D01*
X155120112Y-111938847D02*
X155155826Y-111976942D01*
X155155826Y-111976942D02*
X155227255Y-112015038D01*
X155227255Y-112015038D02*
X155334398Y-112015038D01*
X155334398Y-112015038D02*
X155405826Y-111976942D01*
X155405826Y-111976942D02*
X155441541Y-111900752D01*
X155441541Y-111900752D02*
X155441541Y-111481704D01*
X156762969Y-111481704D02*
X156334398Y-111481704D01*
X156548683Y-111481704D02*
X156548683Y-112281704D01*
X156548683Y-112281704D02*
X156477255Y-112167419D01*
X156477255Y-112167419D02*
X156405826Y-112091228D01*
X156405826Y-112091228D02*
X156334398Y-112053133D01*
X157084398Y-111557895D02*
X157120112Y-111519800D01*
X157120112Y-111519800D02*
X157084398Y-111481704D01*
X157084398Y-111481704D02*
X157048684Y-111519800D01*
X157048684Y-111519800D02*
X157084398Y-111557895D01*
X157084398Y-111557895D02*
X157084398Y-111481704D01*
X157584398Y-112281704D02*
X157655827Y-112281704D01*
X157655827Y-112281704D02*
X157727255Y-112243609D01*
X157727255Y-112243609D02*
X157762970Y-112205514D01*
X157762970Y-112205514D02*
X157798684Y-112129323D01*
X157798684Y-112129323D02*
X157834398Y-111976942D01*
X157834398Y-111976942D02*
X157834398Y-111786466D01*
X157834398Y-111786466D02*
X157798684Y-111634085D01*
X157798684Y-111634085D02*
X157762970Y-111557895D01*
X157762970Y-111557895D02*
X157727255Y-111519800D01*
X157727255Y-111519800D02*
X157655827Y-111481704D01*
X157655827Y-111481704D02*
X157584398Y-111481704D01*
X157584398Y-111481704D02*
X157512970Y-111519800D01*
X157512970Y-111519800D02*
X157477255Y-111557895D01*
X157477255Y-111557895D02*
X157441541Y-111634085D01*
X157441541Y-111634085D02*
X157405827Y-111786466D01*
X157405827Y-111786466D02*
X157405827Y-111976942D01*
X157405827Y-111976942D02*
X157441541Y-112129323D01*
X157441541Y-112129323D02*
X157477255Y-112205514D01*
X157477255Y-112205514D02*
X157512970Y-112243609D01*
X157512970Y-112243609D02*
X157584398Y-112281704D01*
X151727255Y-110193704D02*
X151727255Y-110993704D01*
X151727255Y-110993704D02*
X151905826Y-110993704D01*
X151905826Y-110993704D02*
X152012969Y-110955609D01*
X152012969Y-110955609D02*
X152084398Y-110879419D01*
X152084398Y-110879419D02*
X152120112Y-110803228D01*
X152120112Y-110803228D02*
X152155826Y-110650847D01*
X152155826Y-110650847D02*
X152155826Y-110536561D01*
X152155826Y-110536561D02*
X152120112Y-110384180D01*
X152120112Y-110384180D02*
X152084398Y-110307990D01*
X152084398Y-110307990D02*
X152012969Y-110231800D01*
X152012969Y-110231800D02*
X151905826Y-110193704D01*
X151905826Y-110193704D02*
X151727255Y-110193704D01*
X152762969Y-110231800D02*
X152691541Y-110193704D01*
X152691541Y-110193704D02*
X152548684Y-110193704D01*
X152548684Y-110193704D02*
X152477255Y-110231800D01*
X152477255Y-110231800D02*
X152441541Y-110307990D01*
X152441541Y-110307990D02*
X152441541Y-110612752D01*
X152441541Y-110612752D02*
X152477255Y-110688942D01*
X152477255Y-110688942D02*
X152548684Y-110727038D01*
X152548684Y-110727038D02*
X152691541Y-110727038D01*
X152691541Y-110727038D02*
X152762969Y-110688942D01*
X152762969Y-110688942D02*
X152798684Y-110612752D01*
X152798684Y-110612752D02*
X152798684Y-110536561D01*
X152798684Y-110536561D02*
X152441541Y-110460371D01*
X153084398Y-110231800D02*
X153155826Y-110193704D01*
X153155826Y-110193704D02*
X153298683Y-110193704D01*
X153298683Y-110193704D02*
X153370112Y-110231800D01*
X153370112Y-110231800D02*
X153405826Y-110307990D01*
X153405826Y-110307990D02*
X153405826Y-110346085D01*
X153405826Y-110346085D02*
X153370112Y-110422276D01*
X153370112Y-110422276D02*
X153298683Y-110460371D01*
X153298683Y-110460371D02*
X153191541Y-110460371D01*
X153191541Y-110460371D02*
X153120112Y-110498466D01*
X153120112Y-110498466D02*
X153084398Y-110574657D01*
X153084398Y-110574657D02*
X153084398Y-110612752D01*
X153084398Y-110612752D02*
X153120112Y-110688942D01*
X153120112Y-110688942D02*
X153191541Y-110727038D01*
X153191541Y-110727038D02*
X153298683Y-110727038D01*
X153298683Y-110727038D02*
X153370112Y-110688942D01*
X153727255Y-110193704D02*
X153727255Y-110727038D01*
X153727255Y-110993704D02*
X153691541Y-110955609D01*
X153691541Y-110955609D02*
X153727255Y-110917514D01*
X153727255Y-110917514D02*
X153762969Y-110955609D01*
X153762969Y-110955609D02*
X153727255Y-110993704D01*
X153727255Y-110993704D02*
X153727255Y-110917514D01*
X154405827Y-110727038D02*
X154405827Y-110079419D01*
X154405827Y-110079419D02*
X154370112Y-110003228D01*
X154370112Y-110003228D02*
X154334398Y-109965133D01*
X154334398Y-109965133D02*
X154262969Y-109927038D01*
X154262969Y-109927038D02*
X154155827Y-109927038D01*
X154155827Y-109927038D02*
X154084398Y-109965133D01*
X154405827Y-110231800D02*
X154334398Y-110193704D01*
X154334398Y-110193704D02*
X154191541Y-110193704D01*
X154191541Y-110193704D02*
X154120112Y-110231800D01*
X154120112Y-110231800D02*
X154084398Y-110269895D01*
X154084398Y-110269895D02*
X154048684Y-110346085D01*
X154048684Y-110346085D02*
X154048684Y-110574657D01*
X154048684Y-110574657D02*
X154084398Y-110650847D01*
X154084398Y-110650847D02*
X154120112Y-110688942D01*
X154120112Y-110688942D02*
X154191541Y-110727038D01*
X154191541Y-110727038D02*
X154334398Y-110727038D01*
X154334398Y-110727038D02*
X154405827Y-110688942D01*
X154762969Y-110727038D02*
X154762969Y-110193704D01*
X154762969Y-110650847D02*
X154798683Y-110688942D01*
X154798683Y-110688942D02*
X154870112Y-110727038D01*
X154870112Y-110727038D02*
X154977255Y-110727038D01*
X154977255Y-110727038D02*
X155048683Y-110688942D01*
X155048683Y-110688942D02*
X155084398Y-110612752D01*
X155084398Y-110612752D02*
X155084398Y-110193704D01*
X155727254Y-110231800D02*
X155655826Y-110193704D01*
X155655826Y-110193704D02*
X155512969Y-110193704D01*
X155512969Y-110193704D02*
X155441540Y-110231800D01*
X155441540Y-110231800D02*
X155405826Y-110307990D01*
X155405826Y-110307990D02*
X155405826Y-110612752D01*
X155405826Y-110612752D02*
X155441540Y-110688942D01*
X155441540Y-110688942D02*
X155512969Y-110727038D01*
X155512969Y-110727038D02*
X155655826Y-110727038D01*
X155655826Y-110727038D02*
X155727254Y-110688942D01*
X155727254Y-110688942D02*
X155762969Y-110612752D01*
X155762969Y-110612752D02*
X155762969Y-110536561D01*
X155762969Y-110536561D02*
X155405826Y-110460371D01*
X156405826Y-110193704D02*
X156405826Y-110993704D01*
X156405826Y-110231800D02*
X156334397Y-110193704D01*
X156334397Y-110193704D02*
X156191540Y-110193704D01*
X156191540Y-110193704D02*
X156120111Y-110231800D01*
X156120111Y-110231800D02*
X156084397Y-110269895D01*
X156084397Y-110269895D02*
X156048683Y-110346085D01*
X156048683Y-110346085D02*
X156048683Y-110574657D01*
X156048683Y-110574657D02*
X156084397Y-110650847D01*
X156084397Y-110650847D02*
X156120111Y-110688942D01*
X156120111Y-110688942D02*
X156191540Y-110727038D01*
X156191540Y-110727038D02*
X156334397Y-110727038D01*
X156334397Y-110727038D02*
X156405826Y-110688942D01*
X157334397Y-110193704D02*
X157334397Y-110993704D01*
X157334397Y-110688942D02*
X157405826Y-110727038D01*
X157405826Y-110727038D02*
X157548683Y-110727038D01*
X157548683Y-110727038D02*
X157620111Y-110688942D01*
X157620111Y-110688942D02*
X157655826Y-110650847D01*
X157655826Y-110650847D02*
X157691540Y-110574657D01*
X157691540Y-110574657D02*
X157691540Y-110346085D01*
X157691540Y-110346085D02*
X157655826Y-110269895D01*
X157655826Y-110269895D02*
X157620111Y-110231800D01*
X157620111Y-110231800D02*
X157548683Y-110193704D01*
X157548683Y-110193704D02*
X157405826Y-110193704D01*
X157405826Y-110193704D02*
X157334397Y-110231800D01*
X157941539Y-110727038D02*
X158120111Y-110193704D01*
X158298682Y-110727038D02*
X158120111Y-110193704D01*
X158120111Y-110193704D02*
X158048682Y-110003228D01*
X158048682Y-110003228D02*
X158012968Y-109965133D01*
X158012968Y-109965133D02*
X157941539Y-109927038D01*
X151727255Y-108905704D02*
X151727255Y-109705704D01*
X151727255Y-109705704D02*
X151977255Y-109134276D01*
X151977255Y-109134276D02*
X152227255Y-109705704D01*
X152227255Y-109705704D02*
X152227255Y-108905704D01*
X152905827Y-108905704D02*
X152905827Y-109324752D01*
X152905827Y-109324752D02*
X152870112Y-109400942D01*
X152870112Y-109400942D02*
X152798684Y-109439038D01*
X152798684Y-109439038D02*
X152655827Y-109439038D01*
X152655827Y-109439038D02*
X152584398Y-109400942D01*
X152905827Y-108943800D02*
X152834398Y-108905704D01*
X152834398Y-108905704D02*
X152655827Y-108905704D01*
X152655827Y-108905704D02*
X152584398Y-108943800D01*
X152584398Y-108943800D02*
X152548684Y-109019990D01*
X152548684Y-109019990D02*
X152548684Y-109096180D01*
X152548684Y-109096180D02*
X152584398Y-109172371D01*
X152584398Y-109172371D02*
X152655827Y-109210466D01*
X152655827Y-109210466D02*
X152834398Y-109210466D01*
X152834398Y-109210466D02*
X152905827Y-109248561D01*
X153262969Y-108905704D02*
X153262969Y-109439038D01*
X153262969Y-109286657D02*
X153298683Y-109362847D01*
X153298683Y-109362847D02*
X153334398Y-109400942D01*
X153334398Y-109400942D02*
X153405826Y-109439038D01*
X153405826Y-109439038D02*
X153477255Y-109439038D01*
X153727255Y-108905704D02*
X153727255Y-109705704D01*
X153798684Y-109210466D02*
X154012969Y-108905704D01*
X154012969Y-109439038D02*
X153727255Y-109134276D01*
X155298684Y-109667609D02*
X155227256Y-109705704D01*
X155227256Y-109705704D02*
X155120113Y-109705704D01*
X155120113Y-109705704D02*
X155012970Y-109667609D01*
X155012970Y-109667609D02*
X154941541Y-109591419D01*
X154941541Y-109591419D02*
X154905827Y-109515228D01*
X154905827Y-109515228D02*
X154870113Y-109362847D01*
X154870113Y-109362847D02*
X154870113Y-109248561D01*
X154870113Y-109248561D02*
X154905827Y-109096180D01*
X154905827Y-109096180D02*
X154941541Y-109019990D01*
X154941541Y-109019990D02*
X155012970Y-108943800D01*
X155012970Y-108943800D02*
X155120113Y-108905704D01*
X155120113Y-108905704D02*
X155191541Y-108905704D01*
X155191541Y-108905704D02*
X155298684Y-108943800D01*
X155298684Y-108943800D02*
X155334398Y-108981895D01*
X155334398Y-108981895D02*
X155334398Y-109248561D01*
X155334398Y-109248561D02*
X155191541Y-109248561D01*
X155655827Y-108905704D02*
X155655827Y-109705704D01*
X155977256Y-108905704D02*
X155977256Y-109324752D01*
X155977256Y-109324752D02*
X155941541Y-109400942D01*
X155941541Y-109400942D02*
X155870113Y-109439038D01*
X155870113Y-109439038D02*
X155762970Y-109439038D01*
X155762970Y-109439038D02*
X155691541Y-109400942D01*
X155691541Y-109400942D02*
X155655827Y-109362847D01*
X156620112Y-108943800D02*
X156548684Y-108905704D01*
X156548684Y-108905704D02*
X156405827Y-108905704D01*
X156405827Y-108905704D02*
X156334398Y-108943800D01*
X156334398Y-108943800D02*
X156298684Y-109019990D01*
X156298684Y-109019990D02*
X156298684Y-109324752D01*
X156298684Y-109324752D02*
X156334398Y-109400942D01*
X156334398Y-109400942D02*
X156405827Y-109439038D01*
X156405827Y-109439038D02*
X156548684Y-109439038D01*
X156548684Y-109439038D02*
X156620112Y-109400942D01*
X156620112Y-109400942D02*
X156655827Y-109324752D01*
X156655827Y-109324752D02*
X156655827Y-109248561D01*
X156655827Y-109248561D02*
X156298684Y-109172371D01*
X156977255Y-108905704D02*
X156977255Y-109705704D01*
X156977255Y-109400942D02*
X157048684Y-109439038D01*
X157048684Y-109439038D02*
X157191541Y-109439038D01*
X157191541Y-109439038D02*
X157262969Y-109400942D01*
X157262969Y-109400942D02*
X157298684Y-109362847D01*
X157298684Y-109362847D02*
X157334398Y-109286657D01*
X157334398Y-109286657D02*
X157334398Y-109058085D01*
X157334398Y-109058085D02*
X157298684Y-108981895D01*
X157298684Y-108981895D02*
X157262969Y-108943800D01*
X157262969Y-108943800D02*
X157191541Y-108905704D01*
X157191541Y-108905704D02*
X157048684Y-108905704D01*
X157048684Y-108905704D02*
X156977255Y-108943800D01*
X157655826Y-108905704D02*
X157655826Y-109439038D01*
X157655826Y-109286657D02*
X157691540Y-109362847D01*
X157691540Y-109362847D02*
X157727255Y-109400942D01*
X157727255Y-109400942D02*
X157798683Y-109439038D01*
X157798683Y-109439038D02*
X157870112Y-109439038D01*
X158120112Y-108905704D02*
X158120112Y-109439038D01*
X158120112Y-109705704D02*
X158084398Y-109667609D01*
X158084398Y-109667609D02*
X158120112Y-109629514D01*
X158120112Y-109629514D02*
X158155826Y-109667609D01*
X158155826Y-109667609D02*
X158120112Y-109705704D01*
X158120112Y-109705704D02*
X158120112Y-109629514D01*
X158798684Y-108905704D02*
X158798684Y-109324752D01*
X158798684Y-109324752D02*
X158762969Y-109400942D01*
X158762969Y-109400942D02*
X158691541Y-109439038D01*
X158691541Y-109439038D02*
X158548684Y-109439038D01*
X158548684Y-109439038D02*
X158477255Y-109400942D01*
X158798684Y-108943800D02*
X158727255Y-108905704D01*
X158727255Y-108905704D02*
X158548684Y-108905704D01*
X158548684Y-108905704D02*
X158477255Y-108943800D01*
X158477255Y-108943800D02*
X158441541Y-109019990D01*
X158441541Y-109019990D02*
X158441541Y-109096180D01*
X158441541Y-109096180D02*
X158477255Y-109172371D01*
X158477255Y-109172371D02*
X158548684Y-109210466D01*
X158548684Y-109210466D02*
X158727255Y-109210466D01*
X158727255Y-109210466D02*
X158798684Y-109248561D01*
X159262969Y-108905704D02*
X159191540Y-108943800D01*
X159191540Y-108943800D02*
X159155826Y-109019990D01*
X159155826Y-109019990D02*
X159155826Y-109705704D01*
X154719819Y-102677255D02*
X154719819Y-102867731D01*
X154719819Y-102867731D02*
X154767438Y-102962969D01*
X154767438Y-102962969D02*
X154862676Y-103058207D01*
X154862676Y-103058207D02*
X155053152Y-103105826D01*
X155053152Y-103105826D02*
X155386485Y-103105826D01*
X155386485Y-103105826D02*
X155576961Y-103058207D01*
X155576961Y-103058207D02*
X155672200Y-102962969D01*
X155672200Y-102962969D02*
X155719819Y-102867731D01*
X155719819Y-102867731D02*
X155719819Y-102677255D01*
X155719819Y-102677255D02*
X155672200Y-102582017D01*
X155672200Y-102582017D02*
X155576961Y-102486779D01*
X155576961Y-102486779D02*
X155386485Y-102439160D01*
X155386485Y-102439160D02*
X155053152Y-102439160D01*
X155053152Y-102439160D02*
X154862676Y-102486779D01*
X154862676Y-102486779D02*
X154767438Y-102582017D01*
X154767438Y-102582017D02*
X154719819Y-102677255D01*
X154719819Y-103534398D02*
X155529342Y-103534398D01*
X155529342Y-103534398D02*
X155624580Y-103582017D01*
X155624580Y-103582017D02*
X155672200Y-103629636D01*
X155672200Y-103629636D02*
X155719819Y-103724874D01*
X155719819Y-103724874D02*
X155719819Y-103915350D01*
X155719819Y-103915350D02*
X155672200Y-104010588D01*
X155672200Y-104010588D02*
X155624580Y-104058207D01*
X155624580Y-104058207D02*
X155529342Y-104105826D01*
X155529342Y-104105826D02*
X154719819Y-104105826D01*
X154719819Y-104439160D02*
X154719819Y-105010588D01*
X155719819Y-104724874D02*
X154719819Y-104724874D01*
X154815057Y-105296303D02*
X154767438Y-105343922D01*
X154767438Y-105343922D02*
X154719819Y-105439160D01*
X154719819Y-105439160D02*
X154719819Y-105677255D01*
X154719819Y-105677255D02*
X154767438Y-105772493D01*
X154767438Y-105772493D02*
X154815057Y-105820112D01*
X154815057Y-105820112D02*
X154910295Y-105867731D01*
X154910295Y-105867731D02*
X155005533Y-105867731D01*
X155005533Y-105867731D02*
X155148390Y-105820112D01*
X155148390Y-105820112D02*
X155719819Y-105248684D01*
X155719819Y-105248684D02*
X155719819Y-105867731D01*
X152719819Y-102677255D02*
X152719819Y-102867731D01*
X152719819Y-102867731D02*
X152767438Y-102962969D01*
X152767438Y-102962969D02*
X152862676Y-103058207D01*
X152862676Y-103058207D02*
X153053152Y-103105826D01*
X153053152Y-103105826D02*
X153386485Y-103105826D01*
X153386485Y-103105826D02*
X153576961Y-103058207D01*
X153576961Y-103058207D02*
X153672200Y-102962969D01*
X153672200Y-102962969D02*
X153719819Y-102867731D01*
X153719819Y-102867731D02*
X153719819Y-102677255D01*
X153719819Y-102677255D02*
X153672200Y-102582017D01*
X153672200Y-102582017D02*
X153576961Y-102486779D01*
X153576961Y-102486779D02*
X153386485Y-102439160D01*
X153386485Y-102439160D02*
X153053152Y-102439160D01*
X153053152Y-102439160D02*
X152862676Y-102486779D01*
X152862676Y-102486779D02*
X152767438Y-102582017D01*
X152767438Y-102582017D02*
X152719819Y-102677255D01*
X152719819Y-103534398D02*
X153529342Y-103534398D01*
X153529342Y-103534398D02*
X153624580Y-103582017D01*
X153624580Y-103582017D02*
X153672200Y-103629636D01*
X153672200Y-103629636D02*
X153719819Y-103724874D01*
X153719819Y-103724874D02*
X153719819Y-103915350D01*
X153719819Y-103915350D02*
X153672200Y-104010588D01*
X153672200Y-104010588D02*
X153624580Y-104058207D01*
X153624580Y-104058207D02*
X153529342Y-104105826D01*
X153529342Y-104105826D02*
X152719819Y-104105826D01*
X152719819Y-104439160D02*
X152719819Y-105010588D01*
X153719819Y-104724874D02*
X152719819Y-104724874D01*
X153719819Y-105867731D02*
X153719819Y-105296303D01*
X153719819Y-105582017D02*
X152719819Y-105582017D01*
X152719819Y-105582017D02*
X152862676Y-105486779D01*
X152862676Y-105486779D02*
X152957914Y-105391541D01*
X152957914Y-105391541D02*
X153005533Y-105296303D01*
X156767438Y-103772493D02*
X156719819Y-103677255D01*
X156719819Y-103677255D02*
X156719819Y-103534398D01*
X156719819Y-103534398D02*
X156767438Y-103391541D01*
X156767438Y-103391541D02*
X156862676Y-103296303D01*
X156862676Y-103296303D02*
X156957914Y-103248684D01*
X156957914Y-103248684D02*
X157148390Y-103201065D01*
X157148390Y-103201065D02*
X157291247Y-103201065D01*
X157291247Y-103201065D02*
X157481723Y-103248684D01*
X157481723Y-103248684D02*
X157576961Y-103296303D01*
X157576961Y-103296303D02*
X157672200Y-103391541D01*
X157672200Y-103391541D02*
X157719819Y-103534398D01*
X157719819Y-103534398D02*
X157719819Y-103629636D01*
X157719819Y-103629636D02*
X157672200Y-103772493D01*
X157672200Y-103772493D02*
X157624580Y-103820112D01*
X157624580Y-103820112D02*
X157291247Y-103820112D01*
X157291247Y-103820112D02*
X157291247Y-103629636D01*
X157719819Y-104248684D02*
X156719819Y-104248684D01*
X156719819Y-104248684D02*
X157719819Y-104820112D01*
X157719819Y-104820112D02*
X156719819Y-104820112D01*
X157719819Y-105296303D02*
X156719819Y-105296303D01*
X156719819Y-105296303D02*
X156719819Y-105534398D01*
X156719819Y-105534398D02*
X156767438Y-105677255D01*
X156767438Y-105677255D02*
X156862676Y-105772493D01*
X156862676Y-105772493D02*
X156957914Y-105820112D01*
X156957914Y-105820112D02*
X157148390Y-105867731D01*
X157148390Y-105867731D02*
X157291247Y-105867731D01*
X157291247Y-105867731D02*
X157481723Y-105820112D01*
X157481723Y-105820112D02*
X157576961Y-105772493D01*
X157576961Y-105772493D02*
X157672200Y-105677255D01*
X157672200Y-105677255D02*
X157719819Y-105534398D01*
X157719819Y-105534398D02*
X157719819Y-105296303D01*
X158719819Y-101439161D02*
X158719819Y-102058208D01*
X158719819Y-102058208D02*
X159100771Y-101724875D01*
X159100771Y-101724875D02*
X159100771Y-101867732D01*
X159100771Y-101867732D02*
X159148390Y-101962970D01*
X159148390Y-101962970D02*
X159196009Y-102010589D01*
X159196009Y-102010589D02*
X159291247Y-102058208D01*
X159291247Y-102058208D02*
X159529342Y-102058208D01*
X159529342Y-102058208D02*
X159624580Y-102010589D01*
X159624580Y-102010589D02*
X159672200Y-101962970D01*
X159672200Y-101962970D02*
X159719819Y-101867732D01*
X159719819Y-101867732D02*
X159719819Y-101582018D01*
X159719819Y-101582018D02*
X159672200Y-101486780D01*
X159672200Y-101486780D02*
X159624580Y-101439161D01*
X159624580Y-102486780D02*
X159672200Y-102534399D01*
X159672200Y-102534399D02*
X159719819Y-102486780D01*
X159719819Y-102486780D02*
X159672200Y-102439161D01*
X159672200Y-102439161D02*
X159624580Y-102486780D01*
X159624580Y-102486780D02*
X159719819Y-102486780D01*
X158719819Y-102867732D02*
X158719819Y-103486779D01*
X158719819Y-103486779D02*
X159100771Y-103153446D01*
X159100771Y-103153446D02*
X159100771Y-103296303D01*
X159100771Y-103296303D02*
X159148390Y-103391541D01*
X159148390Y-103391541D02*
X159196009Y-103439160D01*
X159196009Y-103439160D02*
X159291247Y-103486779D01*
X159291247Y-103486779D02*
X159529342Y-103486779D01*
X159529342Y-103486779D02*
X159624580Y-103439160D01*
X159624580Y-103439160D02*
X159672200Y-103391541D01*
X159672200Y-103391541D02*
X159719819Y-103296303D01*
X159719819Y-103296303D02*
X159719819Y-103010589D01*
X159719819Y-103010589D02*
X159672200Y-102915351D01*
X159672200Y-102915351D02*
X159624580Y-102867732D01*
X158719819Y-103772494D02*
X159719819Y-104105827D01*
X159719819Y-104105827D02*
X158719819Y-104439160D01*
X159719819Y-104772494D02*
X158719819Y-104772494D01*
X159719819Y-105248684D02*
X158719819Y-105248684D01*
X158719819Y-105248684D02*
X159719819Y-105820112D01*
X159719819Y-105820112D02*
X158719819Y-105820112D01*
M02*
