%TF.GenerationSoftware,KiCad,Pcbnew,7.0.8*%
%TF.CreationDate,2025-01-02T16:25:01-08:00*%
%TF.ProjectId,tachometer board,74616368-6f6d-4657-9465-7220626f6172,rev?*%
%TF.SameCoordinates,Original*%
%TF.FileFunction,Drillmap*%
%TF.FilePolarity,Positive*%
%FSLAX45Y45*%
G04 Gerber Fmt 4.5, Leading zero omitted, Abs format (unit mm)*
G04 Created by KiCad (PCBNEW 7.0.8) date 2025-01-02 16:25:01*
%MOMM*%
%LPD*%
G01*
G04 APERTURE LIST*
%ADD10C,0.100000*%
%ADD11C,0.200000*%
G04 APERTURE END LIST*
D10*
X16419289Y-10074289D02*
X14819289Y-10074289D01*
X14501789Y-11424289D02*
X14501789Y-10914289D01*
X16736789Y-10914289D02*
X16619289Y-10914289D01*
X16519289Y-10814289D02*
X16519289Y-10654289D01*
X16519291Y-10814289D02*
G75*
G03*
X16619289Y-10914289I99999J-1D01*
G01*
X16519291Y-10174289D02*
G75*
G03*
X16419289Y-10074289I-100001J-1D01*
G01*
X14819289Y-10074289D02*
G75*
G03*
X14719289Y-10174289I1J-100001D01*
G01*
X14719289Y-10334289D02*
X14719289Y-10174289D01*
X16519289Y-10334289D02*
X16519289Y-10174289D01*
X14501789Y-10914289D02*
X14619289Y-10914289D01*
X14719289Y-10654291D02*
G75*
G03*
X14719289Y-10334289I1J160001D01*
G01*
X14501789Y-11424289D02*
X16736789Y-11424289D01*
X14719289Y-10814289D02*
X14719289Y-10654289D01*
X16519289Y-10334291D02*
G75*
G03*
X16519289Y-10654289I1J-159999D01*
G01*
X14619289Y-10914289D02*
G75*
G03*
X14719289Y-10814289I1J99999D01*
G01*
X16736789Y-11424289D02*
X16736789Y-10914289D01*
D11*
X14757566Y-11740773D02*
X14757566Y-11540773D01*
X14757566Y-11540773D02*
X14805185Y-11540773D01*
X14805185Y-11540773D02*
X14833757Y-11550297D01*
X14833757Y-11550297D02*
X14852804Y-11569344D01*
X14852804Y-11569344D02*
X14862328Y-11588392D01*
X14862328Y-11588392D02*
X14871852Y-11626487D01*
X14871852Y-11626487D02*
X14871852Y-11655059D01*
X14871852Y-11655059D02*
X14862328Y-11693154D01*
X14862328Y-11693154D02*
X14852804Y-11712202D01*
X14852804Y-11712202D02*
X14833757Y-11731249D01*
X14833757Y-11731249D02*
X14805185Y-11740773D01*
X14805185Y-11740773D02*
X14757566Y-11740773D01*
X14957566Y-11740773D02*
X14957566Y-11607440D01*
X14957566Y-11645535D02*
X14967090Y-11626487D01*
X14967090Y-11626487D02*
X14976614Y-11616963D01*
X14976614Y-11616963D02*
X14995661Y-11607440D01*
X14995661Y-11607440D02*
X15014709Y-11607440D01*
X15081376Y-11740773D02*
X15081376Y-11607440D01*
X15081376Y-11540773D02*
X15071852Y-11550297D01*
X15071852Y-11550297D02*
X15081376Y-11559821D01*
X15081376Y-11559821D02*
X15090899Y-11550297D01*
X15090899Y-11550297D02*
X15081376Y-11540773D01*
X15081376Y-11540773D02*
X15081376Y-11559821D01*
X15205185Y-11740773D02*
X15186137Y-11731249D01*
X15186137Y-11731249D02*
X15176614Y-11712202D01*
X15176614Y-11712202D02*
X15176614Y-11540773D01*
X15309947Y-11740773D02*
X15290899Y-11731249D01*
X15290899Y-11731249D02*
X15281376Y-11712202D01*
X15281376Y-11712202D02*
X15281376Y-11540773D01*
X15538518Y-11740773D02*
X15538518Y-11540773D01*
X15538518Y-11540773D02*
X15605185Y-11683630D01*
X15605185Y-11683630D02*
X15671852Y-11540773D01*
X15671852Y-11540773D02*
X15671852Y-11740773D01*
X15852804Y-11740773D02*
X15852804Y-11636011D01*
X15852804Y-11636011D02*
X15843280Y-11616963D01*
X15843280Y-11616963D02*
X15824233Y-11607440D01*
X15824233Y-11607440D02*
X15786137Y-11607440D01*
X15786137Y-11607440D02*
X15767090Y-11616963D01*
X15852804Y-11731249D02*
X15833757Y-11740773D01*
X15833757Y-11740773D02*
X15786137Y-11740773D01*
X15786137Y-11740773D02*
X15767090Y-11731249D01*
X15767090Y-11731249D02*
X15757566Y-11712202D01*
X15757566Y-11712202D02*
X15757566Y-11693154D01*
X15757566Y-11693154D02*
X15767090Y-11674106D01*
X15767090Y-11674106D02*
X15786137Y-11664583D01*
X15786137Y-11664583D02*
X15833757Y-11664583D01*
X15833757Y-11664583D02*
X15852804Y-11655059D01*
X15948042Y-11607440D02*
X15948042Y-11807440D01*
X15948042Y-11616963D02*
X15967090Y-11607440D01*
X15967090Y-11607440D02*
X16005185Y-11607440D01*
X16005185Y-11607440D02*
X16024233Y-11616963D01*
X16024233Y-11616963D02*
X16033757Y-11626487D01*
X16033757Y-11626487D02*
X16043280Y-11645535D01*
X16043280Y-11645535D02*
X16043280Y-11702678D01*
X16043280Y-11702678D02*
X16033757Y-11721725D01*
X16033757Y-11721725D02*
X16024233Y-11731249D01*
X16024233Y-11731249D02*
X16005185Y-11740773D01*
X16005185Y-11740773D02*
X15967090Y-11740773D01*
X15967090Y-11740773D02*
X15948042Y-11731249D01*
X16128995Y-11721725D02*
X16138518Y-11731249D01*
X16138518Y-11731249D02*
X16128995Y-11740773D01*
X16128995Y-11740773D02*
X16119471Y-11731249D01*
X16119471Y-11731249D02*
X16128995Y-11721725D01*
X16128995Y-11721725D02*
X16128995Y-11740773D01*
X16128995Y-11616963D02*
X16138518Y-11626487D01*
X16138518Y-11626487D02*
X16128995Y-11636011D01*
X16128995Y-11636011D02*
X16119471Y-11626487D01*
X16119471Y-11626487D02*
X16128995Y-11616963D01*
X16128995Y-11616963D02*
X16128995Y-11636011D01*
M02*
