%TF.GenerationSoftware,KiCad,Pcbnew,7.0.8*%
%TF.CreationDate,2025-01-02T16:25:01-08:00*%
%TF.ProjectId,tachometer board,74616368-6f6d-4657-9465-7220626f6172,rev?*%
%TF.SameCoordinates,Original*%
%TF.FileFunction,Drillmap*%
%TF.FilePolarity,Positive*%
%FSLAX45Y45*%
G04 Gerber Fmt 4.5, Leading zero omitted, Abs format (unit mm)*
G04 Created by KiCad (PCBNEW 7.0.8) date 2025-01-02 16:25:01*
%MOMM*%
%LPD*%
G01*
G04 APERTURE LIST*
%ADD10C,0.100000*%
%ADD11C,0.200000*%
%ADD12C,0.075000*%
%ADD13C,0.080000*%
G04 APERTURE END LIST*
D10*
X16419289Y-10074289D02*
X14819289Y-10074289D01*
X14501789Y-11424289D02*
X14501789Y-10914289D01*
X16736789Y-10914289D02*
X16619289Y-10914289D01*
X16519289Y-10814289D02*
X16519289Y-10654289D01*
X16519291Y-10814289D02*
G75*
G03*
X16619289Y-10914289I99999J-1D01*
G01*
X16519291Y-10174289D02*
G75*
G03*
X16419289Y-10074289I-100001J-1D01*
G01*
X14819289Y-10074289D02*
G75*
G03*
X14719289Y-10174289I1J-100001D01*
G01*
X14719289Y-10334289D02*
X14719289Y-10174289D01*
X16519289Y-10334289D02*
X16519289Y-10174289D01*
X14501789Y-10914289D02*
X14619289Y-10914289D01*
X14719289Y-10654291D02*
G75*
G03*
X14719289Y-10334289I1J160001D01*
G01*
X14501789Y-11424289D02*
X16736789Y-11424289D01*
X14719289Y-10814289D02*
X14719289Y-10654289D01*
X16519289Y-10334291D02*
G75*
G03*
X16519289Y-10654289I1J-159999D01*
G01*
X14619289Y-10914289D02*
G75*
G03*
X14719289Y-10814289I1J99999D01*
G01*
X16736789Y-11424289D02*
X16736789Y-10914289D01*
D11*
D12*
X15281789Y-10677500D02*
X15356789Y-10752500D01*
X15356789Y-10677500D02*
X15281789Y-10752500D01*
X15481789Y-10677500D02*
X15556789Y-10752500D01*
X15556789Y-10677500D02*
X15481789Y-10752500D01*
X15681789Y-10677500D02*
X15756789Y-10752500D01*
X15756789Y-10677500D02*
X15681789Y-10752500D01*
X15881789Y-10677500D02*
X15956789Y-10752500D01*
X15956789Y-10677500D02*
X15881789Y-10752500D01*
D13*
X14731789Y-11043000D02*
G75*
G03*
X14731789Y-11043000I-40000J0D01*
G01*
X14731789Y-11297000D02*
G75*
G03*
X14731789Y-11297000I-40000J0D01*
G01*
X15011789Y-11043000D02*
G75*
G03*
X15011789Y-11043000I-40000J0D01*
G01*
X15011789Y-11297000D02*
G75*
G03*
X15011789Y-11297000I-40000J0D01*
G01*
X16306789Y-11043000D02*
G75*
G03*
X16306789Y-11043000I-40000J0D01*
G01*
X16306789Y-11297000D02*
G75*
G03*
X16306789Y-11297000I-40000J0D01*
G01*
X16586789Y-11043000D02*
G75*
G03*
X16586789Y-11043000I-40000J0D01*
G01*
X16586789Y-11297000D02*
G75*
G03*
X16586789Y-11297000I-40000J0D01*
G01*
D11*
X14757566Y-11740773D02*
X14757566Y-11540773D01*
X14757566Y-11540773D02*
X14805185Y-11540773D01*
X14805185Y-11540773D02*
X14833757Y-11550297D01*
X14833757Y-11550297D02*
X14852804Y-11569344D01*
X14852804Y-11569344D02*
X14862328Y-11588392D01*
X14862328Y-11588392D02*
X14871852Y-11626487D01*
X14871852Y-11626487D02*
X14871852Y-11655059D01*
X14871852Y-11655059D02*
X14862328Y-11693154D01*
X14862328Y-11693154D02*
X14852804Y-11712202D01*
X14852804Y-11712202D02*
X14833757Y-11731249D01*
X14833757Y-11731249D02*
X14805185Y-11740773D01*
X14805185Y-11740773D02*
X14757566Y-11740773D01*
X14957566Y-11740773D02*
X14957566Y-11607440D01*
X14957566Y-11645535D02*
X14967090Y-11626487D01*
X14967090Y-11626487D02*
X14976614Y-11616963D01*
X14976614Y-11616963D02*
X14995661Y-11607440D01*
X14995661Y-11607440D02*
X15014709Y-11607440D01*
X15081376Y-11740773D02*
X15081376Y-11607440D01*
X15081376Y-11540773D02*
X15071852Y-11550297D01*
X15071852Y-11550297D02*
X15081376Y-11559821D01*
X15081376Y-11559821D02*
X15090899Y-11550297D01*
X15090899Y-11550297D02*
X15081376Y-11540773D01*
X15081376Y-11540773D02*
X15081376Y-11559821D01*
X15205185Y-11740773D02*
X15186137Y-11731249D01*
X15186137Y-11731249D02*
X15176614Y-11712202D01*
X15176614Y-11712202D02*
X15176614Y-11540773D01*
X15309947Y-11740773D02*
X15290899Y-11731249D01*
X15290899Y-11731249D02*
X15281376Y-11712202D01*
X15281376Y-11712202D02*
X15281376Y-11540773D01*
X15538518Y-11740773D02*
X15538518Y-11540773D01*
X15538518Y-11540773D02*
X15605185Y-11683630D01*
X15605185Y-11683630D02*
X15671852Y-11540773D01*
X15671852Y-11540773D02*
X15671852Y-11740773D01*
X15852804Y-11740773D02*
X15852804Y-11636011D01*
X15852804Y-11636011D02*
X15843280Y-11616963D01*
X15843280Y-11616963D02*
X15824233Y-11607440D01*
X15824233Y-11607440D02*
X15786137Y-11607440D01*
X15786137Y-11607440D02*
X15767090Y-11616963D01*
X15852804Y-11731249D02*
X15833757Y-11740773D01*
X15833757Y-11740773D02*
X15786137Y-11740773D01*
X15786137Y-11740773D02*
X15767090Y-11731249D01*
X15767090Y-11731249D02*
X15757566Y-11712202D01*
X15757566Y-11712202D02*
X15757566Y-11693154D01*
X15757566Y-11693154D02*
X15767090Y-11674106D01*
X15767090Y-11674106D02*
X15786137Y-11664583D01*
X15786137Y-11664583D02*
X15833757Y-11664583D01*
X15833757Y-11664583D02*
X15852804Y-11655059D01*
X15948042Y-11607440D02*
X15948042Y-11807440D01*
X15948042Y-11616963D02*
X15967090Y-11607440D01*
X15967090Y-11607440D02*
X16005185Y-11607440D01*
X16005185Y-11607440D02*
X16024233Y-11616963D01*
X16024233Y-11616963D02*
X16033757Y-11626487D01*
X16033757Y-11626487D02*
X16043280Y-11645535D01*
X16043280Y-11645535D02*
X16043280Y-11702678D01*
X16043280Y-11702678D02*
X16033757Y-11721725D01*
X16033757Y-11721725D02*
X16024233Y-11731249D01*
X16024233Y-11731249D02*
X16005185Y-11740773D01*
X16005185Y-11740773D02*
X15967090Y-11740773D01*
X15967090Y-11740773D02*
X15948042Y-11731249D01*
X16128995Y-11721725D02*
X16138518Y-11731249D01*
X16138518Y-11731249D02*
X16128995Y-11740773D01*
X16128995Y-11740773D02*
X16119471Y-11731249D01*
X16119471Y-11731249D02*
X16128995Y-11721725D01*
X16128995Y-11721725D02*
X16128995Y-11740773D01*
X16128995Y-11616963D02*
X16138518Y-11626487D01*
X16138518Y-11626487D02*
X16128995Y-11636011D01*
X16128995Y-11636011D02*
X16119471Y-11626487D01*
X16119471Y-11626487D02*
X16128995Y-11616963D01*
X16128995Y-11616963D02*
X16128995Y-11636011D01*
D12*
X14421789Y-12031789D02*
X14496789Y-12106789D01*
X14496789Y-12031789D02*
X14421789Y-12106789D01*
D11*
X14795661Y-11960773D02*
X14814709Y-11960773D01*
X14814709Y-11960773D02*
X14833757Y-11970297D01*
X14833757Y-11970297D02*
X14843280Y-11979821D01*
X14843280Y-11979821D02*
X14852804Y-11998868D01*
X14852804Y-11998868D02*
X14862328Y-12036963D01*
X14862328Y-12036963D02*
X14862328Y-12084583D01*
X14862328Y-12084583D02*
X14852804Y-12122678D01*
X14852804Y-12122678D02*
X14843280Y-12141725D01*
X14843280Y-12141725D02*
X14833757Y-12151249D01*
X14833757Y-12151249D02*
X14814709Y-12160773D01*
X14814709Y-12160773D02*
X14795661Y-12160773D01*
X14795661Y-12160773D02*
X14776614Y-12151249D01*
X14776614Y-12151249D02*
X14767090Y-12141725D01*
X14767090Y-12141725D02*
X14757566Y-12122678D01*
X14757566Y-12122678D02*
X14748042Y-12084583D01*
X14748042Y-12084583D02*
X14748042Y-12036963D01*
X14748042Y-12036963D02*
X14757566Y-11998868D01*
X14757566Y-11998868D02*
X14767090Y-11979821D01*
X14767090Y-11979821D02*
X14776614Y-11970297D01*
X14776614Y-11970297D02*
X14795661Y-11960773D01*
X14948042Y-12141725D02*
X14957566Y-12151249D01*
X14957566Y-12151249D02*
X14948042Y-12160773D01*
X14948042Y-12160773D02*
X14938518Y-12151249D01*
X14938518Y-12151249D02*
X14948042Y-12141725D01*
X14948042Y-12141725D02*
X14948042Y-12160773D01*
X15024233Y-11960773D02*
X15157566Y-11960773D01*
X15157566Y-11960773D02*
X15071852Y-12160773D01*
X15328995Y-11960773D02*
X15233757Y-11960773D01*
X15233757Y-11960773D02*
X15224233Y-12056011D01*
X15224233Y-12056011D02*
X15233757Y-12046487D01*
X15233757Y-12046487D02*
X15252804Y-12036963D01*
X15252804Y-12036963D02*
X15300423Y-12036963D01*
X15300423Y-12036963D02*
X15319471Y-12046487D01*
X15319471Y-12046487D02*
X15328995Y-12056011D01*
X15328995Y-12056011D02*
X15338518Y-12075059D01*
X15338518Y-12075059D02*
X15338518Y-12122678D01*
X15338518Y-12122678D02*
X15328995Y-12141725D01*
X15328995Y-12141725D02*
X15319471Y-12151249D01*
X15319471Y-12151249D02*
X15300423Y-12160773D01*
X15300423Y-12160773D02*
X15252804Y-12160773D01*
X15252804Y-12160773D02*
X15233757Y-12151249D01*
X15233757Y-12151249D02*
X15224233Y-12141725D01*
X15462328Y-11960773D02*
X15481376Y-11960773D01*
X15481376Y-11960773D02*
X15500423Y-11970297D01*
X15500423Y-11970297D02*
X15509947Y-11979821D01*
X15509947Y-11979821D02*
X15519471Y-11998868D01*
X15519471Y-11998868D02*
X15528995Y-12036963D01*
X15528995Y-12036963D02*
X15528995Y-12084583D01*
X15528995Y-12084583D02*
X15519471Y-12122678D01*
X15519471Y-12122678D02*
X15509947Y-12141725D01*
X15509947Y-12141725D02*
X15500423Y-12151249D01*
X15500423Y-12151249D02*
X15481376Y-12160773D01*
X15481376Y-12160773D02*
X15462328Y-12160773D01*
X15462328Y-12160773D02*
X15443280Y-12151249D01*
X15443280Y-12151249D02*
X15433757Y-12141725D01*
X15433757Y-12141725D02*
X15424233Y-12122678D01*
X15424233Y-12122678D02*
X15414709Y-12084583D01*
X15414709Y-12084583D02*
X15414709Y-12036963D01*
X15414709Y-12036963D02*
X15424233Y-11998868D01*
X15424233Y-11998868D02*
X15433757Y-11979821D01*
X15433757Y-11979821D02*
X15443280Y-11970297D01*
X15443280Y-11970297D02*
X15462328Y-11960773D01*
X15614709Y-12160773D02*
X15614709Y-12027440D01*
X15614709Y-12046487D02*
X15624233Y-12036963D01*
X15624233Y-12036963D02*
X15643280Y-12027440D01*
X15643280Y-12027440D02*
X15671852Y-12027440D01*
X15671852Y-12027440D02*
X15690899Y-12036963D01*
X15690899Y-12036963D02*
X15700423Y-12056011D01*
X15700423Y-12056011D02*
X15700423Y-12160773D01*
X15700423Y-12056011D02*
X15709947Y-12036963D01*
X15709947Y-12036963D02*
X15728995Y-12027440D01*
X15728995Y-12027440D02*
X15757566Y-12027440D01*
X15757566Y-12027440D02*
X15776614Y-12036963D01*
X15776614Y-12036963D02*
X15786138Y-12056011D01*
X15786138Y-12056011D02*
X15786138Y-12160773D01*
X15881376Y-12160773D02*
X15881376Y-12027440D01*
X15881376Y-12046487D02*
X15890899Y-12036963D01*
X15890899Y-12036963D02*
X15909947Y-12027440D01*
X15909947Y-12027440D02*
X15938519Y-12027440D01*
X15938519Y-12027440D02*
X15957566Y-12036963D01*
X15957566Y-12036963D02*
X15967090Y-12056011D01*
X15967090Y-12056011D02*
X15967090Y-12160773D01*
X15967090Y-12056011D02*
X15976614Y-12036963D01*
X15976614Y-12036963D02*
X15995661Y-12027440D01*
X15995661Y-12027440D02*
X16024233Y-12027440D01*
X16024233Y-12027440D02*
X16043280Y-12036963D01*
X16043280Y-12036963D02*
X16052804Y-12056011D01*
X16052804Y-12056011D02*
X16052804Y-12160773D01*
X16443280Y-11951249D02*
X16271852Y-12208392D01*
X16700423Y-11960773D02*
X16719471Y-11960773D01*
X16719471Y-11960773D02*
X16738519Y-11970297D01*
X16738519Y-11970297D02*
X16748042Y-11979821D01*
X16748042Y-11979821D02*
X16757566Y-11998868D01*
X16757566Y-11998868D02*
X16767090Y-12036963D01*
X16767090Y-12036963D02*
X16767090Y-12084583D01*
X16767090Y-12084583D02*
X16757566Y-12122678D01*
X16757566Y-12122678D02*
X16748042Y-12141725D01*
X16748042Y-12141725D02*
X16738519Y-12151249D01*
X16738519Y-12151249D02*
X16719471Y-12160773D01*
X16719471Y-12160773D02*
X16700423Y-12160773D01*
X16700423Y-12160773D02*
X16681376Y-12151249D01*
X16681376Y-12151249D02*
X16671852Y-12141725D01*
X16671852Y-12141725D02*
X16662328Y-12122678D01*
X16662328Y-12122678D02*
X16652804Y-12084583D01*
X16652804Y-12084583D02*
X16652804Y-12036963D01*
X16652804Y-12036963D02*
X16662328Y-11998868D01*
X16662328Y-11998868D02*
X16671852Y-11979821D01*
X16671852Y-11979821D02*
X16681376Y-11970297D01*
X16681376Y-11970297D02*
X16700423Y-11960773D01*
X16852804Y-12141725D02*
X16862328Y-12151249D01*
X16862328Y-12151249D02*
X16852804Y-12160773D01*
X16852804Y-12160773D02*
X16843281Y-12151249D01*
X16843281Y-12151249D02*
X16852804Y-12141725D01*
X16852804Y-12141725D02*
X16852804Y-12160773D01*
X16986138Y-11960773D02*
X17005185Y-11960773D01*
X17005185Y-11960773D02*
X17024233Y-11970297D01*
X17024233Y-11970297D02*
X17033757Y-11979821D01*
X17033757Y-11979821D02*
X17043281Y-11998868D01*
X17043281Y-11998868D02*
X17052804Y-12036963D01*
X17052804Y-12036963D02*
X17052804Y-12084583D01*
X17052804Y-12084583D02*
X17043281Y-12122678D01*
X17043281Y-12122678D02*
X17033757Y-12141725D01*
X17033757Y-12141725D02*
X17024233Y-12151249D01*
X17024233Y-12151249D02*
X17005185Y-12160773D01*
X17005185Y-12160773D02*
X16986138Y-12160773D01*
X16986138Y-12160773D02*
X16967090Y-12151249D01*
X16967090Y-12151249D02*
X16957566Y-12141725D01*
X16957566Y-12141725D02*
X16948043Y-12122678D01*
X16948043Y-12122678D02*
X16938519Y-12084583D01*
X16938519Y-12084583D02*
X16938519Y-12036963D01*
X16938519Y-12036963D02*
X16948043Y-11998868D01*
X16948043Y-11998868D02*
X16957566Y-11979821D01*
X16957566Y-11979821D02*
X16967090Y-11970297D01*
X16967090Y-11970297D02*
X16986138Y-11960773D01*
X17128995Y-11979821D02*
X17138519Y-11970297D01*
X17138519Y-11970297D02*
X17157566Y-11960773D01*
X17157566Y-11960773D02*
X17205185Y-11960773D01*
X17205185Y-11960773D02*
X17224233Y-11970297D01*
X17224233Y-11970297D02*
X17233757Y-11979821D01*
X17233757Y-11979821D02*
X17243281Y-11998868D01*
X17243281Y-11998868D02*
X17243281Y-12017916D01*
X17243281Y-12017916D02*
X17233757Y-12046487D01*
X17233757Y-12046487D02*
X17119471Y-12160773D01*
X17119471Y-12160773D02*
X17243281Y-12160773D01*
X17338519Y-12160773D02*
X17376614Y-12160773D01*
X17376614Y-12160773D02*
X17395662Y-12151249D01*
X17395662Y-12151249D02*
X17405185Y-12141725D01*
X17405185Y-12141725D02*
X17424233Y-12113154D01*
X17424233Y-12113154D02*
X17433757Y-12075059D01*
X17433757Y-12075059D02*
X17433757Y-11998868D01*
X17433757Y-11998868D02*
X17424233Y-11979821D01*
X17424233Y-11979821D02*
X17414709Y-11970297D01*
X17414709Y-11970297D02*
X17395662Y-11960773D01*
X17395662Y-11960773D02*
X17357566Y-11960773D01*
X17357566Y-11960773D02*
X17338519Y-11970297D01*
X17338519Y-11970297D02*
X17328995Y-11979821D01*
X17328995Y-11979821D02*
X17319471Y-11998868D01*
X17319471Y-11998868D02*
X17319471Y-12046487D01*
X17319471Y-12046487D02*
X17328995Y-12065535D01*
X17328995Y-12065535D02*
X17338519Y-12075059D01*
X17338519Y-12075059D02*
X17357566Y-12084583D01*
X17357566Y-12084583D02*
X17395662Y-12084583D01*
X17395662Y-12084583D02*
X17414709Y-12075059D01*
X17414709Y-12075059D02*
X17424233Y-12065535D01*
X17424233Y-12065535D02*
X17433757Y-12046487D01*
X17614709Y-11960773D02*
X17519471Y-11960773D01*
X17519471Y-11960773D02*
X17509947Y-12056011D01*
X17509947Y-12056011D02*
X17519471Y-12046487D01*
X17519471Y-12046487D02*
X17538519Y-12036963D01*
X17538519Y-12036963D02*
X17586138Y-12036963D01*
X17586138Y-12036963D02*
X17605185Y-12046487D01*
X17605185Y-12046487D02*
X17614709Y-12056011D01*
X17614709Y-12056011D02*
X17624233Y-12075059D01*
X17624233Y-12075059D02*
X17624233Y-12122678D01*
X17624233Y-12122678D02*
X17614709Y-12141725D01*
X17614709Y-12141725D02*
X17605185Y-12151249D01*
X17605185Y-12151249D02*
X17586138Y-12160773D01*
X17586138Y-12160773D02*
X17538519Y-12160773D01*
X17538519Y-12160773D02*
X17519471Y-12151249D01*
X17519471Y-12151249D02*
X17509947Y-12141725D01*
X17700424Y-11960773D02*
X17700424Y-11998868D01*
X17776614Y-11960773D02*
X17776614Y-11998868D01*
X18071852Y-12236963D02*
X18062328Y-12227440D01*
X18062328Y-12227440D02*
X18043281Y-12198868D01*
X18043281Y-12198868D02*
X18033757Y-12179821D01*
X18033757Y-12179821D02*
X18024233Y-12151249D01*
X18024233Y-12151249D02*
X18014709Y-12103630D01*
X18014709Y-12103630D02*
X18014709Y-12065535D01*
X18014709Y-12065535D02*
X18024233Y-12017916D01*
X18024233Y-12017916D02*
X18033757Y-11989344D01*
X18033757Y-11989344D02*
X18043281Y-11970297D01*
X18043281Y-11970297D02*
X18062328Y-11941725D01*
X18062328Y-11941725D02*
X18071852Y-11932202D01*
X18233757Y-12027440D02*
X18233757Y-12160773D01*
X18186138Y-11951249D02*
X18138519Y-12094106D01*
X18138519Y-12094106D02*
X18262328Y-12094106D01*
X18490900Y-12160773D02*
X18490900Y-11960773D01*
X18576614Y-12160773D02*
X18576614Y-12056011D01*
X18576614Y-12056011D02*
X18567090Y-12036963D01*
X18567090Y-12036963D02*
X18548043Y-12027440D01*
X18548043Y-12027440D02*
X18519471Y-12027440D01*
X18519471Y-12027440D02*
X18500424Y-12036963D01*
X18500424Y-12036963D02*
X18490900Y-12046487D01*
X18700424Y-12160773D02*
X18681376Y-12151249D01*
X18681376Y-12151249D02*
X18671852Y-12141725D01*
X18671852Y-12141725D02*
X18662328Y-12122678D01*
X18662328Y-12122678D02*
X18662328Y-12065535D01*
X18662328Y-12065535D02*
X18671852Y-12046487D01*
X18671852Y-12046487D02*
X18681376Y-12036963D01*
X18681376Y-12036963D02*
X18700424Y-12027440D01*
X18700424Y-12027440D02*
X18728995Y-12027440D01*
X18728995Y-12027440D02*
X18748043Y-12036963D01*
X18748043Y-12036963D02*
X18757567Y-12046487D01*
X18757567Y-12046487D02*
X18767090Y-12065535D01*
X18767090Y-12065535D02*
X18767090Y-12122678D01*
X18767090Y-12122678D02*
X18757567Y-12141725D01*
X18757567Y-12141725D02*
X18748043Y-12151249D01*
X18748043Y-12151249D02*
X18728995Y-12160773D01*
X18728995Y-12160773D02*
X18700424Y-12160773D01*
X18881376Y-12160773D02*
X18862328Y-12151249D01*
X18862328Y-12151249D02*
X18852805Y-12132202D01*
X18852805Y-12132202D02*
X18852805Y-11960773D01*
X19033757Y-12151249D02*
X19014709Y-12160773D01*
X19014709Y-12160773D02*
X18976614Y-12160773D01*
X18976614Y-12160773D02*
X18957567Y-12151249D01*
X18957567Y-12151249D02*
X18948043Y-12132202D01*
X18948043Y-12132202D02*
X18948043Y-12056011D01*
X18948043Y-12056011D02*
X18957567Y-12036963D01*
X18957567Y-12036963D02*
X18976614Y-12027440D01*
X18976614Y-12027440D02*
X19014709Y-12027440D01*
X19014709Y-12027440D02*
X19033757Y-12036963D01*
X19033757Y-12036963D02*
X19043281Y-12056011D01*
X19043281Y-12056011D02*
X19043281Y-12075059D01*
X19043281Y-12075059D02*
X18948043Y-12094106D01*
X19119471Y-12151249D02*
X19138519Y-12160773D01*
X19138519Y-12160773D02*
X19176614Y-12160773D01*
X19176614Y-12160773D02*
X19195662Y-12151249D01*
X19195662Y-12151249D02*
X19205186Y-12132202D01*
X19205186Y-12132202D02*
X19205186Y-12122678D01*
X19205186Y-12122678D02*
X19195662Y-12103630D01*
X19195662Y-12103630D02*
X19176614Y-12094106D01*
X19176614Y-12094106D02*
X19148043Y-12094106D01*
X19148043Y-12094106D02*
X19128995Y-12084583D01*
X19128995Y-12084583D02*
X19119471Y-12065535D01*
X19119471Y-12065535D02*
X19119471Y-12056011D01*
X19119471Y-12056011D02*
X19128995Y-12036963D01*
X19128995Y-12036963D02*
X19148043Y-12027440D01*
X19148043Y-12027440D02*
X19176614Y-12027440D01*
X19176614Y-12027440D02*
X19195662Y-12036963D01*
X19271852Y-12236963D02*
X19281376Y-12227440D01*
X19281376Y-12227440D02*
X19300424Y-12198868D01*
X19300424Y-12198868D02*
X19309948Y-12179821D01*
X19309948Y-12179821D02*
X19319471Y-12151249D01*
X19319471Y-12151249D02*
X19328995Y-12103630D01*
X19328995Y-12103630D02*
X19328995Y-12065535D01*
X19328995Y-12065535D02*
X19319471Y-12017916D01*
X19319471Y-12017916D02*
X19309948Y-11989344D01*
X19309948Y-11989344D02*
X19300424Y-11970297D01*
X19300424Y-11970297D02*
X19281376Y-11941725D01*
X19281376Y-11941725D02*
X19271852Y-11932202D01*
D13*
X14496789Y-12333289D02*
G75*
G03*
X14496789Y-12333289I-40000J0D01*
G01*
D11*
X14795661Y-12224773D02*
X14814709Y-12224773D01*
X14814709Y-12224773D02*
X14833757Y-12234297D01*
X14833757Y-12234297D02*
X14843280Y-12243821D01*
X14843280Y-12243821D02*
X14852804Y-12262868D01*
X14852804Y-12262868D02*
X14862328Y-12300963D01*
X14862328Y-12300963D02*
X14862328Y-12348583D01*
X14862328Y-12348583D02*
X14852804Y-12386678D01*
X14852804Y-12386678D02*
X14843280Y-12405725D01*
X14843280Y-12405725D02*
X14833757Y-12415249D01*
X14833757Y-12415249D02*
X14814709Y-12424773D01*
X14814709Y-12424773D02*
X14795661Y-12424773D01*
X14795661Y-12424773D02*
X14776614Y-12415249D01*
X14776614Y-12415249D02*
X14767090Y-12405725D01*
X14767090Y-12405725D02*
X14757566Y-12386678D01*
X14757566Y-12386678D02*
X14748042Y-12348583D01*
X14748042Y-12348583D02*
X14748042Y-12300963D01*
X14748042Y-12300963D02*
X14757566Y-12262868D01*
X14757566Y-12262868D02*
X14767090Y-12243821D01*
X14767090Y-12243821D02*
X14776614Y-12234297D01*
X14776614Y-12234297D02*
X14795661Y-12224773D01*
X14948042Y-12405725D02*
X14957566Y-12415249D01*
X14957566Y-12415249D02*
X14948042Y-12424773D01*
X14948042Y-12424773D02*
X14938518Y-12415249D01*
X14938518Y-12415249D02*
X14948042Y-12405725D01*
X14948042Y-12405725D02*
X14948042Y-12424773D01*
X15071852Y-12310487D02*
X15052804Y-12300963D01*
X15052804Y-12300963D02*
X15043280Y-12291440D01*
X15043280Y-12291440D02*
X15033757Y-12272392D01*
X15033757Y-12272392D02*
X15033757Y-12262868D01*
X15033757Y-12262868D02*
X15043280Y-12243821D01*
X15043280Y-12243821D02*
X15052804Y-12234297D01*
X15052804Y-12234297D02*
X15071852Y-12224773D01*
X15071852Y-12224773D02*
X15109947Y-12224773D01*
X15109947Y-12224773D02*
X15128995Y-12234297D01*
X15128995Y-12234297D02*
X15138518Y-12243821D01*
X15138518Y-12243821D02*
X15148042Y-12262868D01*
X15148042Y-12262868D02*
X15148042Y-12272392D01*
X15148042Y-12272392D02*
X15138518Y-12291440D01*
X15138518Y-12291440D02*
X15128995Y-12300963D01*
X15128995Y-12300963D02*
X15109947Y-12310487D01*
X15109947Y-12310487D02*
X15071852Y-12310487D01*
X15071852Y-12310487D02*
X15052804Y-12320011D01*
X15052804Y-12320011D02*
X15043280Y-12329535D01*
X15043280Y-12329535D02*
X15033757Y-12348583D01*
X15033757Y-12348583D02*
X15033757Y-12386678D01*
X15033757Y-12386678D02*
X15043280Y-12405725D01*
X15043280Y-12405725D02*
X15052804Y-12415249D01*
X15052804Y-12415249D02*
X15071852Y-12424773D01*
X15071852Y-12424773D02*
X15109947Y-12424773D01*
X15109947Y-12424773D02*
X15128995Y-12415249D01*
X15128995Y-12415249D02*
X15138518Y-12405725D01*
X15138518Y-12405725D02*
X15148042Y-12386678D01*
X15148042Y-12386678D02*
X15148042Y-12348583D01*
X15148042Y-12348583D02*
X15138518Y-12329535D01*
X15138518Y-12329535D02*
X15128995Y-12320011D01*
X15128995Y-12320011D02*
X15109947Y-12310487D01*
X15271852Y-12224773D02*
X15290899Y-12224773D01*
X15290899Y-12224773D02*
X15309947Y-12234297D01*
X15309947Y-12234297D02*
X15319471Y-12243821D01*
X15319471Y-12243821D02*
X15328995Y-12262868D01*
X15328995Y-12262868D02*
X15338518Y-12300963D01*
X15338518Y-12300963D02*
X15338518Y-12348583D01*
X15338518Y-12348583D02*
X15328995Y-12386678D01*
X15328995Y-12386678D02*
X15319471Y-12405725D01*
X15319471Y-12405725D02*
X15309947Y-12415249D01*
X15309947Y-12415249D02*
X15290899Y-12424773D01*
X15290899Y-12424773D02*
X15271852Y-12424773D01*
X15271852Y-12424773D02*
X15252804Y-12415249D01*
X15252804Y-12415249D02*
X15243280Y-12405725D01*
X15243280Y-12405725D02*
X15233757Y-12386678D01*
X15233757Y-12386678D02*
X15224233Y-12348583D01*
X15224233Y-12348583D02*
X15224233Y-12300963D01*
X15224233Y-12300963D02*
X15233757Y-12262868D01*
X15233757Y-12262868D02*
X15243280Y-12243821D01*
X15243280Y-12243821D02*
X15252804Y-12234297D01*
X15252804Y-12234297D02*
X15271852Y-12224773D01*
X15462328Y-12224773D02*
X15481376Y-12224773D01*
X15481376Y-12224773D02*
X15500423Y-12234297D01*
X15500423Y-12234297D02*
X15509947Y-12243821D01*
X15509947Y-12243821D02*
X15519471Y-12262868D01*
X15519471Y-12262868D02*
X15528995Y-12300963D01*
X15528995Y-12300963D02*
X15528995Y-12348583D01*
X15528995Y-12348583D02*
X15519471Y-12386678D01*
X15519471Y-12386678D02*
X15509947Y-12405725D01*
X15509947Y-12405725D02*
X15500423Y-12415249D01*
X15500423Y-12415249D02*
X15481376Y-12424773D01*
X15481376Y-12424773D02*
X15462328Y-12424773D01*
X15462328Y-12424773D02*
X15443280Y-12415249D01*
X15443280Y-12415249D02*
X15433757Y-12405725D01*
X15433757Y-12405725D02*
X15424233Y-12386678D01*
X15424233Y-12386678D02*
X15414709Y-12348583D01*
X15414709Y-12348583D02*
X15414709Y-12300963D01*
X15414709Y-12300963D02*
X15424233Y-12262868D01*
X15424233Y-12262868D02*
X15433757Y-12243821D01*
X15433757Y-12243821D02*
X15443280Y-12234297D01*
X15443280Y-12234297D02*
X15462328Y-12224773D01*
X15614709Y-12424773D02*
X15614709Y-12291440D01*
X15614709Y-12310487D02*
X15624233Y-12300963D01*
X15624233Y-12300963D02*
X15643280Y-12291440D01*
X15643280Y-12291440D02*
X15671852Y-12291440D01*
X15671852Y-12291440D02*
X15690899Y-12300963D01*
X15690899Y-12300963D02*
X15700423Y-12320011D01*
X15700423Y-12320011D02*
X15700423Y-12424773D01*
X15700423Y-12320011D02*
X15709947Y-12300963D01*
X15709947Y-12300963D02*
X15728995Y-12291440D01*
X15728995Y-12291440D02*
X15757566Y-12291440D01*
X15757566Y-12291440D02*
X15776614Y-12300963D01*
X15776614Y-12300963D02*
X15786138Y-12320011D01*
X15786138Y-12320011D02*
X15786138Y-12424773D01*
X15881376Y-12424773D02*
X15881376Y-12291440D01*
X15881376Y-12310487D02*
X15890899Y-12300963D01*
X15890899Y-12300963D02*
X15909947Y-12291440D01*
X15909947Y-12291440D02*
X15938519Y-12291440D01*
X15938519Y-12291440D02*
X15957566Y-12300963D01*
X15957566Y-12300963D02*
X15967090Y-12320011D01*
X15967090Y-12320011D02*
X15967090Y-12424773D01*
X15967090Y-12320011D02*
X15976614Y-12300963D01*
X15976614Y-12300963D02*
X15995661Y-12291440D01*
X15995661Y-12291440D02*
X16024233Y-12291440D01*
X16024233Y-12291440D02*
X16043280Y-12300963D01*
X16043280Y-12300963D02*
X16052804Y-12320011D01*
X16052804Y-12320011D02*
X16052804Y-12424773D01*
X16443280Y-12215249D02*
X16271852Y-12472392D01*
X16700423Y-12224773D02*
X16719471Y-12224773D01*
X16719471Y-12224773D02*
X16738519Y-12234297D01*
X16738519Y-12234297D02*
X16748042Y-12243821D01*
X16748042Y-12243821D02*
X16757566Y-12262868D01*
X16757566Y-12262868D02*
X16767090Y-12300963D01*
X16767090Y-12300963D02*
X16767090Y-12348583D01*
X16767090Y-12348583D02*
X16757566Y-12386678D01*
X16757566Y-12386678D02*
X16748042Y-12405725D01*
X16748042Y-12405725D02*
X16738519Y-12415249D01*
X16738519Y-12415249D02*
X16719471Y-12424773D01*
X16719471Y-12424773D02*
X16700423Y-12424773D01*
X16700423Y-12424773D02*
X16681376Y-12415249D01*
X16681376Y-12415249D02*
X16671852Y-12405725D01*
X16671852Y-12405725D02*
X16662328Y-12386678D01*
X16662328Y-12386678D02*
X16652804Y-12348583D01*
X16652804Y-12348583D02*
X16652804Y-12300963D01*
X16652804Y-12300963D02*
X16662328Y-12262868D01*
X16662328Y-12262868D02*
X16671852Y-12243821D01*
X16671852Y-12243821D02*
X16681376Y-12234297D01*
X16681376Y-12234297D02*
X16700423Y-12224773D01*
X16852804Y-12405725D02*
X16862328Y-12415249D01*
X16862328Y-12415249D02*
X16852804Y-12424773D01*
X16852804Y-12424773D02*
X16843281Y-12415249D01*
X16843281Y-12415249D02*
X16852804Y-12405725D01*
X16852804Y-12405725D02*
X16852804Y-12424773D01*
X16986138Y-12224773D02*
X17005185Y-12224773D01*
X17005185Y-12224773D02*
X17024233Y-12234297D01*
X17024233Y-12234297D02*
X17033757Y-12243821D01*
X17033757Y-12243821D02*
X17043281Y-12262868D01*
X17043281Y-12262868D02*
X17052804Y-12300963D01*
X17052804Y-12300963D02*
X17052804Y-12348583D01*
X17052804Y-12348583D02*
X17043281Y-12386678D01*
X17043281Y-12386678D02*
X17033757Y-12405725D01*
X17033757Y-12405725D02*
X17024233Y-12415249D01*
X17024233Y-12415249D02*
X17005185Y-12424773D01*
X17005185Y-12424773D02*
X16986138Y-12424773D01*
X16986138Y-12424773D02*
X16967090Y-12415249D01*
X16967090Y-12415249D02*
X16957566Y-12405725D01*
X16957566Y-12405725D02*
X16948043Y-12386678D01*
X16948043Y-12386678D02*
X16938519Y-12348583D01*
X16938519Y-12348583D02*
X16938519Y-12300963D01*
X16938519Y-12300963D02*
X16948043Y-12262868D01*
X16948043Y-12262868D02*
X16957566Y-12243821D01*
X16957566Y-12243821D02*
X16967090Y-12234297D01*
X16967090Y-12234297D02*
X16986138Y-12224773D01*
X17119471Y-12224773D02*
X17243281Y-12224773D01*
X17243281Y-12224773D02*
X17176614Y-12300963D01*
X17176614Y-12300963D02*
X17205185Y-12300963D01*
X17205185Y-12300963D02*
X17224233Y-12310487D01*
X17224233Y-12310487D02*
X17233757Y-12320011D01*
X17233757Y-12320011D02*
X17243281Y-12339059D01*
X17243281Y-12339059D02*
X17243281Y-12386678D01*
X17243281Y-12386678D02*
X17233757Y-12405725D01*
X17233757Y-12405725D02*
X17224233Y-12415249D01*
X17224233Y-12415249D02*
X17205185Y-12424773D01*
X17205185Y-12424773D02*
X17148043Y-12424773D01*
X17148043Y-12424773D02*
X17128995Y-12415249D01*
X17128995Y-12415249D02*
X17119471Y-12405725D01*
X17433757Y-12424773D02*
X17319471Y-12424773D01*
X17376614Y-12424773D02*
X17376614Y-12224773D01*
X17376614Y-12224773D02*
X17357566Y-12253344D01*
X17357566Y-12253344D02*
X17338519Y-12272392D01*
X17338519Y-12272392D02*
X17319471Y-12281916D01*
X17614709Y-12224773D02*
X17519471Y-12224773D01*
X17519471Y-12224773D02*
X17509947Y-12320011D01*
X17509947Y-12320011D02*
X17519471Y-12310487D01*
X17519471Y-12310487D02*
X17538519Y-12300963D01*
X17538519Y-12300963D02*
X17586138Y-12300963D01*
X17586138Y-12300963D02*
X17605185Y-12310487D01*
X17605185Y-12310487D02*
X17614709Y-12320011D01*
X17614709Y-12320011D02*
X17624233Y-12339059D01*
X17624233Y-12339059D02*
X17624233Y-12386678D01*
X17624233Y-12386678D02*
X17614709Y-12405725D01*
X17614709Y-12405725D02*
X17605185Y-12415249D01*
X17605185Y-12415249D02*
X17586138Y-12424773D01*
X17586138Y-12424773D02*
X17538519Y-12424773D01*
X17538519Y-12424773D02*
X17519471Y-12415249D01*
X17519471Y-12415249D02*
X17509947Y-12405725D01*
X17700424Y-12224773D02*
X17700424Y-12262868D01*
X17776614Y-12224773D02*
X17776614Y-12262868D01*
X18071852Y-12500963D02*
X18062328Y-12491440D01*
X18062328Y-12491440D02*
X18043281Y-12462868D01*
X18043281Y-12462868D02*
X18033757Y-12443821D01*
X18033757Y-12443821D02*
X18024233Y-12415249D01*
X18024233Y-12415249D02*
X18014709Y-12367630D01*
X18014709Y-12367630D02*
X18014709Y-12329535D01*
X18014709Y-12329535D02*
X18024233Y-12281916D01*
X18024233Y-12281916D02*
X18033757Y-12253344D01*
X18033757Y-12253344D02*
X18043281Y-12234297D01*
X18043281Y-12234297D02*
X18062328Y-12205725D01*
X18062328Y-12205725D02*
X18071852Y-12196202D01*
X18176614Y-12310487D02*
X18157566Y-12300963D01*
X18157566Y-12300963D02*
X18148043Y-12291440D01*
X18148043Y-12291440D02*
X18138519Y-12272392D01*
X18138519Y-12272392D02*
X18138519Y-12262868D01*
X18138519Y-12262868D02*
X18148043Y-12243821D01*
X18148043Y-12243821D02*
X18157566Y-12234297D01*
X18157566Y-12234297D02*
X18176614Y-12224773D01*
X18176614Y-12224773D02*
X18214709Y-12224773D01*
X18214709Y-12224773D02*
X18233757Y-12234297D01*
X18233757Y-12234297D02*
X18243281Y-12243821D01*
X18243281Y-12243821D02*
X18252805Y-12262868D01*
X18252805Y-12262868D02*
X18252805Y-12272392D01*
X18252805Y-12272392D02*
X18243281Y-12291440D01*
X18243281Y-12291440D02*
X18233757Y-12300963D01*
X18233757Y-12300963D02*
X18214709Y-12310487D01*
X18214709Y-12310487D02*
X18176614Y-12310487D01*
X18176614Y-12310487D02*
X18157566Y-12320011D01*
X18157566Y-12320011D02*
X18148043Y-12329535D01*
X18148043Y-12329535D02*
X18138519Y-12348583D01*
X18138519Y-12348583D02*
X18138519Y-12386678D01*
X18138519Y-12386678D02*
X18148043Y-12405725D01*
X18148043Y-12405725D02*
X18157566Y-12415249D01*
X18157566Y-12415249D02*
X18176614Y-12424773D01*
X18176614Y-12424773D02*
X18214709Y-12424773D01*
X18214709Y-12424773D02*
X18233757Y-12415249D01*
X18233757Y-12415249D02*
X18243281Y-12405725D01*
X18243281Y-12405725D02*
X18252805Y-12386678D01*
X18252805Y-12386678D02*
X18252805Y-12348583D01*
X18252805Y-12348583D02*
X18243281Y-12329535D01*
X18243281Y-12329535D02*
X18233757Y-12320011D01*
X18233757Y-12320011D02*
X18214709Y-12310487D01*
X18490900Y-12424773D02*
X18490900Y-12224773D01*
X18576614Y-12424773D02*
X18576614Y-12320011D01*
X18576614Y-12320011D02*
X18567090Y-12300963D01*
X18567090Y-12300963D02*
X18548043Y-12291440D01*
X18548043Y-12291440D02*
X18519471Y-12291440D01*
X18519471Y-12291440D02*
X18500424Y-12300963D01*
X18500424Y-12300963D02*
X18490900Y-12310487D01*
X18700424Y-12424773D02*
X18681376Y-12415249D01*
X18681376Y-12415249D02*
X18671852Y-12405725D01*
X18671852Y-12405725D02*
X18662328Y-12386678D01*
X18662328Y-12386678D02*
X18662328Y-12329535D01*
X18662328Y-12329535D02*
X18671852Y-12310487D01*
X18671852Y-12310487D02*
X18681376Y-12300963D01*
X18681376Y-12300963D02*
X18700424Y-12291440D01*
X18700424Y-12291440D02*
X18728995Y-12291440D01*
X18728995Y-12291440D02*
X18748043Y-12300963D01*
X18748043Y-12300963D02*
X18757567Y-12310487D01*
X18757567Y-12310487D02*
X18767090Y-12329535D01*
X18767090Y-12329535D02*
X18767090Y-12386678D01*
X18767090Y-12386678D02*
X18757567Y-12405725D01*
X18757567Y-12405725D02*
X18748043Y-12415249D01*
X18748043Y-12415249D02*
X18728995Y-12424773D01*
X18728995Y-12424773D02*
X18700424Y-12424773D01*
X18881376Y-12424773D02*
X18862328Y-12415249D01*
X18862328Y-12415249D02*
X18852805Y-12396202D01*
X18852805Y-12396202D02*
X18852805Y-12224773D01*
X19033757Y-12415249D02*
X19014709Y-12424773D01*
X19014709Y-12424773D02*
X18976614Y-12424773D01*
X18976614Y-12424773D02*
X18957567Y-12415249D01*
X18957567Y-12415249D02*
X18948043Y-12396202D01*
X18948043Y-12396202D02*
X18948043Y-12320011D01*
X18948043Y-12320011D02*
X18957567Y-12300963D01*
X18957567Y-12300963D02*
X18976614Y-12291440D01*
X18976614Y-12291440D02*
X19014709Y-12291440D01*
X19014709Y-12291440D02*
X19033757Y-12300963D01*
X19033757Y-12300963D02*
X19043281Y-12320011D01*
X19043281Y-12320011D02*
X19043281Y-12339059D01*
X19043281Y-12339059D02*
X18948043Y-12358106D01*
X19119471Y-12415249D02*
X19138519Y-12424773D01*
X19138519Y-12424773D02*
X19176614Y-12424773D01*
X19176614Y-12424773D02*
X19195662Y-12415249D01*
X19195662Y-12415249D02*
X19205186Y-12396202D01*
X19205186Y-12396202D02*
X19205186Y-12386678D01*
X19205186Y-12386678D02*
X19195662Y-12367630D01*
X19195662Y-12367630D02*
X19176614Y-12358106D01*
X19176614Y-12358106D02*
X19148043Y-12358106D01*
X19148043Y-12358106D02*
X19128995Y-12348583D01*
X19128995Y-12348583D02*
X19119471Y-12329535D01*
X19119471Y-12329535D02*
X19119471Y-12320011D01*
X19119471Y-12320011D02*
X19128995Y-12300963D01*
X19128995Y-12300963D02*
X19148043Y-12291440D01*
X19148043Y-12291440D02*
X19176614Y-12291440D01*
X19176614Y-12291440D02*
X19195662Y-12300963D01*
X19271852Y-12500963D02*
X19281376Y-12491440D01*
X19281376Y-12491440D02*
X19300424Y-12462868D01*
X19300424Y-12462868D02*
X19309948Y-12443821D01*
X19309948Y-12443821D02*
X19319471Y-12415249D01*
X19319471Y-12415249D02*
X19328995Y-12367630D01*
X19328995Y-12367630D02*
X19328995Y-12329535D01*
X19328995Y-12329535D02*
X19319471Y-12281916D01*
X19319471Y-12281916D02*
X19309948Y-12253344D01*
X19309948Y-12253344D02*
X19300424Y-12234297D01*
X19300424Y-12234297D02*
X19281376Y-12205725D01*
X19281376Y-12205725D02*
X19271852Y-12196202D01*
M02*
