%TF.GenerationSoftware,KiCad,Pcbnew,7.0.8*%
%TF.CreationDate,2025-01-02T16:25:12-08:00*%
%TF.ProjectId,tachometer board,74616368-6f6d-4657-9465-7220626f6172,rev?*%
%TF.SameCoordinates,Original*%
%TF.FileFunction,Legend,Top*%
%TF.FilePolarity,Positive*%
%FSLAX46Y46*%
G04 Gerber Fmt 4.6, Leading zero omitted, Abs format (unit mm)*
G04 Created by KiCad (PCBNEW 7.0.8) date 2025-01-02 16:25:12*
%MOMM*%
%LPD*%
G01*
G04 APERTURE LIST*
%ADD10C,0.120000*%
%ADD11C,0.100000*%
G04 APERTURE END LIST*
D10*
%TO.C,J1*%
X152892893Y-104650000D02*
X151892893Y-104650000D01*
X160052893Y-107010000D02*
X160052893Y-108225000D01*
X151892893Y-104650000D02*
X151892893Y-103050000D01*
X160332893Y-108610000D02*
X161252893Y-108610000D01*
X160052893Y-107010000D02*
X160332893Y-107010000D01*
X152892893Y-103050000D02*
X152892893Y-104650000D01*
X151132893Y-100790000D02*
X151132893Y-108610000D01*
X152052893Y-107010000D02*
X152332893Y-107010000D01*
X159492893Y-103050000D02*
X159492893Y-100790000D01*
X161252893Y-107010000D02*
X160332893Y-107010000D01*
X161252893Y-100790000D02*
X151132893Y-100790000D01*
X160492893Y-103050000D02*
X159492893Y-103050000D01*
X159992893Y-103050000D02*
X159992893Y-100790000D01*
X160492893Y-104650000D02*
X160492893Y-103050000D01*
X159492893Y-104650000D02*
X160492893Y-104650000D01*
X152052893Y-108610000D02*
X152052893Y-107010000D01*
X151892893Y-103050000D02*
X152892893Y-103050000D01*
X159492893Y-103050000D02*
X159492893Y-104650000D01*
X151132893Y-107010000D02*
X152052893Y-107010000D01*
X160332893Y-107010000D02*
X160332893Y-108610000D01*
X151132893Y-108610000D02*
X152052893Y-108610000D01*
X153692893Y-105150000D02*
X153692893Y-100790000D01*
X158692893Y-100790000D02*
X158692893Y-105150000D01*
X161252893Y-108610000D02*
X161252893Y-100790000D01*
X158692893Y-105150000D02*
X153692893Y-105150000D01*
D11*
%TO.C,U2*%
X160867893Y-109250000D02*
X166767893Y-109250000D01*
X167267893Y-109750000D02*
X166767893Y-109250000D01*
X167267893Y-114150000D02*
X167267893Y-109750000D01*
X160867893Y-114150000D02*
X160867893Y-109250000D01*
X160867893Y-114150000D02*
X167267893Y-114150000D01*
D10*
%TO.C,R2*%
X157645000Y-112423737D02*
X157645000Y-110976263D01*
X160355000Y-112423737D02*
X160355000Y-110976263D01*
%TO.C,R1*%
X154755000Y-110976263D02*
X154755000Y-112423737D01*
X152045000Y-110976263D02*
X152045000Y-112423737D01*
D11*
%TO.C,U1*%
X151517893Y-114150000D02*
X145617893Y-114150000D01*
X145117893Y-113650000D02*
X145617893Y-114150000D01*
X145117893Y-109250000D02*
X145117893Y-113650000D01*
X151517893Y-109250000D02*
X151517893Y-114150000D01*
X151517893Y-109250000D02*
X145117893Y-109250000D01*
%TD*%
M02*
