%TF.GenerationSoftware,KiCad,Pcbnew,7.0.8*%
%TF.CreationDate,2025-01-02T16:25:12-08:00*%
%TF.ProjectId,tachometer board,74616368-6f6d-4657-9465-7220626f6172,rev?*%
%TF.SameCoordinates,Original*%
%TF.FileFunction,Copper,L1,Top*%
%TF.FilePolarity,Positive*%
%FSLAX46Y46*%
G04 Gerber Fmt 4.6, Leading zero omitted, Abs format (unit mm)*
G04 Created by KiCad (PCBNEW 7.0.8) date 2025-01-02 16:25:12*
%MOMM*%
%LPD*%
G01*
G04 APERTURE LIST*
G04 Aperture macros list*
%AMRoundRect*
0 Rectangle with rounded corners*
0 $1 Rounding radius*
0 $2 $3 $4 $5 $6 $7 $8 $9 X,Y pos of 4 corners*
0 Add a 4 corners polygon primitive as box body*
4,1,4,$2,$3,$4,$5,$6,$7,$8,$9,$2,$3,0*
0 Add four circle primitives for the rounded corners*
1,1,$1+$1,$2,$3*
1,1,$1+$1,$4,$5*
1,1,$1+$1,$6,$7*
1,1,$1+$1,$8,$9*
0 Add four rect primitives between the rounded corners*
20,1,$1+$1,$2,$3,$4,$5,0*
20,1,$1+$1,$4,$5,$6,$7,0*
20,1,$1+$1,$6,$7,$8,$9,0*
20,1,$1+$1,$8,$9,$2,$3,0*%
G04 Aperture macros list end*
%TA.AperFunction,ComponentPad*%
%ADD10RoundRect,0.250000X0.350000X0.625000X-0.350000X0.625000X-0.350000X-0.625000X0.350000X-0.625000X0*%
%TD*%
%TA.AperFunction,ComponentPad*%
%ADD11O,1.200000X1.750000*%
%TD*%
%TA.AperFunction,ComponentPad*%
%ADD12C,1.524000*%
%TD*%
%TA.AperFunction,SMDPad,CuDef*%
%ADD13RoundRect,0.250000X1.075000X-0.400000X1.075000X0.400000X-1.075000X0.400000X-1.075000X-0.400000X0*%
%TD*%
%TA.AperFunction,SMDPad,CuDef*%
%ADD14RoundRect,0.250000X-1.075000X0.400000X-1.075000X-0.400000X1.075000X-0.400000X1.075000X0.400000X0*%
%TD*%
%TA.AperFunction,Conductor*%
%ADD15C,0.250000*%
%TD*%
G04 APERTURE END LIST*
D10*
%TO.P,J1,1,Pin_1*%
%TO.N,+3.3V*%
X159192893Y-107150000D03*
D11*
%TO.P,J1,2,Pin_2*%
%TO.N,GND*%
X157192893Y-107150000D03*
%TO.P,J1,3,Pin_3*%
%TO.N,/OUT2*%
X155192893Y-107150000D03*
%TO.P,J1,4,Pin_4*%
%TO.N,/OUT1*%
X153192893Y-107150000D03*
%TD*%
D12*
%TO.P,U2,1,GND*%
%TO.N,GND*%
X165467893Y-110430000D03*
%TO.P,U2,2,GND*%
X162667893Y-110430000D03*
%TO.P,U2,3,LED_VIN*%
%TO.N,Net-(U2-LED_VIN)*%
X162667893Y-112970000D03*
%TO.P,U2,4,Phototransistor_OUT*%
%TO.N,/OUT2*%
X165467893Y-112970000D03*
%TD*%
D13*
%TO.P,R2,1*%
%TO.N,Net-(U2-LED_VIN)*%
X159000000Y-113250000D03*
%TO.P,R2,2*%
%TO.N,+3.3V*%
X159000000Y-110150000D03*
%TD*%
D14*
%TO.P,R1,1*%
%TO.N,Net-(U1-LED_VIN)*%
X153400000Y-110150000D03*
%TO.P,R1,2*%
%TO.N,+3.3V*%
X153400000Y-113250000D03*
%TD*%
D12*
%TO.P,U1,1,GND*%
%TO.N,GND*%
X146917893Y-112970000D03*
%TO.P,U1,2,GND*%
X149717893Y-112970000D03*
%TO.P,U1,3,LED_VIN*%
%TO.N,Net-(U1-LED_VIN)*%
X149717893Y-110430000D03*
%TO.P,U1,4,Phototransistor_OUT*%
%TO.N,/OUT1*%
X146917893Y-110430000D03*
%TD*%
D15*
%TO.N,+3.3V*%
X159192893Y-109820711D02*
X159192893Y-107150000D01*
X154934314Y-113250000D02*
X153400000Y-113250000D01*
X156300000Y-111884314D02*
X156300000Y-111259619D01*
X158863604Y-110150000D02*
X157409619Y-110150000D01*
X159096442Y-110053549D02*
G75*
G03*
X159192893Y-109820711I-232842J232849D01*
G01*
X154934314Y-113250006D02*
G75*
G03*
X155900000Y-112850000I-14J1365706D01*
G01*
X157409619Y-110150009D02*
G75*
G03*
X156625001Y-110475001I-19J-1109591D01*
G01*
X155899996Y-112849996D02*
G75*
G03*
X156300000Y-111884314I-965696J965696D01*
G01*
X158863604Y-110149998D02*
G75*
G03*
X159096445Y-110053552I-4J329298D01*
G01*
X156624994Y-110474994D02*
G75*
G03*
X156300000Y-111259619I784606J-784606D01*
G01*
%TO.N,/OUT1*%
X152517893Y-107825000D02*
X153192893Y-107150000D01*
X150888298Y-108500000D02*
X150212609Y-108500000D01*
X147882893Y-109465000D02*
X146917893Y-110430000D01*
X150888298Y-108499997D02*
G75*
G03*
X152517893Y-107825000I2J2304597D01*
G01*
X150212609Y-108500002D02*
G75*
G03*
X147882893Y-109465000I-9J-3294698D01*
G01*
%TO.N,/OUT2*%
X158396446Y-105600000D02*
X157838908Y-105600000D01*
X163409825Y-108959825D02*
X161219238Y-106769238D01*
X155967893Y-106375000D02*
X155192893Y-107150000D01*
X164783946Y-112286053D02*
X165467893Y-112970000D01*
X164100000Y-110626053D02*
X164100000Y-110634860D01*
X164100017Y-110634860D02*
G75*
G03*
X164783946Y-112286053I2335083J-40D01*
G01*
X157838908Y-105600002D02*
G75*
G03*
X155967893Y-106375000I-8J-2645998D01*
G01*
X164100033Y-110626053D02*
G75*
G03*
X163409825Y-108959825I-2356433J-47D01*
G01*
X161219208Y-106769268D02*
G75*
G03*
X158396446Y-105600000I-2822808J-2822732D01*
G01*
%TO.N,Net-(U1-LED_VIN)*%
X150195882Y-110150000D02*
X153400000Y-110150000D01*
X149857893Y-110290000D02*
X149717893Y-110430000D01*
X150195882Y-110149991D02*
G75*
G03*
X149857893Y-110290000I18J-478009D01*
G01*
%TO.N,Net-(U2-LED_VIN)*%
X162189903Y-113250000D02*
X159000000Y-113250000D01*
X162527893Y-113110000D02*
X162667893Y-112970000D01*
X162189903Y-113249999D02*
G75*
G03*
X162527893Y-113110000I-3J477999D01*
G01*
%TD*%
%TA.AperFunction,Conductor*%
%TO.N,GND*%
G36*
X164195587Y-100743628D02*
G01*
X164238422Y-100747376D01*
X164364663Y-100759809D01*
X164384578Y-100763432D01*
X164451239Y-100781293D01*
X164544468Y-100809573D01*
X164560853Y-100815842D01*
X164628296Y-100847291D01*
X164631277Y-100848781D01*
X164695125Y-100882909D01*
X164715224Y-100893652D01*
X164721564Y-100897546D01*
X164787733Y-100943877D01*
X164791481Y-100946720D01*
X164863713Y-101005998D01*
X164868205Y-101010068D01*
X164901972Y-101043835D01*
X164925708Y-101067571D01*
X164929790Y-101072074D01*
X164985203Y-101139593D01*
X164989056Y-101144288D01*
X164991915Y-101148056D01*
X165038245Y-101214221D01*
X165042137Y-101220556D01*
X165087001Y-101304491D01*
X165088513Y-101307514D01*
X165119946Y-101374920D01*
X165126221Y-101391319D01*
X165148683Y-101465364D01*
X165154504Y-101484553D01*
X165172357Y-101551181D01*
X165175986Y-101571128D01*
X165188513Y-101698399D01*
X165192157Y-101740039D01*
X165192393Y-101745446D01*
X165192393Y-103218407D01*
X165172708Y-103285446D01*
X165119904Y-103331201D01*
X165077464Y-103340433D01*
X165077586Y-103342060D01*
X165072954Y-103342407D01*
X165072953Y-103342407D01*
X164835752Y-103378161D01*
X164835750Y-103378161D01*
X164835747Y-103378162D01*
X164718097Y-103414453D01*
X164606530Y-103448867D01*
X164606528Y-103448868D01*
X164606524Y-103448869D01*
X164390401Y-103552949D01*
X164192218Y-103688070D01*
X164192211Y-103688075D01*
X164016366Y-103851233D01*
X163866801Y-104038784D01*
X163746861Y-104246526D01*
X163659225Y-104469819D01*
X163659219Y-104469838D01*
X163605844Y-104703690D01*
X163605844Y-104703692D01*
X163587919Y-104942895D01*
X163587919Y-104942904D01*
X163605844Y-105182107D01*
X163605844Y-105182109D01*
X163659219Y-105415961D01*
X163659221Y-105415968D01*
X163659223Y-105415975D01*
X163746861Y-105639273D01*
X163866801Y-105847016D01*
X163975787Y-105983681D01*
X164016366Y-106034566D01*
X164110822Y-106122207D01*
X164192208Y-106197722D01*
X164192211Y-106197724D01*
X164192218Y-106197729D01*
X164390401Y-106332850D01*
X164390404Y-106332851D01*
X164390405Y-106332852D01*
X164606530Y-106436933D01*
X164835752Y-106507639D01*
X165072953Y-106543393D01*
X165072967Y-106543393D01*
X165077586Y-106543740D01*
X165077413Y-106546041D01*
X165135432Y-106563078D01*
X165181187Y-106615882D01*
X165192393Y-106667393D01*
X165192393Y-108154590D01*
X165192406Y-108154728D01*
X165192406Y-108230429D01*
X165222803Y-108402826D01*
X165222804Y-108402831D01*
X165233223Y-108431456D01*
X165282679Y-108567335D01*
X165370209Y-108718946D01*
X165482737Y-108853053D01*
X165482739Y-108853055D01*
X165482743Y-108853059D01*
X165572141Y-108928073D01*
X165616840Y-108965580D01*
X165616841Y-108965582D01*
X165630529Y-108973485D01*
X165768452Y-109053116D01*
X165932957Y-109112992D01*
X166105361Y-109143393D01*
X166192794Y-109143393D01*
X167243393Y-109143393D01*
X167310432Y-109163078D01*
X167356187Y-109215882D01*
X167367393Y-109267393D01*
X167367393Y-114118393D01*
X167347708Y-114185432D01*
X167294904Y-114231187D01*
X167243393Y-114242393D01*
X160407814Y-114242393D01*
X160340775Y-114222708D01*
X160295020Y-114169904D01*
X160285076Y-114100746D01*
X160314101Y-114037190D01*
X160334181Y-114018623D01*
X160337284Y-114016332D01*
X160397150Y-113972150D01*
X160413654Y-113949788D01*
X160736612Y-113949788D01*
X160756217Y-113969393D01*
X160772131Y-113969393D01*
X160893023Y-113848500D01*
X161343845Y-113848500D01*
X161464738Y-113969393D01*
X161480652Y-113969393D01*
X161601544Y-113848500D01*
X161343845Y-113848500D01*
X160893023Y-113848500D01*
X160772056Y-113848500D01*
X160736612Y-113949788D01*
X160413654Y-113949788D01*
X160477793Y-113862882D01*
X160502105Y-113793402D01*
X160522646Y-113734701D01*
X160522646Y-113734699D01*
X160525500Y-113704269D01*
X160525500Y-113699500D01*
X160545185Y-113632461D01*
X160597989Y-113586706D01*
X160649500Y-113575500D01*
X161861035Y-113575500D01*
X161928074Y-113595185D01*
X161956884Y-113620830D01*
X161984010Y-113653883D01*
X161984015Y-113653887D01*
X162130567Y-113774161D01*
X162130574Y-113774165D01*
X162297770Y-113863533D01*
X162297771Y-113863533D01*
X162297778Y-113863537D01*
X162479210Y-113918573D01*
X162479209Y-113918573D01*
X162496126Y-113920239D01*
X162667893Y-113937157D01*
X162856576Y-113918573D01*
X162975303Y-113882558D01*
X163503466Y-113882558D01*
X163590301Y-113969393D01*
X163606215Y-113969393D01*
X163776449Y-113799158D01*
X164128587Y-113799158D01*
X164298822Y-113969393D01*
X164314736Y-113969393D01*
X164484970Y-113799158D01*
X164306778Y-113620966D01*
X164128587Y-113799158D01*
X163776449Y-113799158D01*
X163671690Y-113694399D01*
X163557598Y-113833421D01*
X163555630Y-113835704D01*
X163552763Y-113838870D01*
X163550645Y-113841096D01*
X163538989Y-113852752D01*
X163536763Y-113854870D01*
X163533597Y-113857737D01*
X163531314Y-113859705D01*
X163503466Y-113882558D01*
X162975303Y-113882558D01*
X163038008Y-113863537D01*
X163205217Y-113774162D01*
X163351776Y-113653883D01*
X163472055Y-113507324D01*
X163491264Y-113471386D01*
X163800815Y-113471386D01*
X163952518Y-113623089D01*
X164130709Y-113444897D01*
X163952517Y-113266705D01*
X163832606Y-113386616D01*
X163820288Y-113427228D01*
X163819337Y-113430106D01*
X163817901Y-113434124D01*
X163816803Y-113436970D01*
X163810505Y-113452179D01*
X163809269Y-113454968D01*
X163807442Y-113458832D01*
X163806073Y-113461551D01*
X163800815Y-113471386D01*
X163491264Y-113471386D01*
X163561430Y-113340115D01*
X163616466Y-113158683D01*
X163623168Y-113090637D01*
X164128587Y-113090637D01*
X164251981Y-113214031D01*
X164249960Y-113203868D01*
X164249438Y-113200859D01*
X164248812Y-113196633D01*
X164248441Y-113193624D01*
X164228459Y-112990764D01*
X164128587Y-113090637D01*
X163623168Y-113090637D01*
X163635050Y-112970000D01*
X163616466Y-112781317D01*
X163576350Y-112649069D01*
X163861633Y-112649069D01*
X163880102Y-112709949D01*
X163880917Y-112712899D01*
X163881954Y-112717042D01*
X163882617Y-112719997D01*
X163885826Y-112736132D01*
X163886348Y-112739141D01*
X163886974Y-112743367D01*
X163887345Y-112746376D01*
X163898600Y-112860650D01*
X163952518Y-112914568D01*
X164130709Y-112736376D01*
X163952518Y-112558185D01*
X163861633Y-112649069D01*
X163576350Y-112649069D01*
X163561430Y-112599885D01*
X163540978Y-112561622D01*
X163472058Y-112432681D01*
X163472054Y-112432674D01*
X163392009Y-112335140D01*
X163729473Y-112335140D01*
X163762199Y-112396365D01*
X163776449Y-112382116D01*
X163729473Y-112335140D01*
X163392009Y-112335140D01*
X163351776Y-112286116D01*
X163205218Y-112165838D01*
X163205211Y-112165834D01*
X163038015Y-112076466D01*
X163038012Y-112076465D01*
X163038011Y-112076464D01*
X163038008Y-112076463D01*
X162877770Y-112027856D01*
X163774327Y-112027856D01*
X163952517Y-112206046D01*
X163955694Y-112202869D01*
X163868663Y-112064360D01*
X163866544Y-112060758D01*
X163861175Y-112051045D01*
X163859258Y-112047330D01*
X163825322Y-111976860D01*
X163774327Y-112027856D01*
X162877770Y-112027856D01*
X162856576Y-112021427D01*
X162856574Y-112021426D01*
X162856576Y-112021426D01*
X162667893Y-112002843D01*
X162479211Y-112021426D01*
X162394800Y-112047032D01*
X162297778Y-112076463D01*
X162297775Y-112076464D01*
X162297773Y-112076465D01*
X162297770Y-112076466D01*
X162130574Y-112165834D01*
X162130567Y-112165838D01*
X161984009Y-112286116D01*
X161863731Y-112432674D01*
X161863727Y-112432681D01*
X161774359Y-112599877D01*
X161774358Y-112599880D01*
X161774357Y-112599882D01*
X161774356Y-112599885D01*
X161758699Y-112651500D01*
X161719319Y-112781318D01*
X161716233Y-112812656D01*
X161690071Y-112877442D01*
X161633036Y-112917801D01*
X161592830Y-112924500D01*
X160649500Y-112924500D01*
X160582461Y-112904815D01*
X160536706Y-112852011D01*
X160525500Y-112800500D01*
X160525500Y-112795730D01*
X160522646Y-112765300D01*
X160522646Y-112765298D01*
X160482825Y-112651500D01*
X161025120Y-112651500D01*
X161211749Y-112651500D01*
X161118434Y-112558185D01*
X161025120Y-112651500D01*
X160482825Y-112651500D01*
X160477793Y-112637119D01*
X160477792Y-112637117D01*
X160397150Y-112527850D01*
X160287882Y-112447207D01*
X160287880Y-112447206D01*
X160159700Y-112402353D01*
X160129270Y-112399500D01*
X160129266Y-112399500D01*
X157870734Y-112399500D01*
X157870730Y-112399500D01*
X157840300Y-112402353D01*
X157840298Y-112402353D01*
X157712119Y-112447206D01*
X157712117Y-112447207D01*
X157602850Y-112527850D01*
X157522207Y-112637117D01*
X157522206Y-112637119D01*
X157477353Y-112765298D01*
X157477353Y-112765300D01*
X157474500Y-112795730D01*
X157474500Y-113704269D01*
X157477353Y-113734699D01*
X157477353Y-113734701D01*
X157521095Y-113859705D01*
X157522207Y-113862882D01*
X157600815Y-113969393D01*
X157602851Y-113972151D01*
X157665819Y-114018623D01*
X157708070Y-114074270D01*
X157713529Y-114143926D01*
X157680462Y-114205476D01*
X157619368Y-114239377D01*
X157592186Y-114242393D01*
X154807814Y-114242393D01*
X154740775Y-114222708D01*
X154695020Y-114169904D01*
X154685076Y-114100746D01*
X154714101Y-114037190D01*
X154734181Y-114018623D01*
X154737284Y-114016332D01*
X154797150Y-113972150D01*
X154828465Y-113929720D01*
X155143634Y-113929720D01*
X155249381Y-113823974D01*
X155177318Y-113833461D01*
X155143634Y-113929720D01*
X154828465Y-113929720D01*
X154877793Y-113862882D01*
X154900091Y-113799157D01*
X155626334Y-113799157D01*
X155796570Y-113969393D01*
X155812484Y-113969393D01*
X155982718Y-113799158D01*
X156334856Y-113799158D01*
X156505091Y-113969393D01*
X156521005Y-113969393D01*
X156691239Y-113799158D01*
X157043377Y-113799158D01*
X157213612Y-113969393D01*
X157229525Y-113969393D01*
X157259691Y-113939226D01*
X157216308Y-113815247D01*
X157215171Y-113811651D01*
X157213730Y-113806560D01*
X157212815Y-113802906D01*
X157208470Y-113783009D01*
X157207782Y-113779330D01*
X157206968Y-113774107D01*
X157206499Y-113770344D01*
X157202260Y-113725139D01*
X157202015Y-113721662D01*
X157201583Y-113712421D01*
X157201500Y-113708941D01*
X157201500Y-113641035D01*
X157043377Y-113799158D01*
X156691239Y-113799158D01*
X156513047Y-113620966D01*
X156334856Y-113799158D01*
X155982718Y-113799158D01*
X155822897Y-113639337D01*
X155814765Y-113644033D01*
X155810466Y-113646329D01*
X155798834Y-113652066D01*
X155794388Y-113654080D01*
X155755165Y-113670326D01*
X155626334Y-113799157D01*
X154900091Y-113799157D01*
X154902105Y-113793402D01*
X154922646Y-113734701D01*
X154922646Y-113734699D01*
X154925500Y-113704269D01*
X154925500Y-113699486D01*
X154945185Y-113632447D01*
X154997989Y-113586692D01*
X155041403Y-113575751D01*
X155045148Y-113575505D01*
X155045163Y-113575505D01*
X155264959Y-113546567D01*
X155407081Y-113508484D01*
X156044182Y-113508484D01*
X156158787Y-113623089D01*
X156336978Y-113444897D01*
X156689116Y-113444897D01*
X156867308Y-113623089D01*
X157045499Y-113444897D01*
X156867308Y-113266706D01*
X156689116Y-113444897D01*
X156336978Y-113444897D01*
X156244244Y-113352163D01*
X156240223Y-113356184D01*
X156236665Y-113359515D01*
X156226916Y-113368065D01*
X156223146Y-113371162D01*
X156044182Y-113508484D01*
X155407081Y-113508484D01*
X155479096Y-113489187D01*
X155683913Y-113404348D01*
X155875903Y-113293501D01*
X156030041Y-113175226D01*
X156419445Y-113175226D01*
X156513047Y-113268828D01*
X156691239Y-113090637D01*
X157043377Y-113090637D01*
X157201500Y-113248760D01*
X157201500Y-112932514D01*
X157043377Y-113090637D01*
X156691239Y-113090637D01*
X156573565Y-112972963D01*
X156566864Y-112982994D01*
X156564019Y-112986960D01*
X156421192Y-113173094D01*
X156419445Y-113175226D01*
X156030041Y-113175226D01*
X156051783Y-113158543D01*
X156130163Y-113080163D01*
X156166617Y-113043709D01*
X156174181Y-113036145D01*
X156174225Y-113036092D01*
X156208539Y-113001779D01*
X156343496Y-112825900D01*
X156387804Y-112749158D01*
X156701898Y-112749158D01*
X156867308Y-112914568D01*
X157045499Y-112736376D01*
X156867308Y-112558185D01*
X156720316Y-112705176D01*
X156704052Y-112744443D01*
X156702037Y-112748879D01*
X156701898Y-112749158D01*
X156387804Y-112749158D01*
X156454343Y-112633910D01*
X156539181Y-112429095D01*
X156551769Y-112382116D01*
X157043377Y-112382116D01*
X157221567Y-112560306D01*
X157291721Y-112490153D01*
X157292467Y-112488965D01*
X157295093Y-112485110D01*
X157383274Y-112365630D01*
X157375071Y-112357427D01*
X160610671Y-112357427D01*
X160704907Y-112485110D01*
X160707533Y-112488965D01*
X160710995Y-112494479D01*
X160713301Y-112498475D01*
X160725019Y-112520648D01*
X160725488Y-112521622D01*
X160764173Y-112560307D01*
X160942365Y-112382116D01*
X161294503Y-112382116D01*
X161472693Y-112560306D01*
X161513437Y-112519562D01*
X161515499Y-112512769D01*
X161516449Y-112509893D01*
X161517885Y-112505876D01*
X161518983Y-112503030D01*
X161525281Y-112487821D01*
X161526517Y-112485032D01*
X161528344Y-112481168D01*
X161529712Y-112478450D01*
X161605475Y-112336705D01*
X161472694Y-112203924D01*
X161294503Y-112382116D01*
X160942365Y-112382116D01*
X160764174Y-112203925D01*
X160610671Y-112357427D01*
X157375071Y-112357427D01*
X157221568Y-112203924D01*
X157043377Y-112382116D01*
X156551769Y-112382116D01*
X156596561Y-112214958D01*
X156598611Y-112199387D01*
X156873967Y-112199387D01*
X157045499Y-112027855D01*
X157397637Y-112027855D01*
X157575828Y-112206046D01*
X157754020Y-112027855D01*
X158106158Y-112027855D01*
X158204803Y-112126500D01*
X158363897Y-112126500D01*
X158462541Y-112027855D01*
X158814679Y-112027855D01*
X158913324Y-112126500D01*
X159072418Y-112126500D01*
X159171062Y-112027855D01*
X159523200Y-112027855D01*
X159621845Y-112126500D01*
X159780939Y-112126500D01*
X159879583Y-112027855D01*
X160231721Y-112027855D01*
X160403377Y-112199511D01*
X160404352Y-112199981D01*
X160411957Y-112204000D01*
X160588104Y-112027855D01*
X160940242Y-112027855D01*
X161118434Y-112206047D01*
X161296625Y-112027855D01*
X161648763Y-112027855D01*
X161755334Y-112134426D01*
X161778188Y-112106579D01*
X161780156Y-112104296D01*
X161783023Y-112101130D01*
X161785141Y-112098904D01*
X161796797Y-112087248D01*
X161799023Y-112085130D01*
X161802189Y-112082263D01*
X161804472Y-112080295D01*
X161943493Y-111966202D01*
X161844778Y-111867487D01*
X163226173Y-111867487D01*
X163302752Y-111908419D01*
X163243997Y-111849664D01*
X163226173Y-111867487D01*
X161844778Y-111867487D01*
X161826955Y-111849664D01*
X161648763Y-112027855D01*
X161296625Y-112027855D01*
X161118434Y-111849664D01*
X160940242Y-112027855D01*
X160588104Y-112027855D01*
X160409913Y-111849664D01*
X160231721Y-112027855D01*
X159879583Y-112027855D01*
X159701392Y-111849664D01*
X159523200Y-112027855D01*
X159171062Y-112027855D01*
X158992871Y-111849664D01*
X158814679Y-112027855D01*
X158462541Y-112027855D01*
X158284350Y-111849664D01*
X158106158Y-112027855D01*
X157754020Y-112027855D01*
X157575829Y-111849664D01*
X157397637Y-112027855D01*
X157045499Y-112027855D01*
X156898500Y-111880856D01*
X156898500Y-111884319D01*
X156898499Y-112001678D01*
X156898338Y-112006548D01*
X156897491Y-112019479D01*
X156897015Y-112024337D01*
X156873967Y-112199387D01*
X156598611Y-112199387D01*
X156625499Y-111995163D01*
X156625500Y-111884317D01*
X156625500Y-111832763D01*
X156625500Y-111673595D01*
X157043377Y-111673595D01*
X157221568Y-111851786D01*
X157399760Y-111673595D01*
X157751898Y-111673595D01*
X157930089Y-111851786D01*
X158108281Y-111673595D01*
X158460419Y-111673595D01*
X158638610Y-111851786D01*
X158816802Y-111673595D01*
X159168940Y-111673595D01*
X159347131Y-111851786D01*
X159525323Y-111673595D01*
X159877461Y-111673595D01*
X160055652Y-111851786D01*
X160233844Y-111673595D01*
X160585982Y-111673595D01*
X160764173Y-111851786D01*
X160942365Y-111673595D01*
X161294503Y-111673595D01*
X161472694Y-111851786D01*
X161650886Y-111673595D01*
X161650885Y-111673594D01*
X162003023Y-111673594D01*
X162166506Y-111837077D01*
X162176343Y-111831819D01*
X162179061Y-111830451D01*
X162182925Y-111828624D01*
X162185714Y-111827388D01*
X162200923Y-111821090D01*
X162203769Y-111819992D01*
X162207786Y-111818556D01*
X162210662Y-111817606D01*
X162217456Y-111815544D01*
X162283010Y-111749991D01*
X162885863Y-111749991D01*
X162891517Y-111750548D01*
X162894526Y-111750919D01*
X162898752Y-111751545D01*
X162901761Y-111752067D01*
X162917896Y-111755276D01*
X162920851Y-111755939D01*
X162924994Y-111756976D01*
X162927943Y-111757791D01*
X162970747Y-111770775D01*
X163024681Y-111716841D01*
X162947449Y-111740270D01*
X162944499Y-111741085D01*
X162940356Y-111742122D01*
X162937401Y-111742785D01*
X162921266Y-111745994D01*
X162918257Y-111746516D01*
X162914031Y-111747142D01*
X162911022Y-111747513D01*
X162885863Y-111749991D01*
X162283010Y-111749991D01*
X162314983Y-111718018D01*
X162172410Y-111674768D01*
X162169549Y-111673823D01*
X162168910Y-111673595D01*
X163420066Y-111673595D01*
X163598257Y-111851786D01*
X163712823Y-111737218D01*
X163644333Y-111541479D01*
X163598257Y-111495403D01*
X163420066Y-111673595D01*
X162168910Y-111673595D01*
X162165527Y-111672387D01*
X162162660Y-111671281D01*
X162147434Y-111664975D01*
X162144631Y-111663732D01*
X162140771Y-111661904D01*
X162138072Y-111660545D01*
X162058568Y-111618049D01*
X162003023Y-111673594D01*
X161650885Y-111673594D01*
X161472694Y-111495403D01*
X161294503Y-111673595D01*
X160942365Y-111673595D01*
X160764173Y-111495403D01*
X160585982Y-111673595D01*
X160233844Y-111673595D01*
X160055652Y-111495403D01*
X159877461Y-111673595D01*
X159525323Y-111673595D01*
X159347131Y-111495403D01*
X159168940Y-111673595D01*
X158816802Y-111673595D01*
X158638610Y-111495403D01*
X158460419Y-111673595D01*
X158108281Y-111673595D01*
X157930089Y-111495403D01*
X157751898Y-111673595D01*
X157399760Y-111673595D01*
X157221568Y-111495403D01*
X157043377Y-111673595D01*
X156625500Y-111673595D01*
X156625500Y-111466334D01*
X156898500Y-111466334D01*
X157045498Y-111319335D01*
X157397638Y-111319335D01*
X157575829Y-111497526D01*
X157754019Y-111319335D01*
X158106159Y-111319335D01*
X158284350Y-111497526D01*
X158462540Y-111319335D01*
X158814680Y-111319335D01*
X158992871Y-111497526D01*
X159171061Y-111319335D01*
X159523201Y-111319335D01*
X159701392Y-111497526D01*
X159879582Y-111319335D01*
X160231722Y-111319335D01*
X160409913Y-111497526D01*
X160588104Y-111319334D01*
X160940242Y-111319334D01*
X161118434Y-111497526D01*
X161296624Y-111319335D01*
X161648764Y-111319335D01*
X161826955Y-111497526D01*
X161860790Y-111463690D01*
X161853540Y-111445562D01*
X161833480Y-111310334D01*
X161837807Y-111260083D01*
X161787557Y-111264412D01*
X161714521Y-111253577D01*
X161648764Y-111319335D01*
X161296624Y-111319335D01*
X161296625Y-111319334D01*
X161118434Y-111141143D01*
X160940242Y-111319334D01*
X160588104Y-111319334D01*
X160444945Y-111176175D01*
X160439890Y-111179907D01*
X160436035Y-111182533D01*
X160430521Y-111185995D01*
X160426525Y-111188301D01*
X160404352Y-111200019D01*
X160400180Y-111202028D01*
X160394216Y-111204631D01*
X160389893Y-111206328D01*
X160320418Y-111230638D01*
X160231722Y-111319335D01*
X159879582Y-111319335D01*
X159879583Y-111319334D01*
X159833749Y-111273500D01*
X159569036Y-111273500D01*
X159523201Y-111319335D01*
X159171061Y-111319335D01*
X159171062Y-111319334D01*
X159125228Y-111273500D01*
X158860515Y-111273500D01*
X158814680Y-111319335D01*
X158462540Y-111319335D01*
X158462541Y-111319334D01*
X158416707Y-111273500D01*
X158151994Y-111273500D01*
X158106159Y-111319335D01*
X157754019Y-111319335D01*
X157754020Y-111319334D01*
X157657649Y-111222963D01*
X157610106Y-111206327D01*
X157605784Y-111204631D01*
X157599820Y-111202028D01*
X157595648Y-111200019D01*
X157573475Y-111188301D01*
X157569479Y-111185995D01*
X157563965Y-111182533D01*
X157560110Y-111179907D01*
X157546851Y-111170121D01*
X157397638Y-111319335D01*
X157045498Y-111319335D01*
X157045499Y-111319334D01*
X156907525Y-111181360D01*
X156898500Y-111273022D01*
X156898500Y-111466334D01*
X156625500Y-111466334D01*
X156625500Y-111262658D01*
X156625799Y-111256579D01*
X156639367Y-111118795D01*
X156644109Y-111094954D01*
X156681638Y-110971230D01*
X156684188Y-110965074D01*
X157043377Y-110965074D01*
X157221568Y-111143265D01*
X157352644Y-111012188D01*
X160633096Y-111012188D01*
X160764173Y-111143265D01*
X160942365Y-110965074D01*
X161294503Y-110965074D01*
X161472694Y-111143265D01*
X161513557Y-111102401D01*
X161437347Y-110959819D01*
X161435989Y-110957121D01*
X161434161Y-110953261D01*
X161432918Y-110950458D01*
X161426612Y-110935232D01*
X161425506Y-110932365D01*
X161424070Y-110928344D01*
X161423125Y-110925482D01*
X161402403Y-110857173D01*
X161294503Y-110965074D01*
X160942365Y-110965074D01*
X160764173Y-110786882D01*
X160755638Y-110795416D01*
X160731328Y-110864893D01*
X160729631Y-110869216D01*
X160727028Y-110875180D01*
X160725019Y-110879352D01*
X160713301Y-110901525D01*
X160710995Y-110905521D01*
X160707533Y-110911035D01*
X160704907Y-110914890D01*
X160633096Y-111012188D01*
X157352644Y-111012188D01*
X157360848Y-111003984D01*
X157295093Y-110914890D01*
X157292467Y-110911035D01*
X157289005Y-110905521D01*
X157286699Y-110901525D01*
X157274981Y-110879352D01*
X157272972Y-110875180D01*
X157270369Y-110869216D01*
X157268673Y-110864894D01*
X157252035Y-110817349D01*
X157221568Y-110786882D01*
X157043377Y-110965074D01*
X156684188Y-110965074D01*
X156690938Y-110948776D01*
X156751886Y-110834749D01*
X156765389Y-110814541D01*
X156847382Y-110714631D01*
X156864568Y-110697446D01*
X156881716Y-110683373D01*
X156964546Y-110615396D01*
X156984751Y-110601895D01*
X157098785Y-110540944D01*
X157121223Y-110531650D01*
X157244966Y-110494114D01*
X157268785Y-110489377D01*
X157338350Y-110482526D01*
X157406994Y-110495546D01*
X157457703Y-110543612D01*
X157473284Y-110601420D01*
X157474364Y-110601370D01*
X157474499Y-110604263D01*
X157477353Y-110634699D01*
X157477353Y-110634701D01*
X157520373Y-110757641D01*
X157522207Y-110762882D01*
X157602850Y-110872150D01*
X157712118Y-110952793D01*
X157747215Y-110965074D01*
X157840299Y-110997646D01*
X157870730Y-111000500D01*
X157870734Y-111000500D01*
X160129270Y-111000500D01*
X160159699Y-110997646D01*
X160159701Y-110997646D01*
X160235192Y-110971230D01*
X160287882Y-110952793D01*
X160397150Y-110872150D01*
X160477793Y-110762882D01*
X160507613Y-110677661D01*
X160522646Y-110634701D01*
X160522646Y-110634699D01*
X160524886Y-110610813D01*
X160940242Y-110610813D01*
X161118434Y-110789005D01*
X161296625Y-110610813D01*
X161118434Y-110432622D01*
X160940242Y-110610813D01*
X160524886Y-110610813D01*
X160525500Y-110604269D01*
X160525500Y-110112688D01*
X160798500Y-110112688D01*
X160798500Y-110400418D01*
X160942365Y-110256553D01*
X161294503Y-110256553D01*
X161339121Y-110301171D01*
X161348871Y-110202184D01*
X161294503Y-110256553D01*
X160942365Y-110256553D01*
X160798500Y-110112688D01*
X160525500Y-110112688D01*
X160525500Y-109902292D01*
X160940242Y-109902292D01*
X161118434Y-110080484D01*
X161296625Y-109902292D01*
X161118434Y-109724101D01*
X160940242Y-109902292D01*
X160525500Y-109902292D01*
X160525500Y-109695730D01*
X160522646Y-109665300D01*
X160522646Y-109665298D01*
X160481612Y-109548032D01*
X160477793Y-109537118D01*
X160397150Y-109427850D01*
X160377061Y-109413024D01*
X160720990Y-109413024D01*
X160725019Y-109420648D01*
X160727028Y-109424820D01*
X160729631Y-109430784D01*
X160731327Y-109435106D01*
X160783692Y-109584753D01*
X160784829Y-109588349D01*
X160786270Y-109593440D01*
X160787185Y-109597094D01*
X160791530Y-109616991D01*
X160792218Y-109620670D01*
X160793032Y-109625893D01*
X160793501Y-109629656D01*
X160797740Y-109674861D01*
X160797985Y-109678338D01*
X160798417Y-109687579D01*
X160798500Y-109691059D01*
X160798500Y-109691897D01*
X160942365Y-109548032D01*
X161294503Y-109548032D01*
X161472694Y-109726223D01*
X161650886Y-109548032D01*
X161472694Y-109369840D01*
X161294503Y-109548032D01*
X160942365Y-109548032D01*
X160764174Y-109369841D01*
X160720990Y-109413024D01*
X160377061Y-109413024D01*
X160287882Y-109347207D01*
X160287880Y-109347206D01*
X160159700Y-109302353D01*
X160129270Y-109299500D01*
X160129266Y-109299500D01*
X159642393Y-109299500D01*
X159575354Y-109279815D01*
X159529599Y-109227011D01*
X159518393Y-109175500D01*
X159518393Y-109078619D01*
X160346874Y-109078619D01*
X160389894Y-109093673D01*
X160394216Y-109095369D01*
X160400180Y-109097972D01*
X160404352Y-109099981D01*
X160426525Y-109111699D01*
X160430521Y-109114005D01*
X160436035Y-109117467D01*
X160439890Y-109120093D01*
X160567558Y-109214318D01*
X160588104Y-109193771D01*
X160940242Y-109193771D01*
X161118434Y-109371963D01*
X161296625Y-109193771D01*
X161648763Y-109193771D01*
X161826955Y-109371963D01*
X162005146Y-109193771D01*
X161922353Y-109110978D01*
X162440077Y-109110978D01*
X162613766Y-109093870D01*
X162535476Y-109015580D01*
X162440077Y-109110978D01*
X161922353Y-109110978D01*
X161826955Y-109015580D01*
X161648763Y-109193771D01*
X161296625Y-109193771D01*
X161118434Y-109015580D01*
X160940242Y-109193771D01*
X160588104Y-109193771D01*
X160409913Y-109015580D01*
X160346874Y-109078619D01*
X159518393Y-109078619D01*
X159518393Y-108839511D01*
X159877461Y-108839511D01*
X160055652Y-109017702D01*
X160233844Y-108839511D01*
X160585982Y-108839511D01*
X160764173Y-109017702D01*
X160942365Y-108839511D01*
X161294503Y-108839511D01*
X161472694Y-109017702D01*
X161650886Y-108839511D01*
X162003024Y-108839511D01*
X162181215Y-109017702D01*
X162359407Y-108839511D01*
X162181215Y-108661319D01*
X162003024Y-108839511D01*
X161650886Y-108839511D01*
X161472694Y-108661319D01*
X161294503Y-108839511D01*
X160942365Y-108839511D01*
X160764173Y-108661319D01*
X160585982Y-108839511D01*
X160233844Y-108839511D01*
X160055652Y-108661319D01*
X159877461Y-108839511D01*
X159518393Y-108839511D01*
X159518393Y-108573441D01*
X159791393Y-108573441D01*
X159879583Y-108485250D01*
X160231721Y-108485250D01*
X160409913Y-108663442D01*
X160588104Y-108485250D01*
X160940242Y-108485250D01*
X161118434Y-108663442D01*
X161296625Y-108485250D01*
X161648763Y-108485250D01*
X161826955Y-108663442D01*
X162005146Y-108485250D01*
X161826955Y-108307059D01*
X161648763Y-108485250D01*
X161296625Y-108485250D01*
X161118434Y-108307059D01*
X160940242Y-108485250D01*
X160588104Y-108485250D01*
X160409913Y-108307059D01*
X160231721Y-108485250D01*
X159879583Y-108485250D01*
X159833987Y-108439654D01*
X159791393Y-108454559D01*
X159791393Y-108573441D01*
X159518393Y-108573441D01*
X159518393Y-108345802D01*
X159531598Y-108300831D01*
X160047302Y-108300831D01*
X160055652Y-108309181D01*
X160233844Y-108130990D01*
X160585982Y-108130990D01*
X160764173Y-108309181D01*
X160942365Y-108130990D01*
X161294503Y-108130990D01*
X161472694Y-108309181D01*
X161650886Y-108130990D01*
X161472694Y-107952798D01*
X161294503Y-108130990D01*
X160942365Y-108130990D01*
X160764173Y-107952798D01*
X160585982Y-108130990D01*
X160233844Y-108130990D01*
X160197386Y-108094532D01*
X160194921Y-108100180D01*
X160192912Y-108104352D01*
X160181194Y-108126525D01*
X160178888Y-108130521D01*
X160175426Y-108136035D01*
X160172800Y-108139890D01*
X160077249Y-108269355D01*
X160074362Y-108272976D01*
X160070117Y-108277909D01*
X160066958Y-108281315D01*
X160049208Y-108299065D01*
X160047302Y-108300831D01*
X159531598Y-108300831D01*
X159538078Y-108278763D01*
X159590882Y-108233008D01*
X159620412Y-108225122D01*
X159620223Y-108224256D01*
X159627594Y-108222646D01*
X159691683Y-108200219D01*
X159755775Y-108177793D01*
X159865043Y-108097150D01*
X159945686Y-107987882D01*
X159975912Y-107901500D01*
X159990539Y-107859701D01*
X159990539Y-107859699D01*
X159993393Y-107829269D01*
X159993393Y-107811401D01*
X160266393Y-107811401D01*
X160409913Y-107954921D01*
X160588104Y-107776729D01*
X160940242Y-107776729D01*
X161118434Y-107954921D01*
X161296625Y-107776729D01*
X161118434Y-107598538D01*
X160940242Y-107776729D01*
X160588104Y-107776729D01*
X160409913Y-107598538D01*
X160266393Y-107742058D01*
X160266393Y-107811401D01*
X159993393Y-107811401D01*
X159993393Y-107422469D01*
X160585982Y-107422469D01*
X160764173Y-107600660D01*
X160942365Y-107422469D01*
X160764173Y-107244277D01*
X160585982Y-107422469D01*
X159993393Y-107422469D01*
X159993393Y-107102880D01*
X160266393Y-107102880D01*
X160409913Y-107246400D01*
X160588104Y-107068208D01*
X160409913Y-106890017D01*
X160266393Y-107033537D01*
X160266393Y-107102880D01*
X159993393Y-107102880D01*
X159993393Y-106498077D01*
X160013078Y-106431038D01*
X160065882Y-106385283D01*
X160135040Y-106375339D01*
X160174651Y-106388088D01*
X160227285Y-106415489D01*
X160231972Y-106418195D01*
X160497174Y-106587152D01*
X160501607Y-106590256D01*
X160717866Y-106756202D01*
X160751076Y-106781685D01*
X160755204Y-106785149D01*
X160989042Y-106999428D01*
X160989042Y-106999427D01*
X160989745Y-107000071D01*
X161013665Y-107023991D01*
X161032586Y-107042914D01*
X161032600Y-107042926D01*
X163140868Y-109151194D01*
X163140888Y-109151216D01*
X163152751Y-109163078D01*
X163178454Y-109188781D01*
X163180806Y-109191269D01*
X163242487Y-109260288D01*
X163272481Y-109323391D01*
X163263598Y-109392693D01*
X163218657Y-109446192D01*
X163151927Y-109466900D01*
X163091575Y-109452274D01*
X163076268Y-109444092D01*
X162876077Y-109383365D01*
X162876081Y-109383365D01*
X162667893Y-109362861D01*
X162459706Y-109383365D01*
X162259515Y-109444093D01*
X162113555Y-109522109D01*
X162623492Y-110032046D01*
X162542745Y-110044835D01*
X162429848Y-110102359D01*
X162340252Y-110191955D01*
X162282728Y-110304852D01*
X162269939Y-110385599D01*
X161760002Y-109875662D01*
X161681986Y-110021622D01*
X161621258Y-110221813D01*
X161600754Y-110430000D01*
X161621258Y-110638186D01*
X161681985Y-110838375D01*
X161760002Y-110984336D01*
X162269939Y-110474400D01*
X162282728Y-110555148D01*
X162340252Y-110668045D01*
X162429848Y-110757641D01*
X162542745Y-110815165D01*
X162623492Y-110827953D01*
X162113555Y-111337889D01*
X162113555Y-111337890D01*
X162259512Y-111415906D01*
X162459708Y-111476634D01*
X162459704Y-111476634D01*
X162667893Y-111497138D01*
X162876079Y-111476634D01*
X163076273Y-111415906D01*
X163222230Y-111337890D01*
X162712294Y-110827953D01*
X162793041Y-110815165D01*
X162905938Y-110757641D01*
X162995534Y-110668045D01*
X163053058Y-110555148D01*
X163065846Y-110474400D01*
X163575783Y-110984337D01*
X163580873Y-110983581D01*
X163619552Y-110944206D01*
X163687690Y-110928745D01*
X163753370Y-110952576D01*
X163795739Y-111008133D01*
X163803169Y-111038621D01*
X163807968Y-111081220D01*
X163807973Y-111081247D01*
X163874460Y-111372566D01*
X163874464Y-111372581D01*
X163973157Y-111654637D01*
X163973159Y-111654641D01*
X163973160Y-111654644D01*
X164102818Y-111923887D01*
X164102820Y-111923890D01*
X164102821Y-111923892D01*
X164122014Y-111954437D01*
X164254842Y-112165834D01*
X164261809Y-112176921D01*
X164261811Y-112176924D01*
X164292138Y-112214953D01*
X164448129Y-112410561D01*
X164448132Y-112410564D01*
X164448136Y-112410569D01*
X164536487Y-112498920D01*
X164569972Y-112560243D01*
X164567467Y-112622596D01*
X164519319Y-112781318D01*
X164500736Y-112970000D01*
X164519319Y-113158681D01*
X164534294Y-113208045D01*
X164574356Y-113340115D01*
X164574357Y-113340118D01*
X164574358Y-113340119D01*
X164574359Y-113340122D01*
X164663727Y-113507318D01*
X164663731Y-113507325D01*
X164784009Y-113653883D01*
X164930567Y-113774161D01*
X164930574Y-113774165D01*
X165097770Y-113863533D01*
X165097771Y-113863533D01*
X165097778Y-113863537D01*
X165279210Y-113918573D01*
X165279209Y-113918573D01*
X165296126Y-113920239D01*
X165467893Y-113937157D01*
X165656576Y-113918573D01*
X165825949Y-113867195D01*
X166322187Y-113867195D01*
X166424385Y-113969393D01*
X166440299Y-113969393D01*
X166610533Y-113799158D01*
X166962671Y-113799158D01*
X167094393Y-113930880D01*
X167094393Y-113667436D01*
X166962671Y-113799158D01*
X166610533Y-113799158D01*
X166487054Y-113675679D01*
X166357598Y-113833421D01*
X166355630Y-113835704D01*
X166352763Y-113838870D01*
X166350645Y-113841096D01*
X166338989Y-113852752D01*
X166336763Y-113854870D01*
X166333597Y-113857737D01*
X166331314Y-113859705D01*
X166322187Y-113867195D01*
X165825949Y-113867195D01*
X165838008Y-113863537D01*
X166005217Y-113774162D01*
X166151776Y-113653883D01*
X166272055Y-113507324D01*
X166303492Y-113448510D01*
X166612023Y-113448510D01*
X166786602Y-113623089D01*
X166964793Y-113444897D01*
X166786602Y-113266706D01*
X166617095Y-113436212D01*
X166616803Y-113436970D01*
X166612023Y-113448510D01*
X166303492Y-113448510D01*
X166361430Y-113340115D01*
X166416466Y-113158683D01*
X166423168Y-113090637D01*
X166962671Y-113090637D01*
X167094393Y-113222359D01*
X167094393Y-112958915D01*
X166962671Y-113090637D01*
X166423168Y-113090637D01*
X166435050Y-112970000D01*
X166416466Y-112781317D01*
X166384282Y-112675220D01*
X166669566Y-112675220D01*
X166680102Y-112709949D01*
X166680917Y-112712899D01*
X166681954Y-112717042D01*
X166682617Y-112719997D01*
X166685826Y-112736132D01*
X166686348Y-112739141D01*
X166686974Y-112743367D01*
X166687345Y-112746376D01*
X166694876Y-112822842D01*
X166786602Y-112914568D01*
X166964793Y-112736376D01*
X166786602Y-112558185D01*
X166669566Y-112675220D01*
X166384282Y-112675220D01*
X166361430Y-112599885D01*
X166340978Y-112561622D01*
X166272058Y-112432681D01*
X166272054Y-112432674D01*
X166151776Y-112286116D01*
X166086595Y-112232623D01*
X166461040Y-112232623D01*
X166488296Y-112265834D01*
X166490151Y-112268209D01*
X166492698Y-112271641D01*
X166494470Y-112274156D01*
X166503609Y-112287834D01*
X166505216Y-112290371D01*
X166507414Y-112294032D01*
X166508933Y-112296712D01*
X166574071Y-112418577D01*
X166610533Y-112382116D01*
X166962671Y-112382116D01*
X167094393Y-112513838D01*
X167094393Y-112250394D01*
X166962671Y-112382116D01*
X166610533Y-112382116D01*
X166461040Y-112232623D01*
X166086595Y-112232623D01*
X166005218Y-112165838D01*
X166005211Y-112165834D01*
X165838015Y-112076466D01*
X165838012Y-112076465D01*
X165838011Y-112076464D01*
X165838008Y-112076463D01*
X165677767Y-112027855D01*
X166608410Y-112027855D01*
X166786602Y-112206047D01*
X166964793Y-112027855D01*
X166786602Y-111849664D01*
X166608410Y-112027855D01*
X165677767Y-112027855D01*
X165656576Y-112021427D01*
X165656574Y-112021426D01*
X165656576Y-112021426D01*
X165467893Y-112002843D01*
X165279211Y-112021426D01*
X165181571Y-112051045D01*
X165122143Y-112069072D01*
X165052277Y-112069695D01*
X164993690Y-112033038D01*
X164904001Y-111932677D01*
X164866256Y-111890440D01*
X164861930Y-111885016D01*
X164857916Y-111879359D01*
X166048385Y-111879359D01*
X166141181Y-111928960D01*
X166143861Y-111930479D01*
X166147522Y-111932677D01*
X166150059Y-111934284D01*
X166163737Y-111943423D01*
X166166252Y-111945195D01*
X166169683Y-111947742D01*
X166172059Y-111949597D01*
X166205268Y-111976851D01*
X166078081Y-111849664D01*
X166048385Y-111879359D01*
X164857916Y-111879359D01*
X164805381Y-111805317D01*
X164735546Y-111706891D01*
X164733598Y-111703790D01*
X165068082Y-111703790D01*
X165077716Y-111717368D01*
X165111694Y-111755390D01*
X165117093Y-111749991D01*
X165685863Y-111749991D01*
X165691518Y-111750548D01*
X165694527Y-111750919D01*
X165698752Y-111751545D01*
X165701761Y-111752067D01*
X165717896Y-111755276D01*
X165720851Y-111755939D01*
X165724994Y-111756976D01*
X165727943Y-111757791D01*
X165796898Y-111778708D01*
X165873607Y-111701999D01*
X165747449Y-111740270D01*
X165744499Y-111741085D01*
X165740356Y-111742122D01*
X165737401Y-111742785D01*
X165721266Y-111745994D01*
X165718257Y-111746516D01*
X165714031Y-111747142D01*
X165711022Y-111747513D01*
X165685863Y-111749991D01*
X165117093Y-111749991D01*
X165141134Y-111725950D01*
X165068082Y-111703790D01*
X164733598Y-111703790D01*
X164731844Y-111700999D01*
X164716699Y-111673595D01*
X166254150Y-111673595D01*
X166432341Y-111851786D01*
X166610533Y-111673595D01*
X166962671Y-111673595D01*
X167094393Y-111805317D01*
X167094393Y-111541873D01*
X166962671Y-111673595D01*
X166610533Y-111673595D01*
X166432341Y-111495403D01*
X166254150Y-111673595D01*
X164716699Y-111673595D01*
X164626211Y-111509868D01*
X164623192Y-111503599D01*
X164539614Y-111301818D01*
X164537316Y-111295251D01*
X164493101Y-111141772D01*
X164493458Y-111071903D01*
X164524574Y-111019764D01*
X165069939Y-110474400D01*
X165082728Y-110555148D01*
X165140252Y-110668045D01*
X165229848Y-110757641D01*
X165342745Y-110815165D01*
X165423492Y-110827953D01*
X164913555Y-111337889D01*
X164913555Y-111337890D01*
X165059512Y-111415906D01*
X165259708Y-111476634D01*
X165259704Y-111476634D01*
X165467893Y-111497138D01*
X165676079Y-111476634D01*
X165876273Y-111415906D01*
X166022230Y-111337890D01*
X166003674Y-111319334D01*
X166608410Y-111319334D01*
X166786602Y-111497526D01*
X166964793Y-111319334D01*
X166786602Y-111141143D01*
X166608410Y-111319334D01*
X166003674Y-111319334D01*
X165512294Y-110827953D01*
X165593041Y-110815165D01*
X165705938Y-110757641D01*
X165795534Y-110668045D01*
X165853058Y-110555148D01*
X165865846Y-110474400D01*
X166375783Y-110984337D01*
X166386079Y-110965074D01*
X166962671Y-110965074D01*
X167094393Y-111096796D01*
X167094393Y-110833352D01*
X166962671Y-110965074D01*
X166386079Y-110965074D01*
X166453799Y-110838380D01*
X166476351Y-110764037D01*
X166761634Y-110764037D01*
X166786602Y-110789005D01*
X166964793Y-110610813D01*
X166807078Y-110453098D01*
X166785406Y-110673129D01*
X166785035Y-110676138D01*
X166784409Y-110680364D01*
X166783887Y-110683373D01*
X166780678Y-110699508D01*
X166780015Y-110702463D01*
X166778978Y-110706607D01*
X166778162Y-110709556D01*
X166761634Y-110764037D01*
X166476351Y-110764037D01*
X166514527Y-110638186D01*
X166535031Y-110430000D01*
X166517948Y-110256553D01*
X166962671Y-110256553D01*
X167094393Y-110388275D01*
X167094393Y-110124831D01*
X166962671Y-110256553D01*
X166517948Y-110256553D01*
X166514527Y-110221813D01*
X166453799Y-110021619D01*
X166375783Y-109875662D01*
X166375782Y-109875662D01*
X165865846Y-110385598D01*
X165853058Y-110304852D01*
X165795534Y-110191955D01*
X165705938Y-110102359D01*
X165593041Y-110044835D01*
X165512294Y-110032046D01*
X165701452Y-109842887D01*
X166667815Y-109842887D01*
X166698439Y-109900180D01*
X166699797Y-109902878D01*
X166701625Y-109906738D01*
X166702868Y-109909541D01*
X166709174Y-109924767D01*
X166710280Y-109927634D01*
X166711716Y-109931656D01*
X166712661Y-109934518D01*
X166744023Y-110037905D01*
X166786602Y-110080484D01*
X166964793Y-109902292D01*
X166786602Y-109724101D01*
X166667815Y-109842887D01*
X165701452Y-109842887D01*
X166022229Y-109522109D01*
X165992669Y-109506309D01*
X166295873Y-109506309D01*
X166302305Y-109549664D01*
X166298615Y-109592497D01*
X166305393Y-109599275D01*
X166348227Y-109595587D01*
X166483455Y-109615647D01*
X166525931Y-109632633D01*
X166610533Y-109548032D01*
X166962671Y-109548032D01*
X167094393Y-109679754D01*
X167094393Y-109416393D01*
X167094311Y-109416393D01*
X166962671Y-109548032D01*
X166610533Y-109548032D01*
X166478894Y-109416393D01*
X166385791Y-109416393D01*
X166295873Y-109506309D01*
X165992669Y-109506309D01*
X165876268Y-109444092D01*
X165676077Y-109383365D01*
X165676081Y-109383365D01*
X165467893Y-109362861D01*
X165259706Y-109383365D01*
X165059515Y-109444093D01*
X164913555Y-109522109D01*
X165423492Y-110032046D01*
X165342745Y-110044835D01*
X165229848Y-110102359D01*
X165140252Y-110191955D01*
X165082728Y-110304852D01*
X165069939Y-110385599D01*
X164560002Y-109875662D01*
X164560000Y-109875662D01*
X164549528Y-109895256D01*
X164500566Y-109945101D01*
X164432428Y-109960561D01*
X164366748Y-109936729D01*
X164324380Y-109881172D01*
X164323129Y-109877760D01*
X164225269Y-109598107D01*
X164139805Y-109420648D01*
X164094567Y-109326715D01*
X164011030Y-109193771D01*
X164482847Y-109193771D01*
X164661038Y-109371962D01*
X164689624Y-109343376D01*
X164690206Y-109343958D01*
X164701772Y-109333732D01*
X164700521Y-109332481D01*
X164839230Y-109193771D01*
X164752713Y-109107254D01*
X165277886Y-109107254D01*
X165352241Y-109099930D01*
X165315793Y-109069347D01*
X165277886Y-109107254D01*
X164752713Y-109107254D01*
X164661039Y-109015580D01*
X164482847Y-109193771D01*
X164011030Y-109193771D01*
X163934301Y-109071662D01*
X163759965Y-108853058D01*
X163749162Y-108839511D01*
X164128587Y-108839511D01*
X164306778Y-109017702D01*
X164484970Y-108839511D01*
X164837108Y-108839511D01*
X165015299Y-109017702D01*
X165151065Y-108881936D01*
X165141605Y-108868426D01*
X165138113Y-108862943D01*
X165041922Y-108696332D01*
X165038917Y-108690561D01*
X165034005Y-108680025D01*
X165015299Y-108661319D01*
X164837108Y-108839511D01*
X164484970Y-108839511D01*
X164306778Y-108661319D01*
X164128587Y-108839511D01*
X163749162Y-108839511D01*
X163746483Y-108836152D01*
X163657427Y-108747100D01*
X163657425Y-108747097D01*
X163621758Y-108711432D01*
X163391912Y-108481586D01*
X163777991Y-108481586D01*
X163814793Y-108518388D01*
X163853977Y-108557567D01*
X163853982Y-108557574D01*
X163943423Y-108647013D01*
X163946301Y-108650052D01*
X163953786Y-108658428D01*
X163955499Y-108660460D01*
X164130709Y-108485250D01*
X164482847Y-108485250D01*
X164661039Y-108663442D01*
X164839230Y-108485250D01*
X164661039Y-108307059D01*
X164482847Y-108485250D01*
X164130709Y-108485250D01*
X163952518Y-108307059D01*
X163777991Y-108481586D01*
X163391912Y-108481586D01*
X163037652Y-108127325D01*
X163423730Y-108127325D01*
X163601922Y-108305517D01*
X163776449Y-108130990D01*
X164128587Y-108130990D01*
X164306778Y-108309181D01*
X164484970Y-108130990D01*
X164837108Y-108130990D01*
X164919406Y-108213288D01*
X164919406Y-108159049D01*
X164919393Y-108158774D01*
X164919393Y-108048705D01*
X164837108Y-108130990D01*
X164484970Y-108130990D01*
X164306778Y-107952798D01*
X164128587Y-108130990D01*
X163776449Y-108130990D01*
X163598257Y-107952798D01*
X163423730Y-108127325D01*
X163037652Y-108127325D01*
X162683392Y-107773065D01*
X163069470Y-107773065D01*
X163247661Y-107951256D01*
X163422188Y-107776729D01*
X163774326Y-107776729D01*
X163952518Y-107954921D01*
X164130709Y-107776729D01*
X164482847Y-107776729D01*
X164661039Y-107954921D01*
X164839230Y-107776729D01*
X164661039Y-107598538D01*
X164482847Y-107776729D01*
X164130709Y-107776729D01*
X163952518Y-107598538D01*
X163774326Y-107776729D01*
X163422188Y-107776729D01*
X163243997Y-107598538D01*
X163069470Y-107773065D01*
X162683392Y-107773065D01*
X162329130Y-107418803D01*
X162715210Y-107418803D01*
X162893401Y-107596995D01*
X163067928Y-107422469D01*
X163420066Y-107422469D01*
X163598257Y-107600660D01*
X163776449Y-107422469D01*
X164128587Y-107422469D01*
X164306778Y-107600660D01*
X164484970Y-107422469D01*
X164837108Y-107422469D01*
X164919393Y-107504754D01*
X164919393Y-107340184D01*
X164837108Y-107422469D01*
X164484970Y-107422469D01*
X164306778Y-107244277D01*
X164128587Y-107422469D01*
X163776449Y-107422469D01*
X163598257Y-107244277D01*
X163420066Y-107422469D01*
X163067928Y-107422469D01*
X162889736Y-107244277D01*
X162715210Y-107418803D01*
X162329130Y-107418803D01*
X161974870Y-107064543D01*
X162360950Y-107064543D01*
X162539141Y-107242734D01*
X162713667Y-107068208D01*
X163065805Y-107068208D01*
X163243997Y-107246400D01*
X163422188Y-107068208D01*
X163774326Y-107068208D01*
X163952518Y-107246400D01*
X164130709Y-107068208D01*
X164482847Y-107068208D01*
X164661039Y-107246400D01*
X164839230Y-107068208D01*
X164661039Y-106890017D01*
X164482847Y-107068208D01*
X164130709Y-107068208D01*
X163952518Y-106890017D01*
X163774326Y-107068208D01*
X163422188Y-107068208D01*
X163243997Y-106890017D01*
X163065805Y-107068208D01*
X162713667Y-107068208D01*
X162535476Y-106890017D01*
X162360950Y-107064543D01*
X161974870Y-107064543D01*
X161620609Y-106710282D01*
X162006689Y-106710282D01*
X162184881Y-106888474D01*
X162359407Y-106713948D01*
X162711545Y-106713948D01*
X162889736Y-106892139D01*
X163067928Y-106713948D01*
X163420066Y-106713948D01*
X163598257Y-106892139D01*
X163776449Y-106713948D01*
X164128587Y-106713948D01*
X164306778Y-106892139D01*
X164484970Y-106713948D01*
X164422186Y-106651164D01*
X164266396Y-106576138D01*
X164128587Y-106713948D01*
X163776449Y-106713948D01*
X163598257Y-106535756D01*
X163420066Y-106713948D01*
X163067928Y-106713948D01*
X162889736Y-106535756D01*
X162711545Y-106713948D01*
X162359407Y-106713948D01*
X162181215Y-106535756D01*
X162006689Y-106710282D01*
X161620609Y-106710282D01*
X161427686Y-106517359D01*
X161426972Y-106516705D01*
X161316078Y-106405808D01*
X161316078Y-106405809D01*
X161256745Y-106356021D01*
X161652429Y-106356021D01*
X161830620Y-106534213D01*
X162005146Y-106359687D01*
X162357284Y-106359687D01*
X162535476Y-106537879D01*
X162713667Y-106359687D01*
X163065805Y-106359687D01*
X163243997Y-106537879D01*
X163422187Y-106359688D01*
X163774327Y-106359688D01*
X163952518Y-106537879D01*
X164055480Y-106434916D01*
X164032272Y-106419093D01*
X164027784Y-106415779D01*
X164016195Y-106406535D01*
X164011975Y-106402906D01*
X163866286Y-106267727D01*
X163774327Y-106359688D01*
X163422187Y-106359688D01*
X163422188Y-106359687D01*
X163243997Y-106181496D01*
X163065805Y-106359687D01*
X162713667Y-106359687D01*
X162535476Y-106181496D01*
X162357284Y-106359687D01*
X162005146Y-106359687D01*
X161826955Y-106181496D01*
X161652429Y-106356021D01*
X161256745Y-106356021D01*
X161027277Y-106163469D01*
X161027278Y-106163469D01*
X160801576Y-106005427D01*
X161294503Y-106005427D01*
X161455474Y-106166398D01*
X161474200Y-106182112D01*
X161650886Y-106005427D01*
X162003024Y-106005427D01*
X162181215Y-106183618D01*
X162359407Y-106005427D01*
X162711545Y-106005427D01*
X162889736Y-106183618D01*
X163067928Y-106005427D01*
X163420066Y-106005427D01*
X163598257Y-106183618D01*
X163702734Y-106079140D01*
X163648740Y-106011433D01*
X163645428Y-106006948D01*
X163637053Y-105994663D01*
X163634089Y-105989947D01*
X163561417Y-105864075D01*
X163420066Y-106005427D01*
X163067928Y-106005427D01*
X162889736Y-105827235D01*
X162711545Y-106005427D01*
X162359407Y-106005427D01*
X162181215Y-105827235D01*
X162003024Y-106005427D01*
X161650886Y-106005427D01*
X161472694Y-105827235D01*
X161294503Y-106005427D01*
X160801576Y-106005427D01*
X160718448Y-105947219D01*
X160391948Y-105758708D01*
X160161331Y-105651166D01*
X160940242Y-105651166D01*
X161118434Y-105829358D01*
X161296625Y-105651166D01*
X161648763Y-105651166D01*
X161826955Y-105829358D01*
X162005146Y-105651166D01*
X162357284Y-105651166D01*
X162535476Y-105829358D01*
X162713667Y-105651166D01*
X163065805Y-105651166D01*
X163243997Y-105829358D01*
X163422188Y-105651166D01*
X163243997Y-105472975D01*
X163065805Y-105651166D01*
X162713667Y-105651166D01*
X162535476Y-105472975D01*
X162357284Y-105651166D01*
X162005146Y-105651166D01*
X161826955Y-105472975D01*
X161648763Y-105651166D01*
X161296625Y-105651166D01*
X161118434Y-105472975D01*
X160940242Y-105651166D01*
X160161331Y-105651166D01*
X160050260Y-105599371D01*
X160050257Y-105599370D01*
X160050258Y-105599370D01*
X159695988Y-105470421D01*
X159695987Y-105470420D01*
X159695985Y-105470420D01*
X159331819Y-105372838D01*
X158960534Y-105307366D01*
X158664629Y-105281473D01*
X158584958Y-105274502D01*
X158584957Y-105274502D01*
X158424922Y-105274500D01*
X158424921Y-105274500D01*
X157810433Y-105274500D01*
X157809052Y-105274500D01*
X157809008Y-105274501D01*
X157692928Y-105274501D01*
X157627425Y-105280952D01*
X157402381Y-105303116D01*
X157116023Y-105360074D01*
X156836626Y-105444828D01*
X156566888Y-105556557D01*
X156309404Y-105694186D01*
X156309384Y-105694198D01*
X156066660Y-105856380D01*
X156066638Y-105856397D01*
X155840954Y-106041612D01*
X155757867Y-106124700D01*
X155757865Y-106124702D01*
X155737728Y-106144838D01*
X155729599Y-106152967D01*
X155668276Y-106186452D01*
X155598584Y-106181468D01*
X155575945Y-106170279D01*
X155542417Y-106149211D01*
X155372147Y-106089631D01*
X155372142Y-106089630D01*
X155192897Y-106069435D01*
X155192889Y-106069435D01*
X155013643Y-106089630D01*
X155013638Y-106089631D01*
X154843369Y-106149211D01*
X154690630Y-106245184D01*
X154563077Y-106372737D01*
X154467104Y-106525476D01*
X154407524Y-106695745D01*
X154407523Y-106695750D01*
X154392393Y-106830039D01*
X154392393Y-107469960D01*
X154407523Y-107604249D01*
X154407524Y-107604254D01*
X154467104Y-107774523D01*
X154527820Y-107871151D01*
X154563077Y-107927262D01*
X154690631Y-108054816D01*
X154758580Y-108097511D01*
X154837396Y-108147035D01*
X154843371Y-108150789D01*
X154920544Y-108177793D01*
X155013638Y-108210368D01*
X155013643Y-108210369D01*
X155192889Y-108230565D01*
X155192893Y-108230565D01*
X155192897Y-108230565D01*
X155372142Y-108210369D01*
X155372145Y-108210368D01*
X155372148Y-108210368D01*
X155542415Y-108150789D01*
X155695155Y-108054816D01*
X155822709Y-107927262D01*
X155918682Y-107774522D01*
X155978261Y-107604255D01*
X155979323Y-107594836D01*
X155987191Y-107525000D01*
X155993393Y-107469954D01*
X155993393Y-106861187D01*
X156013078Y-106794148D01*
X156029712Y-106773506D01*
X156069209Y-106734009D01*
X156082581Y-106720637D01*
X156143903Y-106687153D01*
X156213595Y-106692137D01*
X156269528Y-106734009D01*
X156293945Y-106799473D01*
X156293582Y-106821275D01*
X156292893Y-106827827D01*
X156292893Y-106900000D01*
X156913333Y-106900000D01*
X156874615Y-106942059D01*
X156824342Y-107056670D01*
X156814007Y-107181395D01*
X156844730Y-107302719D01*
X156908287Y-107400000D01*
X156292893Y-107400000D01*
X156292893Y-107472159D01*
X156307712Y-107613154D01*
X156366171Y-107793072D01*
X156366176Y-107793084D01*
X156460763Y-107956915D01*
X156460765Y-107956918D01*
X156587353Y-108097509D01*
X156587356Y-108097511D01*
X156740415Y-108208717D01*
X156913249Y-108285666D01*
X156942892Y-108291966D01*
X156942893Y-108291966D01*
X156942893Y-107430617D01*
X157011945Y-107484363D01*
X157130317Y-107525000D01*
X157223966Y-107525000D01*
X157316339Y-107509586D01*
X157426407Y-107450019D01*
X157442893Y-107432110D01*
X157442893Y-108291966D01*
X157472536Y-108285666D01*
X157645372Y-108208714D01*
X157798428Y-108097512D01*
X157925020Y-107956918D01*
X157925022Y-107956915D01*
X158019609Y-107793084D01*
X158019614Y-107793072D01*
X158078073Y-107613154D01*
X158092893Y-107472159D01*
X158092893Y-107400000D01*
X157472453Y-107400000D01*
X157511171Y-107357941D01*
X157561444Y-107243330D01*
X157571779Y-107118605D01*
X157541056Y-106997281D01*
X157477499Y-106900000D01*
X158092893Y-106900000D01*
X158092893Y-106827840D01*
X158078073Y-106686845D01*
X158019614Y-106506927D01*
X158019609Y-106506915D01*
X157925022Y-106343084D01*
X157925020Y-106343081D01*
X157798432Y-106202490D01*
X157798427Y-106202486D01*
X157729063Y-106152089D01*
X157686398Y-106096759D01*
X157680420Y-106027145D01*
X157713027Y-105965351D01*
X157773866Y-105930994D01*
X157794992Y-105927968D01*
X157837220Y-105925596D01*
X157840686Y-105925500D01*
X157890461Y-105925500D01*
X158396442Y-105925500D01*
X158518080Y-105930812D01*
X158584197Y-105953403D01*
X158627604Y-106008153D01*
X158634521Y-106077679D01*
X158602751Y-106139908D01*
X158586304Y-106154464D01*
X158520743Y-106202850D01*
X158440100Y-106312117D01*
X158440099Y-106312119D01*
X158395246Y-106440298D01*
X158395246Y-106440300D01*
X158392393Y-106470730D01*
X158392393Y-107829269D01*
X158395246Y-107859699D01*
X158395246Y-107859701D01*
X158436819Y-107978506D01*
X158440100Y-107987882D01*
X158520743Y-108097150D01*
X158630011Y-108177793D01*
X158662056Y-108189006D01*
X158758191Y-108222646D01*
X158765563Y-108224256D01*
X158765099Y-108226379D01*
X158819875Y-108248198D01*
X158860502Y-108305041D01*
X158867393Y-108345802D01*
X158867393Y-109175500D01*
X158847708Y-109242539D01*
X158794904Y-109288294D01*
X158743393Y-109299500D01*
X157870730Y-109299500D01*
X157840300Y-109302353D01*
X157840298Y-109302353D01*
X157712119Y-109347206D01*
X157712117Y-109347207D01*
X157602850Y-109427850D01*
X157522207Y-109537117D01*
X157522206Y-109537119D01*
X157477353Y-109665298D01*
X157477353Y-109665300D01*
X157474500Y-109695730D01*
X157474500Y-109700508D01*
X157454815Y-109767547D01*
X157402011Y-109813302D01*
X157350500Y-109824508D01*
X157315560Y-109824508D01*
X157129050Y-109849058D01*
X156947324Y-109897750D01*
X156773532Y-109969735D01*
X156773521Y-109969741D01*
X156610605Y-110063799D01*
X156610601Y-110063802D01*
X156461348Y-110178326D01*
X156431162Y-110208512D01*
X156431137Y-110208525D01*
X156328315Y-110311346D01*
X156213794Y-110460595D01*
X156213791Y-110460600D01*
X156119733Y-110623517D01*
X156119727Y-110623528D01*
X156047739Y-110797325D01*
X156047738Y-110797329D01*
X155999051Y-110979043D01*
X155999050Y-110979047D01*
X155974499Y-111165558D01*
X155974500Y-111231144D01*
X155974500Y-111881870D01*
X155974309Y-111886737D01*
X155962457Y-112037304D01*
X155959413Y-112056521D01*
X155925864Y-112196258D01*
X155919851Y-112214763D01*
X155864857Y-112347530D01*
X155856023Y-112364867D01*
X155780938Y-112487393D01*
X155769501Y-112503135D01*
X155676141Y-112612444D01*
X155662383Y-112626202D01*
X155553138Y-112719506D01*
X155537401Y-112730939D01*
X155438969Y-112791260D01*
X155414871Y-112806027D01*
X155397535Y-112814860D01*
X155264762Y-112869858D01*
X155246256Y-112875871D01*
X155106521Y-112909419D01*
X155087302Y-112912463D01*
X155059146Y-112914679D01*
X154990769Y-112900315D01*
X154941012Y-112851264D01*
X154926046Y-112798594D01*
X154925771Y-112798620D01*
X154925631Y-112797133D01*
X154925553Y-112796857D01*
X154925500Y-112795735D01*
X154922646Y-112765300D01*
X154922646Y-112765298D01*
X154877793Y-112637119D01*
X154877792Y-112637117D01*
X154797150Y-112527850D01*
X154687882Y-112447207D01*
X154687880Y-112447206D01*
X154559700Y-112402353D01*
X154529270Y-112399500D01*
X154529266Y-112399500D01*
X152270734Y-112399500D01*
X152270730Y-112399500D01*
X152240300Y-112402353D01*
X152240298Y-112402353D01*
X152112119Y-112447206D01*
X152112117Y-112447207D01*
X152002850Y-112527850D01*
X151922207Y-112637117D01*
X151922206Y-112637119D01*
X151877353Y-112765298D01*
X151877353Y-112765300D01*
X151874500Y-112795730D01*
X151874500Y-113704269D01*
X151877353Y-113734699D01*
X151877353Y-113734701D01*
X151921095Y-113859705D01*
X151922207Y-113862882D01*
X152000815Y-113969393D01*
X152002851Y-113972151D01*
X152065819Y-114018623D01*
X152108070Y-114074270D01*
X152113529Y-114143926D01*
X152080462Y-114205476D01*
X152019368Y-114239377D01*
X151992186Y-114242393D01*
X150017794Y-114242393D01*
X149950755Y-114222708D01*
X149905000Y-114169904D01*
X149895056Y-114100746D01*
X149924081Y-114037190D01*
X149981799Y-113999732D01*
X150126273Y-113955906D01*
X150272230Y-113877890D01*
X150193498Y-113799158D01*
X150666688Y-113799158D01*
X150836923Y-113969393D01*
X150852837Y-113969393D01*
X151023071Y-113799158D01*
X151375209Y-113799158D01*
X151545444Y-113969393D01*
X151561358Y-113969393D01*
X151642021Y-113888729D01*
X151616308Y-113815247D01*
X151615171Y-113811650D01*
X151613730Y-113806560D01*
X151612815Y-113802906D01*
X151608470Y-113783009D01*
X151607782Y-113779330D01*
X151606968Y-113774107D01*
X151606499Y-113770344D01*
X151602260Y-113725139D01*
X151602015Y-113721662D01*
X151601583Y-113712421D01*
X151601500Y-113708941D01*
X151601500Y-113669066D01*
X151553401Y-113620967D01*
X151375209Y-113799158D01*
X151023071Y-113799158D01*
X150870167Y-113646254D01*
X150834325Y-113713311D01*
X150796366Y-113756239D01*
X150786658Y-113763076D01*
X150733453Y-113784353D01*
X150672444Y-113793402D01*
X150666688Y-113799158D01*
X150193498Y-113799158D01*
X149762294Y-113367953D01*
X149843041Y-113355165D01*
X149955938Y-113297641D01*
X150045534Y-113208045D01*
X150103058Y-113095148D01*
X150115846Y-113014400D01*
X150625783Y-113524337D01*
X150668245Y-113444897D01*
X151020948Y-113444897D01*
X151199140Y-113623089D01*
X151377331Y-113444897D01*
X151199140Y-113266706D01*
X151020948Y-113444897D01*
X150668245Y-113444897D01*
X150703799Y-113378380D01*
X150764527Y-113178186D01*
X150773150Y-113090637D01*
X151375209Y-113090637D01*
X151553400Y-113268828D01*
X151601500Y-113220729D01*
X151601500Y-112960545D01*
X151553401Y-112912446D01*
X151375209Y-113090637D01*
X150773150Y-113090637D01*
X150785031Y-112970000D01*
X150764527Y-112761813D01*
X150752599Y-112722492D01*
X151034832Y-112722492D01*
X151035035Y-112723862D01*
X151035406Y-112726871D01*
X151038024Y-112753452D01*
X151199140Y-112914568D01*
X151377331Y-112736376D01*
X151199140Y-112558185D01*
X151034832Y-112722492D01*
X150752599Y-112722492D01*
X150703799Y-112561619D01*
X150625783Y-112415662D01*
X150625782Y-112415662D01*
X150115846Y-112925598D01*
X150103058Y-112844852D01*
X150045534Y-112731955D01*
X149955938Y-112642359D01*
X149843041Y-112584835D01*
X149762294Y-112572046D01*
X150114131Y-112220208D01*
X150828595Y-112220208D01*
X150834326Y-112226689D01*
X150948439Y-112440179D01*
X150949797Y-112442878D01*
X150951625Y-112446738D01*
X150952868Y-112449541D01*
X150953681Y-112451505D01*
X151023071Y-112382116D01*
X151375209Y-112382116D01*
X151553401Y-112560307D01*
X151731592Y-112382116D01*
X151671903Y-112322427D01*
X154977503Y-112322427D01*
X154977909Y-112322776D01*
X154981315Y-112325935D01*
X154999065Y-112343685D01*
X155002224Y-112347091D01*
X155006469Y-112352024D01*
X155009356Y-112355645D01*
X155104907Y-112485110D01*
X155107533Y-112488965D01*
X155110995Y-112494479D01*
X155113301Y-112498475D01*
X155125019Y-112520648D01*
X155127028Y-112524820D01*
X155128384Y-112527928D01*
X155274197Y-112382116D01*
X155096006Y-112203925D01*
X154977503Y-112322427D01*
X151671903Y-112322427D01*
X151553401Y-112203925D01*
X151375209Y-112382116D01*
X151023071Y-112382116D01*
X150844879Y-112203924D01*
X150828595Y-112220208D01*
X150114131Y-112220208D01*
X150272229Y-112062109D01*
X150126268Y-111984092D01*
X149926077Y-111923365D01*
X149926081Y-111923365D01*
X149717893Y-111902861D01*
X149509706Y-111923365D01*
X149309515Y-111984093D01*
X149163555Y-112062109D01*
X149673492Y-112572046D01*
X149592745Y-112584835D01*
X149479848Y-112642359D01*
X149390252Y-112731955D01*
X149332728Y-112844852D01*
X149319939Y-112925599D01*
X148810002Y-112415662D01*
X148731986Y-112561622D01*
X148671258Y-112761813D01*
X148650754Y-112970000D01*
X148671258Y-113178186D01*
X148731985Y-113378375D01*
X148810002Y-113524336D01*
X149319939Y-113014400D01*
X149332728Y-113095148D01*
X149390252Y-113208045D01*
X149479848Y-113297641D01*
X149592745Y-113355165D01*
X149673492Y-113367953D01*
X149163555Y-113877889D01*
X149163555Y-113877890D01*
X149309512Y-113955906D01*
X149453987Y-113999732D01*
X149512426Y-114038030D01*
X149540882Y-114101842D01*
X149530322Y-114170909D01*
X149484098Y-114223303D01*
X149417992Y-114242393D01*
X147217794Y-114242393D01*
X147150755Y-114222708D01*
X147105000Y-114169904D01*
X147095056Y-114100746D01*
X147124081Y-114037190D01*
X147181799Y-113999732D01*
X147326273Y-113955906D01*
X147472230Y-113877890D01*
X147393632Y-113799292D01*
X147832739Y-113799292D01*
X148002839Y-113969393D01*
X148018753Y-113969393D01*
X148188987Y-113799158D01*
X148188986Y-113799157D01*
X148541125Y-113799157D01*
X148711360Y-113969393D01*
X148727273Y-113969393D01*
X148886980Y-113809683D01*
X148887807Y-113800083D01*
X148837558Y-113804412D01*
X148702330Y-113784352D01*
X148649126Y-113763075D01*
X148639418Y-113756238D01*
X148613432Y-113726851D01*
X148541125Y-113799157D01*
X148188986Y-113799157D01*
X148058295Y-113668466D01*
X148034325Y-113713311D01*
X147996366Y-113756239D01*
X147986658Y-113763076D01*
X147933454Y-113784353D01*
X147832739Y-113799292D01*
X147393632Y-113799292D01*
X146962294Y-113367953D01*
X147043041Y-113355165D01*
X147155938Y-113297641D01*
X147245534Y-113208045D01*
X147303058Y-113095148D01*
X147315846Y-113014400D01*
X147825783Y-113524337D01*
X147868245Y-113444897D01*
X148186864Y-113444897D01*
X148365055Y-113623088D01*
X148487687Y-113500456D01*
X148487347Y-113499819D01*
X148485988Y-113497121D01*
X148484161Y-113493261D01*
X148482918Y-113490458D01*
X148476612Y-113475232D01*
X148475506Y-113472365D01*
X148474070Y-113468344D01*
X148473125Y-113465482D01*
X148433627Y-113335277D01*
X148365056Y-113266706D01*
X148186864Y-113444897D01*
X147868245Y-113444897D01*
X147903799Y-113378380D01*
X147964527Y-113178186D01*
X147985031Y-112970000D01*
X147964527Y-112761813D01*
X147943983Y-112694088D01*
X148229151Y-112694088D01*
X148230015Y-112697537D01*
X148230678Y-112700492D01*
X148233887Y-112716627D01*
X148234409Y-112719636D01*
X148235035Y-112723862D01*
X148235406Y-112726871D01*
X148241748Y-112791260D01*
X148365055Y-112914567D01*
X148383731Y-112895891D01*
X148400380Y-112726870D01*
X148400751Y-112723861D01*
X148401377Y-112719636D01*
X148401899Y-112716627D01*
X148405108Y-112700492D01*
X148405771Y-112697537D01*
X148406808Y-112693394D01*
X148407623Y-112690445D01*
X148428498Y-112621627D01*
X148365055Y-112558184D01*
X148229151Y-112694088D01*
X147943983Y-112694088D01*
X147903799Y-112561619D01*
X147825783Y-112415662D01*
X147825782Y-112415662D01*
X147315846Y-112925598D01*
X147303058Y-112844852D01*
X147245534Y-112731955D01*
X147155938Y-112642359D01*
X147043041Y-112584835D01*
X146962294Y-112572046D01*
X147306005Y-112228334D01*
X148035205Y-112228334D01*
X148142337Y-112428764D01*
X148188986Y-112382115D01*
X148035205Y-112228334D01*
X147306005Y-112228334D01*
X147472229Y-112062109D01*
X147326268Y-111984092D01*
X147126077Y-111923365D01*
X147126081Y-111923365D01*
X146949816Y-111906005D01*
X147712876Y-111906005D01*
X147732245Y-111954437D01*
X147752305Y-112089665D01*
X147750362Y-112112220D01*
X147834726Y-112027855D01*
X148186864Y-112027855D01*
X148365056Y-112206047D01*
X148543247Y-112027855D01*
X148380930Y-111865538D01*
X150474744Y-111865538D01*
X150504131Y-111891525D01*
X150510968Y-111901233D01*
X150532245Y-111954437D01*
X150552305Y-112089665D01*
X150547976Y-112139914D01*
X150557576Y-112139087D01*
X150668810Y-112027855D01*
X151020948Y-112027855D01*
X151199140Y-112206047D01*
X151377331Y-112027855D01*
X151729469Y-112027855D01*
X151907661Y-112206047D01*
X152085852Y-112027855D01*
X152437990Y-112027855D01*
X152536635Y-112126500D01*
X152695729Y-112126500D01*
X152794373Y-112027855D01*
X153146511Y-112027855D01*
X153245156Y-112126500D01*
X153404250Y-112126500D01*
X153502894Y-112027855D01*
X153855032Y-112027855D01*
X153953677Y-112126500D01*
X154112771Y-112126500D01*
X154211415Y-112027855D01*
X154563553Y-112027855D01*
X154696792Y-112161094D01*
X154763391Y-112184399D01*
X154919936Y-112027855D01*
X155272074Y-112027855D01*
X155450266Y-112206047D01*
X155628457Y-112027855D01*
X155450266Y-111849664D01*
X155272074Y-112027855D01*
X154919936Y-112027855D01*
X154741745Y-111849664D01*
X154563553Y-112027855D01*
X154211415Y-112027855D01*
X154033224Y-111849664D01*
X153855032Y-112027855D01*
X153502894Y-112027855D01*
X153324703Y-111849664D01*
X153146511Y-112027855D01*
X152794373Y-112027855D01*
X152616182Y-111849664D01*
X152437990Y-112027855D01*
X152085852Y-112027855D01*
X151907661Y-111849664D01*
X151729469Y-112027855D01*
X151377331Y-112027855D01*
X151199140Y-111849664D01*
X151020948Y-112027855D01*
X150668810Y-112027855D01*
X150490619Y-111849664D01*
X150474744Y-111865538D01*
X148380930Y-111865538D01*
X148365056Y-111849664D01*
X148186864Y-112027855D01*
X147834726Y-112027855D01*
X147712876Y-111906005D01*
X146949816Y-111906005D01*
X146917893Y-111902861D01*
X146709706Y-111923365D01*
X146509515Y-111984093D01*
X146363555Y-112062109D01*
X146873492Y-112572046D01*
X146792745Y-112584835D01*
X146679848Y-112642359D01*
X146590252Y-112731955D01*
X146532728Y-112844852D01*
X146519939Y-112925598D01*
X146010002Y-112415662D01*
X145931986Y-112561622D01*
X145871258Y-112761813D01*
X145850754Y-112970000D01*
X145871258Y-113178186D01*
X145931985Y-113378375D01*
X146010002Y-113524336D01*
X146519939Y-113014400D01*
X146532728Y-113095148D01*
X146590252Y-113208045D01*
X146679848Y-113297641D01*
X146792745Y-113355165D01*
X146873492Y-113367953D01*
X146363555Y-113877889D01*
X146363555Y-113877890D01*
X146509512Y-113955906D01*
X146653987Y-113999732D01*
X146712426Y-114038030D01*
X146740882Y-114101842D01*
X146730322Y-114170909D01*
X146684098Y-114223303D01*
X146617992Y-114242393D01*
X145142393Y-114242393D01*
X145075354Y-114222708D01*
X145029599Y-114169904D01*
X145018393Y-114118393D01*
X145018393Y-113735648D01*
X145291393Y-113735648D01*
X145291393Y-113862668D01*
X145354903Y-113799158D01*
X145707041Y-113799158D01*
X145877276Y-113969393D01*
X145893189Y-113969393D01*
X146060111Y-113802469D01*
X146037558Y-113804412D01*
X145902330Y-113784352D01*
X145849126Y-113763075D01*
X145839418Y-113756238D01*
X145801458Y-113713309D01*
X145798473Y-113707725D01*
X145707041Y-113799158D01*
X145354903Y-113799158D01*
X145291393Y-113735648D01*
X145018393Y-113735648D01*
X145018393Y-113444897D01*
X145352780Y-113444897D01*
X145530972Y-113623089D01*
X145677261Y-113476799D01*
X145676612Y-113475232D01*
X145675506Y-113472365D01*
X145674070Y-113468344D01*
X145673125Y-113465482D01*
X145648469Y-113384203D01*
X145530972Y-113266706D01*
X145352780Y-113444897D01*
X145018393Y-113444897D01*
X145018393Y-113027127D01*
X145291393Y-113027127D01*
X145291393Y-113154147D01*
X145354903Y-113090637D01*
X145291393Y-113027127D01*
X145018393Y-113027127D01*
X145018393Y-112736376D01*
X145352780Y-112736376D01*
X145530971Y-112914567D01*
X145587455Y-112858084D01*
X145600380Y-112726870D01*
X145600751Y-112723861D01*
X145601377Y-112719636D01*
X145601899Y-112716627D01*
X145605108Y-112700492D01*
X145605771Y-112697537D01*
X145606808Y-112693394D01*
X145607623Y-112690445D01*
X145620565Y-112647778D01*
X145530972Y-112558185D01*
X145352780Y-112736376D01*
X145018393Y-112736376D01*
X145018393Y-112318606D01*
X145291393Y-112318606D01*
X145291393Y-112445626D01*
X145354903Y-112382116D01*
X145707041Y-112382116D01*
X145714432Y-112389506D01*
X145731404Y-112357753D01*
X145707041Y-112382116D01*
X145354903Y-112382116D01*
X145291393Y-112318606D01*
X145018393Y-112318606D01*
X145018393Y-112027855D01*
X145352780Y-112027855D01*
X145530972Y-112206047D01*
X145709163Y-112027855D01*
X146061301Y-112027855D01*
X146088599Y-112055153D01*
X146098108Y-111991048D01*
X146061301Y-112027855D01*
X145709163Y-112027855D01*
X145530972Y-111849664D01*
X145352780Y-112027855D01*
X145018393Y-112027855D01*
X145018393Y-111610085D01*
X145291393Y-111610085D01*
X145291393Y-111737105D01*
X145354903Y-111673595D01*
X145707041Y-111673595D01*
X145885233Y-111851786D01*
X145886439Y-111850580D01*
X147655618Y-111850580D01*
X147659556Y-111852685D01*
X147656535Y-111849664D01*
X147655618Y-111850580D01*
X145886439Y-111850580D01*
X146063424Y-111673595D01*
X146415562Y-111673595D01*
X146456774Y-111714807D01*
X146638337Y-111659730D01*
X146641287Y-111658915D01*
X146645430Y-111657878D01*
X146648385Y-111657215D01*
X146664520Y-111654006D01*
X146667529Y-111653484D01*
X146671754Y-111652858D01*
X146674763Y-111652487D01*
X146689174Y-111651067D01*
X147146611Y-111651067D01*
X147161023Y-111652487D01*
X147164032Y-111652858D01*
X147168257Y-111653484D01*
X147171266Y-111654006D01*
X147187401Y-111657215D01*
X147190356Y-111657878D01*
X147194499Y-111658915D01*
X147197449Y-111659730D01*
X147413375Y-111725232D01*
X147416237Y-111726177D01*
X147420258Y-111727613D01*
X147423125Y-111728719D01*
X147424692Y-111729368D01*
X147480466Y-111673595D01*
X147832604Y-111673595D01*
X148010796Y-111851786D01*
X148188987Y-111673595D01*
X148541125Y-111673595D01*
X148719317Y-111851786D01*
X148897508Y-111673595D01*
X149249646Y-111673595D01*
X149282925Y-111706874D01*
X149438337Y-111659730D01*
X149441287Y-111658915D01*
X149445430Y-111657878D01*
X149448385Y-111657215D01*
X149459110Y-111655082D01*
X149976680Y-111655082D01*
X149987401Y-111657215D01*
X149990356Y-111657878D01*
X149994499Y-111658915D01*
X149997449Y-111659730D01*
X150213375Y-111725232D01*
X150216237Y-111726177D01*
X150220258Y-111727613D01*
X150223125Y-111728719D01*
X150238351Y-111735025D01*
X150241154Y-111736268D01*
X150245014Y-111738095D01*
X150247712Y-111739454D01*
X150248349Y-111739794D01*
X150314548Y-111673595D01*
X150666688Y-111673595D01*
X150844880Y-111851786D01*
X151023071Y-111673595D01*
X151375209Y-111673595D01*
X151553401Y-111851786D01*
X151731592Y-111673595D01*
X152083730Y-111673595D01*
X152261922Y-111851786D01*
X152440113Y-111673595D01*
X152792251Y-111673595D01*
X152970443Y-111851786D01*
X153148634Y-111673595D01*
X153500772Y-111673595D01*
X153678964Y-111851786D01*
X153857155Y-111673595D01*
X154209293Y-111673595D01*
X154387485Y-111851786D01*
X154565676Y-111673595D01*
X154917814Y-111673595D01*
X155096005Y-111851786D01*
X155274197Y-111673595D01*
X155626335Y-111673595D01*
X155701500Y-111748760D01*
X155701500Y-111598430D01*
X155626335Y-111673595D01*
X155274197Y-111673595D01*
X155096005Y-111495403D01*
X154917814Y-111673595D01*
X154565676Y-111673595D01*
X154387485Y-111495404D01*
X154209293Y-111673595D01*
X153857155Y-111673595D01*
X153678964Y-111495404D01*
X153500772Y-111673595D01*
X153148634Y-111673595D01*
X152970443Y-111495404D01*
X152792251Y-111673595D01*
X152440113Y-111673595D01*
X152261922Y-111495404D01*
X152083730Y-111673595D01*
X151731592Y-111673595D01*
X151553401Y-111495404D01*
X151375209Y-111673595D01*
X151023071Y-111673595D01*
X150844880Y-111495404D01*
X150666688Y-111673595D01*
X150314548Y-111673595D01*
X150314549Y-111673594D01*
X150209238Y-111568283D01*
X150206725Y-111569549D01*
X150202861Y-111571376D01*
X150200072Y-111572612D01*
X150184863Y-111578910D01*
X150182017Y-111580008D01*
X150178000Y-111581444D01*
X150175122Y-111582395D01*
X149994609Y-111637153D01*
X149976680Y-111655082D01*
X149459110Y-111655082D01*
X149464520Y-111654006D01*
X149467529Y-111653484D01*
X149471754Y-111652858D01*
X149474763Y-111652487D01*
X149499921Y-111650008D01*
X149494269Y-111649452D01*
X149491260Y-111649081D01*
X149487034Y-111648455D01*
X149484025Y-111647933D01*
X149467890Y-111644724D01*
X149464935Y-111644061D01*
X149460792Y-111643024D01*
X149457842Y-111642209D01*
X149322184Y-111601057D01*
X149249646Y-111673595D01*
X148897508Y-111673595D01*
X148719317Y-111495404D01*
X148541125Y-111673595D01*
X148188987Y-111673595D01*
X148010796Y-111495404D01*
X147832604Y-111673595D01*
X147480466Y-111673595D01*
X147385512Y-111578641D01*
X147384863Y-111578910D01*
X147382017Y-111580008D01*
X147378000Y-111581444D01*
X147375122Y-111582395D01*
X147177944Y-111642209D01*
X147174994Y-111643024D01*
X147170851Y-111644061D01*
X147167896Y-111644724D01*
X147151761Y-111647933D01*
X147149323Y-111648355D01*
X147146611Y-111651067D01*
X146689174Y-111651067D01*
X146699921Y-111650008D01*
X146694269Y-111649452D01*
X146691260Y-111649081D01*
X146687034Y-111648455D01*
X146684025Y-111647933D01*
X146667890Y-111644724D01*
X146664935Y-111644061D01*
X146660792Y-111643024D01*
X146657842Y-111642209D01*
X146496033Y-111593124D01*
X146415562Y-111673595D01*
X146063424Y-111673595D01*
X145885233Y-111495404D01*
X145707041Y-111673595D01*
X145354903Y-111673595D01*
X145291393Y-111610085D01*
X145018393Y-111610085D01*
X145018393Y-111319334D01*
X145352780Y-111319334D01*
X145530972Y-111497526D01*
X145675840Y-111352657D01*
X146094624Y-111352657D01*
X146239492Y-111497525D01*
X146258533Y-111478484D01*
X146244606Y-111471040D01*
X146241925Y-111469521D01*
X146238264Y-111467323D01*
X146235727Y-111465716D01*
X146222049Y-111456577D01*
X146220963Y-111455812D01*
X147614821Y-111455812D01*
X147656535Y-111497526D01*
X147834726Y-111319334D01*
X148186864Y-111319334D01*
X148365056Y-111497526D01*
X148388688Y-111473894D01*
X149049945Y-111473894D01*
X149073577Y-111497526D01*
X149080745Y-111490357D01*
X149049945Y-111473894D01*
X148388688Y-111473894D01*
X148421842Y-111440740D01*
X150433833Y-111440740D01*
X150490619Y-111497526D01*
X150668810Y-111319334D01*
X151020948Y-111319334D01*
X151199140Y-111497526D01*
X151377331Y-111319334D01*
X151729469Y-111319334D01*
X151907661Y-111497526D01*
X152085851Y-111319335D01*
X152437991Y-111319335D01*
X152616182Y-111497526D01*
X152794372Y-111319335D01*
X153146512Y-111319335D01*
X153324703Y-111497526D01*
X153502893Y-111319335D01*
X153855033Y-111319335D01*
X154033224Y-111497526D01*
X154211415Y-111319334D01*
X154563553Y-111319334D01*
X154741745Y-111497526D01*
X154919936Y-111319334D01*
X155272074Y-111319334D01*
X155450266Y-111497526D01*
X155628457Y-111319334D01*
X155450266Y-111141143D01*
X155272074Y-111319334D01*
X154919936Y-111319334D01*
X154801833Y-111201231D01*
X154800180Y-111202028D01*
X154794216Y-111204631D01*
X154789894Y-111206327D01*
X154640247Y-111258692D01*
X154636651Y-111259829D01*
X154631560Y-111261270D01*
X154627906Y-111262185D01*
X154618690Y-111264197D01*
X154563553Y-111319334D01*
X154211415Y-111319334D01*
X154165581Y-111273500D01*
X153900868Y-111273500D01*
X153855033Y-111319335D01*
X153502893Y-111319335D01*
X153502894Y-111319334D01*
X153457060Y-111273500D01*
X153192347Y-111273500D01*
X153146512Y-111319335D01*
X152794372Y-111319335D01*
X152794373Y-111319334D01*
X152748539Y-111273500D01*
X152483826Y-111273500D01*
X152437991Y-111319335D01*
X152085851Y-111319335D01*
X152085852Y-111319334D01*
X151907866Y-111141348D01*
X151907629Y-111141173D01*
X151729469Y-111319334D01*
X151377331Y-111319334D01*
X151199140Y-111141143D01*
X151020948Y-111319334D01*
X150668810Y-111319334D01*
X150623509Y-111274033D01*
X150607598Y-111293421D01*
X150605630Y-111295704D01*
X150602763Y-111298870D01*
X150600645Y-111301096D01*
X150588989Y-111312752D01*
X150586763Y-111314870D01*
X150583597Y-111317737D01*
X150581314Y-111319705D01*
X150433833Y-111440740D01*
X148421842Y-111440740D01*
X148543247Y-111319334D01*
X148365056Y-111141143D01*
X148186864Y-111319334D01*
X147834726Y-111319334D01*
X147808145Y-111292753D01*
X147807598Y-111293421D01*
X147805630Y-111295704D01*
X147802763Y-111298870D01*
X147800645Y-111301096D01*
X147788989Y-111312752D01*
X147786763Y-111314870D01*
X147783597Y-111317737D01*
X147781314Y-111319705D01*
X147622059Y-111450403D01*
X147619683Y-111452258D01*
X147616252Y-111454805D01*
X147614821Y-111455812D01*
X146220963Y-111455812D01*
X146219534Y-111454805D01*
X146216103Y-111452258D01*
X146213727Y-111450403D01*
X146094624Y-111352657D01*
X145675840Y-111352657D01*
X145709163Y-111319334D01*
X145530972Y-111141143D01*
X145352780Y-111319334D01*
X145018393Y-111319334D01*
X145018393Y-110901564D01*
X145291393Y-110901564D01*
X145291393Y-111028584D01*
X145354903Y-110965074D01*
X145354902Y-110965073D01*
X145707041Y-110965073D01*
X145885232Y-111143264D01*
X145896104Y-111132391D01*
X145895635Y-111131790D01*
X145893088Y-111128359D01*
X145891316Y-111125844D01*
X145882177Y-111112166D01*
X145880570Y-111109629D01*
X145878372Y-111105968D01*
X145876853Y-111103288D01*
X145779712Y-110921550D01*
X145778344Y-110918832D01*
X145776517Y-110914968D01*
X145775281Y-110912179D01*
X145770787Y-110901327D01*
X145707041Y-110965073D01*
X145354902Y-110965073D01*
X145291393Y-110901564D01*
X145018393Y-110901564D01*
X145018393Y-110610813D01*
X145352780Y-110610813D01*
X145530972Y-110789005D01*
X145695563Y-110624413D01*
X145692591Y-110594241D01*
X145530972Y-110432622D01*
X145352780Y-110610813D01*
X145018393Y-110610813D01*
X145018393Y-110430000D01*
X145950736Y-110430000D01*
X145969319Y-110618681D01*
X145974178Y-110634699D01*
X146024356Y-110800115D01*
X146024357Y-110800118D01*
X146024358Y-110800119D01*
X146024359Y-110800122D01*
X146113727Y-110967318D01*
X146113731Y-110967325D01*
X146234009Y-111113883D01*
X146380567Y-111234161D01*
X146380574Y-111234165D01*
X146547770Y-111323533D01*
X146547771Y-111323533D01*
X146547778Y-111323537D01*
X146729210Y-111378573D01*
X146729209Y-111378573D01*
X146746126Y-111380239D01*
X146917893Y-111397157D01*
X147106576Y-111378573D01*
X147288008Y-111323537D01*
X147455217Y-111234162D01*
X147601776Y-111113883D01*
X147616828Y-111095542D01*
X147963073Y-111095542D01*
X148010796Y-111143265D01*
X148188987Y-110965074D01*
X148188986Y-110965073D01*
X148541125Y-110965073D01*
X148673997Y-111097946D01*
X148581431Y-110924767D01*
X148541125Y-110965073D01*
X148188986Y-110965073D01*
X148079796Y-110855883D01*
X148070288Y-110887229D01*
X148069337Y-110890107D01*
X148067901Y-110894124D01*
X148066803Y-110896970D01*
X148060505Y-110912179D01*
X148059269Y-110914968D01*
X148057442Y-110918832D01*
X148056074Y-110921550D01*
X147963073Y-111095542D01*
X147616828Y-111095542D01*
X147722055Y-110967324D01*
X147811430Y-110800115D01*
X147866466Y-110618683D01*
X147867241Y-110610813D01*
X148186864Y-110610813D01*
X148365056Y-110789005D01*
X148498659Y-110655401D01*
X148498441Y-110653625D01*
X148488867Y-110556433D01*
X148365056Y-110432622D01*
X148186864Y-110610813D01*
X147867241Y-110610813D01*
X147885050Y-110430000D01*
X148750736Y-110430000D01*
X148769319Y-110618681D01*
X148774178Y-110634699D01*
X148824356Y-110800115D01*
X148824357Y-110800118D01*
X148824358Y-110800119D01*
X148824359Y-110800122D01*
X148913727Y-110967318D01*
X148913731Y-110967325D01*
X149034009Y-111113883D01*
X149180567Y-111234161D01*
X149180574Y-111234165D01*
X149347770Y-111323533D01*
X149347771Y-111323533D01*
X149347778Y-111323537D01*
X149529210Y-111378573D01*
X149529209Y-111378573D01*
X149546126Y-111380239D01*
X149717893Y-111397157D01*
X149906576Y-111378573D01*
X150088008Y-111323537D01*
X150255217Y-111234162D01*
X150401776Y-111113883D01*
X150435056Y-111073331D01*
X150774945Y-111073331D01*
X150844879Y-111143265D01*
X151023071Y-110965074D01*
X151375209Y-110965074D01*
X151553400Y-111143265D01*
X151645596Y-111051068D01*
X155003808Y-111051068D01*
X155096005Y-111143265D01*
X155274197Y-110965074D01*
X155626335Y-110965074D01*
X155713995Y-111052734D01*
X155729240Y-110936927D01*
X155730038Y-110932119D01*
X155732569Y-110919387D01*
X155733679Y-110914636D01*
X155754506Y-110836903D01*
X155626335Y-110965074D01*
X155274197Y-110965074D01*
X155142392Y-110833269D01*
X155131327Y-110864894D01*
X155129631Y-110869216D01*
X155127028Y-110875180D01*
X155125019Y-110879352D01*
X155113301Y-110901525D01*
X155110995Y-110905521D01*
X155107533Y-110911035D01*
X155104907Y-110914890D01*
X155009356Y-111044355D01*
X155006469Y-111047976D01*
X155003808Y-111051068D01*
X151645596Y-111051068D01*
X151731591Y-110965073D01*
X151553401Y-110786883D01*
X151375209Y-110965074D01*
X151023071Y-110965074D01*
X150887729Y-110829732D01*
X150870288Y-110887229D01*
X150869337Y-110890107D01*
X150867901Y-110894124D01*
X150866803Y-110896970D01*
X150860505Y-110912179D01*
X150859269Y-110914968D01*
X150857442Y-110918832D01*
X150856074Y-110921550D01*
X150774945Y-111073331D01*
X150435056Y-111073331D01*
X150522055Y-110967324D01*
X150611430Y-110800115D01*
X150627087Y-110748500D01*
X151158635Y-110748500D01*
X151199140Y-110789005D01*
X151239645Y-110748500D01*
X151158635Y-110748500D01*
X150627087Y-110748500D01*
X150666466Y-110618683D01*
X150668171Y-110601370D01*
X150669553Y-110587344D01*
X150695715Y-110522558D01*
X150752750Y-110482199D01*
X150792956Y-110475500D01*
X151750500Y-110475500D01*
X151817539Y-110495185D01*
X151863294Y-110547989D01*
X151874500Y-110599500D01*
X151874500Y-110604269D01*
X151877353Y-110634699D01*
X151877353Y-110634701D01*
X151920373Y-110757641D01*
X151922207Y-110762882D01*
X152002850Y-110872150D01*
X152112118Y-110952793D01*
X152147215Y-110965074D01*
X152240299Y-110997646D01*
X152270730Y-111000500D01*
X152270734Y-111000500D01*
X154529270Y-111000500D01*
X154559699Y-110997646D01*
X154559701Y-110997646D01*
X154635192Y-110971230D01*
X154687882Y-110952793D01*
X154797150Y-110872150D01*
X154877793Y-110762882D01*
X154907613Y-110677661D01*
X154922646Y-110634701D01*
X154922646Y-110634699D01*
X154924886Y-110610813D01*
X155272074Y-110610813D01*
X155450266Y-110789005D01*
X155628457Y-110610813D01*
X155450266Y-110432622D01*
X155272074Y-110610813D01*
X154924886Y-110610813D01*
X154925500Y-110604269D01*
X154925500Y-110180856D01*
X155198500Y-110180856D01*
X155198500Y-110332250D01*
X155274197Y-110256553D01*
X155626335Y-110256553D01*
X155804526Y-110434744D01*
X155982718Y-110256553D01*
X155804526Y-110078361D01*
X155626335Y-110256553D01*
X155274197Y-110256553D01*
X155198500Y-110180856D01*
X154925500Y-110180856D01*
X154925500Y-109902292D01*
X155272074Y-109902292D01*
X155450266Y-110080484D01*
X155628457Y-109902292D01*
X155980595Y-109902292D01*
X156158787Y-110080484D01*
X156336978Y-109902292D01*
X156158787Y-109724101D01*
X155980595Y-109902292D01*
X155628457Y-109902292D01*
X155450266Y-109724101D01*
X155272074Y-109902292D01*
X154925500Y-109902292D01*
X154925500Y-109695730D01*
X154922646Y-109665300D01*
X154922646Y-109665298D01*
X154881612Y-109548032D01*
X154877793Y-109537118D01*
X154797150Y-109427850D01*
X154720396Y-109371203D01*
X155094643Y-109371203D01*
X155104907Y-109385110D01*
X155107533Y-109388965D01*
X155110995Y-109394479D01*
X155113301Y-109398475D01*
X155125019Y-109420648D01*
X155127028Y-109424820D01*
X155129631Y-109430784D01*
X155131327Y-109435106D01*
X155183692Y-109584753D01*
X155184829Y-109588349D01*
X155186270Y-109593440D01*
X155187185Y-109597094D01*
X155191530Y-109616991D01*
X155192218Y-109620670D01*
X155193032Y-109625893D01*
X155193398Y-109628831D01*
X155274197Y-109548032D01*
X155626335Y-109548032D01*
X155804526Y-109726223D01*
X155982718Y-109548032D01*
X156334856Y-109548032D01*
X156513047Y-109726223D01*
X156691239Y-109548032D01*
X157043377Y-109548032D01*
X157076507Y-109581162D01*
X157082121Y-109580046D01*
X157086929Y-109579248D01*
X157224574Y-109561129D01*
X157268673Y-109435106D01*
X157270369Y-109430784D01*
X157272972Y-109424820D01*
X157274134Y-109422406D01*
X157221568Y-109369840D01*
X157043377Y-109548032D01*
X156691239Y-109548032D01*
X156513047Y-109369840D01*
X156334856Y-109548032D01*
X155982718Y-109548032D01*
X155804526Y-109369840D01*
X155626335Y-109548032D01*
X155274197Y-109548032D01*
X155096005Y-109369840D01*
X155094643Y-109371203D01*
X154720396Y-109371203D01*
X154687882Y-109347207D01*
X154687880Y-109347206D01*
X154559700Y-109302353D01*
X154529270Y-109299500D01*
X154529266Y-109299500D01*
X152270734Y-109299500D01*
X152270730Y-109299500D01*
X152240300Y-109302353D01*
X152240298Y-109302353D01*
X152112119Y-109347206D01*
X152112117Y-109347207D01*
X152002850Y-109427850D01*
X151922207Y-109537117D01*
X151922206Y-109537119D01*
X151877353Y-109665298D01*
X151877353Y-109665300D01*
X151874500Y-109695730D01*
X151874500Y-109700500D01*
X151854815Y-109767539D01*
X151802011Y-109813294D01*
X151750500Y-109824500D01*
X150524751Y-109824500D01*
X150457712Y-109804815D01*
X150428901Y-109779169D01*
X150401776Y-109746117D01*
X150400269Y-109744880D01*
X150255218Y-109625838D01*
X150255211Y-109625834D01*
X150109653Y-109548032D01*
X150666689Y-109548032D01*
X150670157Y-109551500D01*
X151019603Y-109551500D01*
X151023071Y-109548032D01*
X151375210Y-109548032D01*
X151378678Y-109551500D01*
X151627944Y-109551500D01*
X151655710Y-109472150D01*
X151553401Y-109369841D01*
X151375210Y-109548032D01*
X151023071Y-109548032D01*
X150844880Y-109369841D01*
X150666689Y-109548032D01*
X150109653Y-109548032D01*
X150088015Y-109536466D01*
X150088012Y-109536465D01*
X150088011Y-109536464D01*
X150088008Y-109536463D01*
X149906576Y-109481427D01*
X149906574Y-109481426D01*
X149906576Y-109481426D01*
X149717893Y-109462843D01*
X149529211Y-109481426D01*
X149422087Y-109513921D01*
X149347778Y-109536463D01*
X149347775Y-109536464D01*
X149347773Y-109536465D01*
X149347770Y-109536466D01*
X149180574Y-109625834D01*
X149180567Y-109625838D01*
X149034009Y-109746116D01*
X148913731Y-109892674D01*
X148913727Y-109892681D01*
X148824359Y-110059877D01*
X148824358Y-110059880D01*
X148824357Y-110059882D01*
X148824356Y-110059885D01*
X148817467Y-110082595D01*
X148769319Y-110241318D01*
X148750736Y-110430000D01*
X147885050Y-110430000D01*
X147866466Y-110241317D01*
X147855360Y-110204704D01*
X148137138Y-110204704D01*
X148137345Y-110206376D01*
X148146474Y-110299065D01*
X148188987Y-110256553D01*
X148137138Y-110204704D01*
X147855360Y-110204704D01*
X147818317Y-110082591D01*
X147817695Y-110012728D01*
X147849294Y-109958923D01*
X147853354Y-109954863D01*
X148239435Y-109954863D01*
X148365056Y-110080484D01*
X148543247Y-109902292D01*
X148423338Y-109782383D01*
X148301346Y-109892951D01*
X148277261Y-109917038D01*
X148239435Y-109954863D01*
X147853354Y-109954863D01*
X148084223Y-109723996D01*
X148111988Y-109696232D01*
X148114164Y-109694158D01*
X148190513Y-109624959D01*
X148618052Y-109624959D01*
X148707152Y-109714059D01*
X148828188Y-109566579D01*
X148830156Y-109564296D01*
X148833023Y-109561130D01*
X148835141Y-109558904D01*
X148846797Y-109547248D01*
X148849023Y-109545130D01*
X148852189Y-109542264D01*
X148854471Y-109540296D01*
X148873859Y-109524383D01*
X148832266Y-109482790D01*
X148714849Y-109553169D01*
X148618052Y-109624959D01*
X148190513Y-109624959D01*
X148326707Y-109501520D01*
X148331401Y-109497669D01*
X148353302Y-109481426D01*
X148516592Y-109360322D01*
X149061936Y-109360322D01*
X149073576Y-109371962D01*
X149106105Y-109339432D01*
X149061936Y-109360322D01*
X148516592Y-109360322D01*
X148560565Y-109327709D01*
X148565606Y-109324341D01*
X148783447Y-109193772D01*
X149603907Y-109193772D01*
X149609347Y-109199212D01*
X149699327Y-109190350D01*
X149702374Y-109190126D01*
X149706640Y-109189917D01*
X149709671Y-109189843D01*
X149726115Y-109189843D01*
X149729146Y-109189917D01*
X149733412Y-109190126D01*
X149736459Y-109190350D01*
X149941517Y-109210548D01*
X149943293Y-109210767D01*
X149960289Y-109193771D01*
X150312427Y-109193771D01*
X150490619Y-109371963D01*
X150668809Y-109193772D01*
X151020949Y-109193772D01*
X151199140Y-109371963D01*
X151377331Y-109193771D01*
X151729469Y-109193771D01*
X151790954Y-109255256D01*
X151793531Y-109252024D01*
X151797776Y-109247091D01*
X151800935Y-109243685D01*
X151818685Y-109225935D01*
X151822091Y-109222776D01*
X151827024Y-109218531D01*
X151830645Y-109215644D01*
X151860281Y-109193771D01*
X155272074Y-109193771D01*
X155450266Y-109371963D01*
X155628457Y-109193771D01*
X155980595Y-109193771D01*
X156158787Y-109371963D01*
X156336978Y-109193771D01*
X156689116Y-109193771D01*
X156867308Y-109371963D01*
X157045499Y-109193771D01*
X157397637Y-109193771D01*
X157424537Y-109220671D01*
X157427024Y-109218531D01*
X157430645Y-109215644D01*
X157560110Y-109120093D01*
X157563965Y-109117467D01*
X157569479Y-109114005D01*
X157573475Y-109111699D01*
X157595648Y-109099981D01*
X157599820Y-109097972D01*
X157605784Y-109095369D01*
X157610106Y-109093673D01*
X157642564Y-109082315D01*
X157586749Y-109026500D01*
X158273430Y-109026500D01*
X158295270Y-109026500D01*
X158284350Y-109015580D01*
X158273430Y-109026500D01*
X157586749Y-109026500D01*
X157575829Y-109015580D01*
X157397637Y-109193771D01*
X157045499Y-109193771D01*
X156867308Y-109015580D01*
X156689116Y-109193771D01*
X156336978Y-109193771D01*
X156158787Y-109015580D01*
X155980595Y-109193771D01*
X155628457Y-109193771D01*
X155450266Y-109015580D01*
X155272074Y-109193771D01*
X151860281Y-109193771D01*
X151960110Y-109120093D01*
X151963965Y-109117467D01*
X151969479Y-109114005D01*
X151973475Y-109111699D01*
X151993301Y-109101220D01*
X151953030Y-109060949D01*
X154696376Y-109060949D01*
X154789894Y-109093673D01*
X154794216Y-109095369D01*
X154800180Y-109097972D01*
X154804352Y-109099981D01*
X154826525Y-109111699D01*
X154830521Y-109114005D01*
X154836035Y-109117467D01*
X154839890Y-109120093D01*
X154864199Y-109138034D01*
X154741745Y-109015580D01*
X154696376Y-109060949D01*
X151953030Y-109060949D01*
X151918581Y-109026500D01*
X152605262Y-109026500D01*
X152627102Y-109026500D01*
X153313783Y-109026500D01*
X153335623Y-109026500D01*
X154022304Y-109026500D01*
X154044144Y-109026500D01*
X154033224Y-109015580D01*
X154022304Y-109026500D01*
X153335623Y-109026500D01*
X153324703Y-109015580D01*
X153313783Y-109026500D01*
X152627102Y-109026500D01*
X152616182Y-109015580D01*
X152605262Y-109026500D01*
X151918581Y-109026500D01*
X151907661Y-109015580D01*
X151729469Y-109193771D01*
X151377331Y-109193771D01*
X151258692Y-109075132D01*
X151124464Y-109090255D01*
X151020949Y-109193772D01*
X150668809Y-109193772D01*
X150668810Y-109193771D01*
X150573539Y-109098500D01*
X150407699Y-109098500D01*
X150312427Y-109193771D01*
X149960289Y-109193771D01*
X149887374Y-109120856D01*
X149686674Y-109150627D01*
X149633810Y-109163868D01*
X149603907Y-109193772D01*
X148783447Y-109193772D01*
X148810331Y-109177658D01*
X148815665Y-109174807D01*
X149073591Y-109052817D01*
X149079199Y-109050494D01*
X149347826Y-108954379D01*
X149353649Y-108952613D01*
X149630411Y-108883287D01*
X149636350Y-108882106D01*
X149912623Y-108841126D01*
X152085346Y-108841126D01*
X152261922Y-109017702D01*
X152440113Y-108839511D01*
X152792251Y-108839511D01*
X152970443Y-109017702D01*
X153148634Y-108839511D01*
X153500772Y-108839511D01*
X153678964Y-109017702D01*
X153857155Y-108839511D01*
X154209293Y-108839511D01*
X154387485Y-109017702D01*
X154565676Y-108839511D01*
X154917814Y-108839511D01*
X155096005Y-109017702D01*
X155274197Y-108839511D01*
X155626335Y-108839511D01*
X155804526Y-109017702D01*
X155982718Y-108839511D01*
X156334856Y-108839511D01*
X156513047Y-109017702D01*
X156691239Y-108839511D01*
X157043377Y-108839511D01*
X157221568Y-109017702D01*
X157399760Y-108839511D01*
X157751898Y-108839511D01*
X157930089Y-109017702D01*
X158108281Y-108839511D01*
X158460419Y-108839511D01*
X158594393Y-108973485D01*
X158594393Y-108705537D01*
X158460419Y-108839511D01*
X158108281Y-108839511D01*
X157930089Y-108661319D01*
X157751898Y-108839511D01*
X157399760Y-108839511D01*
X157221568Y-108661319D01*
X157043377Y-108839511D01*
X156691239Y-108839511D01*
X156513047Y-108661319D01*
X156334856Y-108839511D01*
X155982718Y-108839511D01*
X155804526Y-108661319D01*
X155626335Y-108839511D01*
X155274197Y-108839511D01*
X155096005Y-108661319D01*
X154917814Y-108839511D01*
X154565676Y-108839511D01*
X154387485Y-108661320D01*
X154209293Y-108839511D01*
X153857155Y-108839511D01*
X153678964Y-108661320D01*
X153500772Y-108839511D01*
X153148634Y-108839511D01*
X152970443Y-108661320D01*
X152792251Y-108839511D01*
X152440113Y-108839511D01*
X152323087Y-108722485D01*
X152303039Y-108735083D01*
X152299437Y-108737206D01*
X152289718Y-108742577D01*
X152286006Y-108744496D01*
X152085346Y-108841126D01*
X149912623Y-108841126D01*
X149918569Y-108840244D01*
X149924615Y-108839650D01*
X150211137Y-108825575D01*
X150214179Y-108825500D01*
X150919428Y-108825500D01*
X150919496Y-108825497D01*
X151036004Y-108825497D01*
X151036004Y-108825496D01*
X151247999Y-108801610D01*
X151329542Y-108792423D01*
X151329543Y-108792422D01*
X151329549Y-108792422D01*
X151617548Y-108726689D01*
X151896377Y-108629123D01*
X151984671Y-108586603D01*
X152539343Y-108586603D01*
X152616182Y-108663442D01*
X152777676Y-108501947D01*
X153163208Y-108501947D01*
X153324703Y-108663442D01*
X153502894Y-108485250D01*
X153855032Y-108485250D01*
X154033224Y-108663442D01*
X154211415Y-108485250D01*
X154563553Y-108485250D01*
X154741745Y-108663442D01*
X154909942Y-108495244D01*
X155282068Y-108495244D01*
X155450266Y-108663442D01*
X155628457Y-108485250D01*
X155980595Y-108485250D01*
X156158787Y-108663442D01*
X156336977Y-108485251D01*
X156689117Y-108485251D01*
X156867308Y-108663442D01*
X156958394Y-108572356D01*
X156949526Y-108572473D01*
X156909441Y-108563954D01*
X157476341Y-108563954D01*
X157575829Y-108663442D01*
X157754020Y-108485250D01*
X158106158Y-108485250D01*
X158284350Y-108663442D01*
X158462541Y-108485250D01*
X158284350Y-108307059D01*
X158106158Y-108485250D01*
X157754020Y-108485250D01*
X157735979Y-108467209D01*
X157575552Y-108538637D01*
X157572534Y-108539887D01*
X157568281Y-108541518D01*
X157565243Y-108542593D01*
X157548559Y-108548015D01*
X157545445Y-108548937D01*
X157541042Y-108550117D01*
X157537881Y-108550876D01*
X157476341Y-108563954D01*
X156909441Y-108563954D01*
X156847905Y-108550876D01*
X156844744Y-108550117D01*
X156840341Y-108548937D01*
X156837227Y-108548015D01*
X156820535Y-108542590D01*
X156817481Y-108541509D01*
X156813230Y-108539877D01*
X156810228Y-108538634D01*
X156689489Y-108484878D01*
X156689117Y-108485251D01*
X156336977Y-108485251D01*
X156336978Y-108485250D01*
X156158787Y-108307059D01*
X155980595Y-108485250D01*
X155628457Y-108485250D01*
X155572648Y-108429441D01*
X155453425Y-108471159D01*
X155450085Y-108472223D01*
X155445392Y-108473573D01*
X155442049Y-108474435D01*
X155423725Y-108478616D01*
X155420316Y-108479295D01*
X155415504Y-108480112D01*
X155412059Y-108480599D01*
X155282068Y-108495244D01*
X154909942Y-108495244D01*
X154919936Y-108485250D01*
X154891572Y-108456886D01*
X154744324Y-108405362D01*
X154741068Y-108404119D01*
X154736559Y-108402250D01*
X154733393Y-108400833D01*
X154716445Y-108392672D01*
X154713342Y-108391069D01*
X154709069Y-108388706D01*
X154706083Y-108386945D01*
X154678924Y-108369879D01*
X154563553Y-108485250D01*
X154211415Y-108485250D01*
X154033224Y-108307059D01*
X153855032Y-108485250D01*
X153502894Y-108485250D01*
X153479632Y-108461988D01*
X153453426Y-108471159D01*
X153450085Y-108472223D01*
X153445392Y-108473573D01*
X153442049Y-108474435D01*
X153423725Y-108478616D01*
X153420316Y-108479295D01*
X153415504Y-108480112D01*
X153412059Y-108480599D01*
X153214121Y-108502900D01*
X153210669Y-108503192D01*
X153205796Y-108503467D01*
X153202304Y-108503565D01*
X153183482Y-108503565D01*
X153179990Y-108503467D01*
X153175116Y-108503192D01*
X153171664Y-108502900D01*
X153163208Y-108501947D01*
X152777676Y-108501947D01*
X152794373Y-108485250D01*
X152740579Y-108431456D01*
X152578546Y-108560674D01*
X152575205Y-108563191D01*
X152566116Y-108569640D01*
X152562645Y-108571962D01*
X152539343Y-108586603D01*
X151984671Y-108586603D01*
X152076059Y-108542593D01*
X152162522Y-108500955D01*
X152162522Y-108500954D01*
X152162528Y-108500952D01*
X152412656Y-108343787D01*
X152643613Y-108159605D01*
X152656183Y-108147035D01*
X152717505Y-108113548D01*
X152787197Y-108118530D01*
X152809840Y-108129720D01*
X152843368Y-108150788D01*
X153013638Y-108210368D01*
X153013643Y-108210369D01*
X153192889Y-108230565D01*
X153192893Y-108230565D01*
X153192897Y-108230565D01*
X153372142Y-108210369D01*
X153372145Y-108210368D01*
X153372148Y-108210368D01*
X153542415Y-108150789D01*
X153573926Y-108130989D01*
X154209293Y-108130989D01*
X154387484Y-108309181D01*
X154387895Y-108308770D01*
X155804115Y-108308770D01*
X155804526Y-108309181D01*
X155806327Y-108307380D01*
X155804115Y-108308770D01*
X154387895Y-108308770D01*
X154473199Y-108223465D01*
X154363378Y-108113644D01*
X154360972Y-108111097D01*
X154357721Y-108107457D01*
X154355495Y-108104819D01*
X154343778Y-108090128D01*
X154341692Y-108087356D01*
X154338866Y-108083375D01*
X154336927Y-108080474D01*
X154307169Y-108033114D01*
X154209293Y-108130989D01*
X153573926Y-108130989D01*
X153695155Y-108054816D01*
X153822709Y-107927262D01*
X153918682Y-107774522D01*
X153978261Y-107604255D01*
X153979323Y-107594836D01*
X153987191Y-107525000D01*
X153993393Y-107469954D01*
X153993393Y-106830046D01*
X153985073Y-106756202D01*
X153978262Y-106695750D01*
X153978261Y-106695745D01*
X153977579Y-106693796D01*
X153918682Y-106525478D01*
X153918094Y-106524543D01*
X153863044Y-106436931D01*
X153822709Y-106372738D01*
X153695155Y-106245184D01*
X153643368Y-106212644D01*
X153606427Y-106189432D01*
X154025286Y-106189432D01*
X154028065Y-106192543D01*
X154030291Y-106195181D01*
X154042008Y-106209872D01*
X154044094Y-106212644D01*
X154046920Y-106216625D01*
X154048859Y-106219526D01*
X154154838Y-106388191D01*
X154156599Y-106391176D01*
X154158962Y-106395449D01*
X154160565Y-106398552D01*
X154164460Y-106406641D01*
X154211415Y-106359687D01*
X154033223Y-106181495D01*
X154025286Y-106189432D01*
X153606427Y-106189432D01*
X153542416Y-106149211D01*
X153372147Y-106089631D01*
X153372142Y-106089630D01*
X153192897Y-106069435D01*
X153192889Y-106069435D01*
X153013643Y-106089630D01*
X153013638Y-106089631D01*
X152843369Y-106149211D01*
X152690630Y-106245184D01*
X152563077Y-106372737D01*
X152467104Y-106525476D01*
X152407524Y-106695745D01*
X152407523Y-106695750D01*
X152392393Y-106830039D01*
X152392393Y-107438810D01*
X152372708Y-107505849D01*
X152356076Y-107526490D01*
X152324185Y-107558381D01*
X152288967Y-107593598D01*
X152286441Y-107595987D01*
X152124842Y-107740401D01*
X152119401Y-107744740D01*
X151944080Y-107869134D01*
X151938189Y-107872836D01*
X151750043Y-107976821D01*
X151743774Y-107979840D01*
X151545171Y-108062104D01*
X151538603Y-108064402D01*
X151332035Y-108123912D01*
X151325252Y-108125460D01*
X151113322Y-108161469D01*
X151106407Y-108162248D01*
X150889976Y-108174402D01*
X150886499Y-108174500D01*
X150181388Y-108174500D01*
X150181344Y-108174502D01*
X150034760Y-108174502D01*
X149940847Y-108183751D01*
X149680785Y-108209363D01*
X149680767Y-108209366D01*
X149331928Y-108278752D01*
X149331917Y-108278755D01*
X148991522Y-108382012D01*
X148662897Y-108518133D01*
X148662892Y-108518135D01*
X148349212Y-108685801D01*
X148349194Y-108685812D01*
X148053456Y-108883418D01*
X148053442Y-108883428D01*
X147778494Y-109109072D01*
X147778493Y-109109073D01*
X147670169Y-109217396D01*
X147628188Y-109259379D01*
X147388972Y-109498594D01*
X147327649Y-109532079D01*
X147265297Y-109529574D01*
X147106576Y-109481427D01*
X147106574Y-109481426D01*
X147106576Y-109481426D01*
X146917893Y-109462843D01*
X146729211Y-109481426D01*
X146622087Y-109513921D01*
X146547778Y-109536463D01*
X146547775Y-109536464D01*
X146547773Y-109536465D01*
X146547770Y-109536466D01*
X146380574Y-109625834D01*
X146380567Y-109625838D01*
X146234009Y-109746116D01*
X146113731Y-109892674D01*
X146113727Y-109892681D01*
X146024359Y-110059877D01*
X146024358Y-110059880D01*
X146024357Y-110059882D01*
X146024356Y-110059885D01*
X146017467Y-110082595D01*
X145969319Y-110241318D01*
X145950736Y-110430000D01*
X145018393Y-110430000D01*
X145018393Y-110193043D01*
X145291393Y-110193043D01*
X145291393Y-110320063D01*
X145354903Y-110256553D01*
X145291393Y-110193043D01*
X145018393Y-110193043D01*
X145018393Y-109902292D01*
X145352780Y-109902292D01*
X145530972Y-110080484D01*
X145709163Y-109902292D01*
X145530972Y-109724101D01*
X145352780Y-109902292D01*
X145018393Y-109902292D01*
X145018393Y-109484522D01*
X145291393Y-109484522D01*
X145291393Y-109611542D01*
X145354903Y-109548032D01*
X145707041Y-109548032D01*
X145885232Y-109726223D01*
X145951808Y-109659646D01*
X146028188Y-109566579D01*
X146030157Y-109564296D01*
X146033023Y-109561130D01*
X146035141Y-109558904D01*
X146046797Y-109547248D01*
X146049023Y-109545130D01*
X146052189Y-109542264D01*
X146054471Y-109540295D01*
X146055138Y-109539746D01*
X145931785Y-109416393D01*
X145838681Y-109416393D01*
X145707041Y-109548032D01*
X145354903Y-109548032D01*
X145291393Y-109484522D01*
X145018393Y-109484522D01*
X145018393Y-109267393D01*
X145038078Y-109200354D01*
X145050208Y-109189843D01*
X146924641Y-109189843D01*
X146926115Y-109189843D01*
X146929146Y-109189917D01*
X146933412Y-109190126D01*
X146936459Y-109190350D01*
X147112305Y-109207670D01*
X147126205Y-109193771D01*
X147032909Y-109100475D01*
X146937784Y-109180296D01*
X146932619Y-109184258D01*
X146924641Y-109189843D01*
X145050208Y-109189843D01*
X145090882Y-109154599D01*
X145142393Y-109143393D01*
X146192393Y-109143393D01*
X146192893Y-109143393D01*
X146280426Y-109143394D01*
X146452831Y-109112995D01*
X146617339Y-109053120D01*
X146768950Y-108965588D01*
X146824128Y-108919288D01*
X147203860Y-108919288D01*
X147302275Y-109017702D01*
X147480466Y-108839511D01*
X147341465Y-108700510D01*
X147247683Y-108862949D01*
X147244192Y-108868429D01*
X147234258Y-108882619D01*
X147230296Y-108887784D01*
X147203860Y-108919288D01*
X146824128Y-108919288D01*
X146903058Y-108853058D01*
X147015588Y-108718950D01*
X147103120Y-108567339D01*
X147132997Y-108485250D01*
X147478343Y-108485250D01*
X147656535Y-108663442D01*
X147834726Y-108485250D01*
X147786984Y-108437508D01*
X148234607Y-108437508D01*
X148404627Y-108346630D01*
X148365056Y-108307059D01*
X148234607Y-108437508D01*
X147786984Y-108437508D01*
X147656535Y-108307059D01*
X147478343Y-108485250D01*
X147132997Y-108485250D01*
X147162995Y-108402831D01*
X147193394Y-108230426D01*
X147193393Y-108142893D01*
X147193393Y-108142393D01*
X147193393Y-108116917D01*
X147466393Y-108116917D01*
X147466393Y-108145063D01*
X147480466Y-108130990D01*
X147832604Y-108130990D01*
X148010796Y-108309181D01*
X148188987Y-108130990D01*
X148541125Y-108130990D01*
X148641597Y-108231462D01*
X148891556Y-108127927D01*
X148893641Y-108127123D01*
X148754930Y-107988412D01*
X149392224Y-107988412D01*
X149451634Y-107976595D01*
X149427838Y-107952799D01*
X149392224Y-107988412D01*
X148754930Y-107988412D01*
X148719317Y-107952799D01*
X148541125Y-108130990D01*
X148188987Y-108130990D01*
X148010796Y-107952799D01*
X147832604Y-108130990D01*
X147480466Y-108130990D01*
X147466393Y-108116917D01*
X147193393Y-108116917D01*
X147193393Y-107776729D01*
X147478343Y-107776729D01*
X147656535Y-107954921D01*
X147834726Y-107776729D01*
X148186864Y-107776729D01*
X148365056Y-107954921D01*
X148543247Y-107776729D01*
X148895385Y-107776729D01*
X149073577Y-107954921D01*
X149251768Y-107776729D01*
X149603906Y-107776729D01*
X149754918Y-107927741D01*
X149815214Y-107921802D01*
X149960289Y-107776729D01*
X150312427Y-107776729D01*
X150437198Y-107901500D01*
X150544040Y-107901500D01*
X150668810Y-107776729D01*
X151020948Y-107776729D01*
X151126529Y-107882310D01*
X151267840Y-107858300D01*
X151307056Y-107847002D01*
X151377331Y-107776729D01*
X151199140Y-107598538D01*
X151020948Y-107776729D01*
X150668810Y-107776729D01*
X150490619Y-107598538D01*
X150312427Y-107776729D01*
X149960289Y-107776729D01*
X149782098Y-107598538D01*
X149603906Y-107776729D01*
X149251768Y-107776729D01*
X149073577Y-107598538D01*
X148895385Y-107776729D01*
X148543247Y-107776729D01*
X148365056Y-107598538D01*
X148186864Y-107776729D01*
X147834726Y-107776729D01*
X147656535Y-107598538D01*
X147478343Y-107776729D01*
X147193393Y-107776729D01*
X147193393Y-107408396D01*
X147466393Y-107408396D01*
X147466393Y-107436542D01*
X147480466Y-107422469D01*
X147832604Y-107422469D01*
X148010796Y-107600660D01*
X148188987Y-107422469D01*
X148541125Y-107422469D01*
X148719317Y-107600660D01*
X148897508Y-107422469D01*
X149249646Y-107422469D01*
X149427838Y-107600660D01*
X149606029Y-107422469D01*
X149958167Y-107422469D01*
X150136359Y-107600660D01*
X150314550Y-107422469D01*
X150666688Y-107422469D01*
X150844880Y-107600660D01*
X151023071Y-107422469D01*
X151375209Y-107422469D01*
X151553401Y-107600660D01*
X151731592Y-107422469D01*
X151553401Y-107244278D01*
X151375209Y-107422469D01*
X151023071Y-107422469D01*
X150844880Y-107244278D01*
X150666688Y-107422469D01*
X150314550Y-107422469D01*
X150136359Y-107244278D01*
X149958167Y-107422469D01*
X149606029Y-107422469D01*
X149427838Y-107244278D01*
X149249646Y-107422469D01*
X148897508Y-107422469D01*
X148719317Y-107244278D01*
X148541125Y-107422469D01*
X148188987Y-107422469D01*
X148010796Y-107244278D01*
X147832604Y-107422469D01*
X147480466Y-107422469D01*
X147466393Y-107408396D01*
X147193393Y-107408396D01*
X147193393Y-107068208D01*
X147478343Y-107068208D01*
X147656535Y-107246400D01*
X147834726Y-107068208D01*
X148186864Y-107068208D01*
X148365056Y-107246400D01*
X148543247Y-107068208D01*
X148895385Y-107068208D01*
X149073577Y-107246400D01*
X149251768Y-107068208D01*
X149603906Y-107068208D01*
X149782098Y-107246400D01*
X149960289Y-107068208D01*
X150312427Y-107068208D01*
X150490619Y-107246400D01*
X150668810Y-107068208D01*
X151020948Y-107068208D01*
X151199140Y-107246400D01*
X151377331Y-107068208D01*
X151729469Y-107068208D01*
X151907661Y-107246400D01*
X152085852Y-107068208D01*
X151907661Y-106890017D01*
X151729469Y-107068208D01*
X151377331Y-107068208D01*
X151199140Y-106890017D01*
X151020948Y-107068208D01*
X150668810Y-107068208D01*
X150490619Y-106890017D01*
X150312427Y-107068208D01*
X149960289Y-107068208D01*
X149782098Y-106890017D01*
X149603906Y-107068208D01*
X149251768Y-107068208D01*
X149073577Y-106890017D01*
X148895385Y-107068208D01*
X148543247Y-107068208D01*
X148365056Y-106890017D01*
X148186864Y-107068208D01*
X147834726Y-107068208D01*
X147656535Y-106890017D01*
X147478343Y-107068208D01*
X147193393Y-107068208D01*
X147193393Y-106713948D01*
X147832605Y-106713948D01*
X148010796Y-106892139D01*
X148188987Y-106713948D01*
X148541125Y-106713948D01*
X148719317Y-106892139D01*
X148897508Y-106713948D01*
X149249646Y-106713948D01*
X149427838Y-106892139D01*
X149606029Y-106713948D01*
X149958167Y-106713948D01*
X150136359Y-106892139D01*
X150314550Y-106713948D01*
X150666688Y-106713948D01*
X150844880Y-106892139D01*
X151023071Y-106713948D01*
X151375209Y-106713948D01*
X151553401Y-106892139D01*
X151731592Y-106713948D01*
X152083731Y-106713948D01*
X152125985Y-106756202D01*
X152136716Y-106660962D01*
X152083731Y-106713948D01*
X151731592Y-106713948D01*
X151553401Y-106535757D01*
X151375209Y-106713948D01*
X151023071Y-106713948D01*
X150844880Y-106535757D01*
X150666688Y-106713948D01*
X150314550Y-106713948D01*
X150136359Y-106535757D01*
X149958167Y-106713948D01*
X149606029Y-106713948D01*
X149427838Y-106535757D01*
X149249646Y-106713948D01*
X148897508Y-106713948D01*
X148719317Y-106535757D01*
X148541125Y-106713948D01*
X148188987Y-106713948D01*
X148073365Y-106598326D01*
X147890999Y-106686149D01*
X147885899Y-106688371D01*
X147872081Y-106693796D01*
X147866811Y-106695639D01*
X147843824Y-106702728D01*
X147832605Y-106713948D01*
X147193393Y-106713948D01*
X147193393Y-106667407D01*
X147213078Y-106600368D01*
X147265882Y-106554613D01*
X147308355Y-106545646D01*
X147308214Y-106543754D01*
X147312828Y-106543407D01*
X147312835Y-106543408D01*
X147312935Y-106543393D01*
X147550034Y-106507657D01*
X147550035Y-106507656D01*
X147550039Y-106507656D01*
X147696158Y-106462585D01*
X148289762Y-106462585D01*
X148365056Y-106537879D01*
X148543247Y-106359687D01*
X148895385Y-106359687D01*
X149073577Y-106537879D01*
X149251768Y-106359687D01*
X149603906Y-106359687D01*
X149782098Y-106537879D01*
X149960289Y-106359687D01*
X150312427Y-106359687D01*
X150490619Y-106537879D01*
X150668810Y-106359687D01*
X151020948Y-106359687D01*
X151199140Y-106537879D01*
X151377331Y-106359687D01*
X151729469Y-106359687D01*
X151907661Y-106537879D01*
X152085852Y-106359687D01*
X151907661Y-106181496D01*
X151729469Y-106359687D01*
X151377331Y-106359687D01*
X151199140Y-106181496D01*
X151020948Y-106359687D01*
X150668810Y-106359687D01*
X150490619Y-106181496D01*
X150312427Y-106359687D01*
X149960289Y-106359687D01*
X149782098Y-106181496D01*
X149603906Y-106359687D01*
X149251768Y-106359687D01*
X149073577Y-106181496D01*
X148895385Y-106359687D01*
X148543247Y-106359687D01*
X148484133Y-106300573D01*
X148373833Y-106402917D01*
X148369610Y-106406551D01*
X148358014Y-106415798D01*
X148353528Y-106419111D01*
X148289762Y-106462585D01*
X147696158Y-106462585D01*
X147779266Y-106436950D01*
X147995393Y-106332869D01*
X148193595Y-106197738D01*
X148280495Y-106117107D01*
X148652806Y-106117107D01*
X148719317Y-106183618D01*
X148897508Y-106005427D01*
X149249646Y-106005427D01*
X149427838Y-106183618D01*
X149606029Y-106005427D01*
X149958167Y-106005427D01*
X150136359Y-106183618D01*
X150314550Y-106005427D01*
X150666688Y-106005427D01*
X150844880Y-106183618D01*
X151023071Y-106005427D01*
X151375209Y-106005427D01*
X151553401Y-106183618D01*
X151731592Y-106005427D01*
X152083730Y-106005427D01*
X152261922Y-106183618D01*
X152440113Y-106005427D01*
X152321573Y-105886887D01*
X153619312Y-105886887D01*
X153641462Y-105894638D01*
X153644718Y-105895881D01*
X153649227Y-105897750D01*
X153652393Y-105899167D01*
X153669341Y-105907328D01*
X153672444Y-105908931D01*
X153676717Y-105911294D01*
X153679702Y-105913055D01*
X153845407Y-106017174D01*
X153857153Y-106005427D01*
X154209293Y-106005427D01*
X154376800Y-106172933D01*
X154504249Y-106045485D01*
X154506796Y-106043079D01*
X154510436Y-106039828D01*
X154513074Y-106037602D01*
X154527765Y-106025885D01*
X154530537Y-106023799D01*
X154534518Y-106020973D01*
X154537418Y-106019035D01*
X154563128Y-106002879D01*
X154387485Y-105827236D01*
X154209293Y-106005427D01*
X153857153Y-106005427D01*
X153857154Y-106005426D01*
X153678963Y-105827235D01*
X153619312Y-105886887D01*
X152321573Y-105886887D01*
X152261922Y-105827236D01*
X152083730Y-106005427D01*
X151731592Y-106005427D01*
X151553401Y-105827236D01*
X151375209Y-106005427D01*
X151023071Y-106005427D01*
X150844880Y-105827236D01*
X150666688Y-106005427D01*
X150314550Y-106005427D01*
X150136359Y-105827236D01*
X149958167Y-106005427D01*
X149606029Y-106005427D01*
X149427838Y-105827236D01*
X149249646Y-106005427D01*
X148897508Y-106005427D01*
X148799420Y-105907339D01*
X148751720Y-105989958D01*
X148748758Y-105994672D01*
X148740413Y-106006913D01*
X148737103Y-106011404D01*
X148652806Y-106117107D01*
X148280495Y-106117107D01*
X148369442Y-106034576D01*
X148519008Y-105847028D01*
X148618750Y-105674270D01*
X148918489Y-105674270D01*
X149073577Y-105829358D01*
X149251768Y-105651166D01*
X149603906Y-105651166D01*
X149782098Y-105829358D01*
X149960289Y-105651166D01*
X150312427Y-105651166D01*
X150490619Y-105829358D01*
X150668810Y-105651166D01*
X151020948Y-105651166D01*
X151199140Y-105829358D01*
X151377331Y-105651166D01*
X151729469Y-105651166D01*
X151907661Y-105829358D01*
X152085852Y-105651166D01*
X152437990Y-105651166D01*
X152616182Y-105829358D01*
X152794373Y-105651166D01*
X153146511Y-105651166D01*
X153302389Y-105807044D01*
X153342495Y-105811563D01*
X153502894Y-105651166D01*
X153855032Y-105651166D01*
X154033224Y-105829358D01*
X154211415Y-105651166D01*
X154563553Y-105651166D01*
X154741745Y-105829358D01*
X154919936Y-105651166D01*
X155272074Y-105651166D01*
X155448119Y-105827211D01*
X155450085Y-105827777D01*
X155451420Y-105828201D01*
X155628457Y-105651166D01*
X155450266Y-105472975D01*
X155272074Y-105651166D01*
X154919936Y-105651166D01*
X154741745Y-105472975D01*
X154563553Y-105651166D01*
X154211415Y-105651166D01*
X154033224Y-105472975D01*
X153855032Y-105651166D01*
X153502894Y-105651166D01*
X153324703Y-105472975D01*
X153146511Y-105651166D01*
X152794373Y-105651166D01*
X152616182Y-105472975D01*
X152437990Y-105651166D01*
X152085852Y-105651166D01*
X151907661Y-105472975D01*
X151729469Y-105651166D01*
X151377331Y-105651166D01*
X151199140Y-105472975D01*
X151020948Y-105651166D01*
X150668810Y-105651166D01*
X150490619Y-105472975D01*
X150312427Y-105651166D01*
X149960289Y-105651166D01*
X149782098Y-105472975D01*
X149603906Y-105651166D01*
X149251768Y-105651166D01*
X149073576Y-105472974D01*
X148948340Y-105598210D01*
X148918489Y-105674270D01*
X148618750Y-105674270D01*
X148638950Y-105639283D01*
X148726589Y-105415982D01*
X148753767Y-105296906D01*
X149249646Y-105296906D01*
X149427838Y-105475097D01*
X149606029Y-105296906D01*
X149958167Y-105296906D01*
X150136359Y-105475097D01*
X150314550Y-105296906D01*
X150666688Y-105296906D01*
X150844880Y-105475097D01*
X151023071Y-105296906D01*
X151375209Y-105296906D01*
X151553401Y-105475097D01*
X151731592Y-105296906D01*
X152083730Y-105296906D01*
X152261922Y-105475097D01*
X152440113Y-105296906D01*
X152792251Y-105296906D01*
X152970443Y-105475097D01*
X153148634Y-105296906D01*
X153500772Y-105296906D01*
X153678964Y-105475097D01*
X153857155Y-105296906D01*
X154209293Y-105296906D01*
X154387485Y-105475097D01*
X154565676Y-105296906D01*
X154917814Y-105296906D01*
X155096005Y-105475097D01*
X155274197Y-105296906D01*
X155626335Y-105296906D01*
X155804526Y-105475097D01*
X155982718Y-105296906D01*
X156334856Y-105296906D01*
X156383160Y-105345210D01*
X156442482Y-105313502D01*
X156445754Y-105311855D01*
X156454550Y-105307695D01*
X156457888Y-105306214D01*
X156570545Y-105259549D01*
X159914817Y-105259549D01*
X160149231Y-105344873D01*
X160160238Y-105349432D01*
X160174614Y-105356135D01*
X160233844Y-105296906D01*
X160585982Y-105296906D01*
X160764173Y-105475097D01*
X160942365Y-105296906D01*
X161294503Y-105296906D01*
X161472694Y-105475097D01*
X161650886Y-105296906D01*
X162003024Y-105296906D01*
X162181215Y-105475097D01*
X162359407Y-105296906D01*
X162711545Y-105296906D01*
X162889736Y-105475097D01*
X163067928Y-105296906D01*
X162889736Y-105118714D01*
X162711545Y-105296906D01*
X162359407Y-105296906D01*
X162181215Y-105118714D01*
X162003024Y-105296906D01*
X161650886Y-105296906D01*
X161472694Y-105118714D01*
X161294503Y-105296906D01*
X160942365Y-105296906D01*
X160764173Y-105118714D01*
X160585982Y-105296906D01*
X160233844Y-105296906D01*
X160055652Y-105118714D01*
X159914817Y-105259549D01*
X156570545Y-105259549D01*
X156629473Y-105235140D01*
X156513047Y-105118714D01*
X156334856Y-105296906D01*
X155982718Y-105296906D01*
X155804526Y-105118714D01*
X155626335Y-105296906D01*
X155274197Y-105296906D01*
X155096005Y-105118714D01*
X154917814Y-105296906D01*
X154565676Y-105296906D01*
X154387485Y-105118715D01*
X154209293Y-105296906D01*
X153857155Y-105296906D01*
X153678964Y-105118715D01*
X153500772Y-105296906D01*
X153148634Y-105296906D01*
X152970443Y-105118715D01*
X152792251Y-105296906D01*
X152440113Y-105296906D01*
X152261922Y-105118715D01*
X152083730Y-105296906D01*
X151731592Y-105296906D01*
X151553401Y-105118715D01*
X151375209Y-105296906D01*
X151023071Y-105296906D01*
X150844880Y-105118715D01*
X150666688Y-105296906D01*
X150314550Y-105296906D01*
X150136359Y-105118715D01*
X149958167Y-105296906D01*
X149606029Y-105296906D01*
X149427838Y-105118715D01*
X149249646Y-105296906D01*
X148753767Y-105296906D01*
X148779968Y-105182113D01*
X148784720Y-105118714D01*
X148797895Y-104942903D01*
X148797895Y-104942896D01*
X148785588Y-104778678D01*
X149059353Y-104778678D01*
X149070686Y-104929900D01*
X149070895Y-104935469D01*
X149070895Y-104950331D01*
X149070686Y-104955900D01*
X149059388Y-105106648D01*
X149073577Y-105120837D01*
X149251768Y-104942645D01*
X149603906Y-104942645D01*
X149782098Y-105120837D01*
X149960289Y-104942645D01*
X150312427Y-104942645D01*
X150490619Y-105120837D01*
X150668810Y-104942645D01*
X151020948Y-104942645D01*
X151199140Y-105120837D01*
X151377331Y-104942645D01*
X151729469Y-104942645D01*
X151907661Y-105120837D01*
X152085852Y-104942645D01*
X152437990Y-104942645D01*
X152616182Y-105120837D01*
X152794373Y-104942645D01*
X153146511Y-104942645D01*
X153324703Y-105120837D01*
X153502894Y-104942645D01*
X153855032Y-104942645D01*
X154033224Y-105120837D01*
X154211415Y-104942645D01*
X154563553Y-104942645D01*
X154741745Y-105120837D01*
X154919936Y-104942645D01*
X155272074Y-104942645D01*
X155450266Y-105120837D01*
X155628457Y-104942645D01*
X155980595Y-104942645D01*
X156158787Y-105120837D01*
X156336978Y-104942645D01*
X156689116Y-104942645D01*
X156867307Y-105120836D01*
X157045499Y-104942645D01*
X157397637Y-104942645D01*
X157476488Y-105021496D01*
X157671026Y-105002337D01*
X157674670Y-105002069D01*
X157684405Y-105001590D01*
X157688063Y-105001501D01*
X157695165Y-105001501D01*
X157754020Y-104942645D01*
X158106158Y-104942645D01*
X158165013Y-105001500D01*
X158403687Y-105001500D01*
X158462541Y-104942645D01*
X158814679Y-104942645D01*
X158900066Y-105028032D01*
X158990258Y-105035924D01*
X159002068Y-105037478D01*
X159065111Y-105048594D01*
X159171062Y-104942645D01*
X159523200Y-104942645D01*
X159701392Y-105120837D01*
X159879583Y-104942645D01*
X160231721Y-104942645D01*
X160409913Y-105120837D01*
X160588104Y-104942645D01*
X160940242Y-104942645D01*
X161118434Y-105120837D01*
X161296625Y-104942645D01*
X161648763Y-104942645D01*
X161826955Y-105120837D01*
X162005146Y-104942645D01*
X162357284Y-104942645D01*
X162535476Y-105120837D01*
X162713667Y-104942645D01*
X163065805Y-104942645D01*
X163243997Y-105120837D01*
X163321667Y-105043166D01*
X163315128Y-104955899D01*
X163314919Y-104950331D01*
X163314919Y-104935469D01*
X163315128Y-104929901D01*
X163321702Y-104842159D01*
X163243997Y-104764454D01*
X163065805Y-104942645D01*
X162713667Y-104942645D01*
X162535476Y-104764454D01*
X162357284Y-104942645D01*
X162005146Y-104942645D01*
X161826955Y-104764454D01*
X161648763Y-104942645D01*
X161296625Y-104942645D01*
X161118434Y-104764454D01*
X160940242Y-104942645D01*
X160588104Y-104942645D01*
X160409913Y-104764454D01*
X160231721Y-104942645D01*
X159879583Y-104942645D01*
X159701392Y-104764454D01*
X159523200Y-104942645D01*
X159171062Y-104942645D01*
X158992871Y-104764454D01*
X158814679Y-104942645D01*
X158462541Y-104942645D01*
X158284350Y-104764454D01*
X158106158Y-104942645D01*
X157754020Y-104942645D01*
X157575829Y-104764454D01*
X157397637Y-104942645D01*
X157045499Y-104942645D01*
X156867308Y-104764454D01*
X156689116Y-104942645D01*
X156336978Y-104942645D01*
X156158787Y-104764454D01*
X155980595Y-104942645D01*
X155628457Y-104942645D01*
X155450266Y-104764454D01*
X155272074Y-104942645D01*
X154919936Y-104942645D01*
X154741745Y-104764454D01*
X154563553Y-104942645D01*
X154211415Y-104942645D01*
X154033224Y-104764454D01*
X153855032Y-104942645D01*
X153502894Y-104942645D01*
X153324703Y-104764454D01*
X153146511Y-104942645D01*
X152794373Y-104942645D01*
X152616182Y-104764454D01*
X152437990Y-104942645D01*
X152085852Y-104942645D01*
X151907661Y-104764454D01*
X151729469Y-104942645D01*
X151377331Y-104942645D01*
X151199140Y-104764454D01*
X151020948Y-104942645D01*
X150668810Y-104942645D01*
X150490619Y-104764454D01*
X150312427Y-104942645D01*
X149960289Y-104942645D01*
X149782098Y-104764454D01*
X149603906Y-104942645D01*
X149251768Y-104942645D01*
X149073577Y-104764454D01*
X149059353Y-104778678D01*
X148785588Y-104778678D01*
X148779969Y-104703695D01*
X148779968Y-104703691D01*
X148779968Y-104703690D01*
X148779968Y-104703687D01*
X148753651Y-104588385D01*
X149249646Y-104588385D01*
X149427838Y-104766576D01*
X149606029Y-104588385D01*
X149958167Y-104588385D01*
X150136359Y-104766576D01*
X150314550Y-104588385D01*
X150666688Y-104588385D01*
X150844880Y-104766576D01*
X151023071Y-104588385D01*
X151375209Y-104588385D01*
X151553401Y-104766576D01*
X151731592Y-104588385D01*
X152083730Y-104588385D01*
X152261922Y-104766576D01*
X152440113Y-104588385D01*
X152792251Y-104588385D01*
X152970443Y-104766576D01*
X153148634Y-104588385D01*
X153500772Y-104588385D01*
X153678964Y-104766576D01*
X153857155Y-104588385D01*
X154209293Y-104588385D01*
X154387485Y-104766576D01*
X154565676Y-104588385D01*
X154917814Y-104588385D01*
X155096005Y-104766576D01*
X155274197Y-104588385D01*
X155626335Y-104588385D01*
X155804526Y-104766576D01*
X155982718Y-104588385D01*
X156334856Y-104588385D01*
X156513047Y-104766576D01*
X156691239Y-104588385D01*
X157043377Y-104588385D01*
X157221568Y-104766576D01*
X157399760Y-104588385D01*
X157751898Y-104588385D01*
X157930089Y-104766576D01*
X158108281Y-104588385D01*
X158460419Y-104588385D01*
X158638610Y-104766576D01*
X158816802Y-104588385D01*
X159168940Y-104588385D01*
X159347131Y-104766576D01*
X159525323Y-104588385D01*
X159877461Y-104588385D01*
X160055652Y-104766576D01*
X160233844Y-104588385D01*
X160585982Y-104588385D01*
X160764173Y-104766576D01*
X160942365Y-104588385D01*
X161294503Y-104588385D01*
X161472694Y-104766576D01*
X161650886Y-104588385D01*
X162003024Y-104588385D01*
X162181215Y-104766576D01*
X162359407Y-104588385D01*
X162711545Y-104588385D01*
X162889736Y-104766576D01*
X163067928Y-104588385D01*
X162889736Y-104410193D01*
X162711545Y-104588385D01*
X162359407Y-104588385D01*
X162181215Y-104410193D01*
X162003024Y-104588385D01*
X161650886Y-104588385D01*
X161472694Y-104410193D01*
X161294503Y-104588385D01*
X160942365Y-104588385D01*
X160764173Y-104410193D01*
X160585982Y-104588385D01*
X160233844Y-104588385D01*
X160055652Y-104410193D01*
X159877461Y-104588385D01*
X159525323Y-104588385D01*
X159347131Y-104410193D01*
X159168940Y-104588385D01*
X158816802Y-104588385D01*
X158638610Y-104410193D01*
X158460419Y-104588385D01*
X158108281Y-104588385D01*
X157930089Y-104410193D01*
X157751898Y-104588385D01*
X157399760Y-104588385D01*
X157221568Y-104410193D01*
X157043377Y-104588385D01*
X156691239Y-104588385D01*
X156513047Y-104410193D01*
X156334856Y-104588385D01*
X155982718Y-104588385D01*
X155804526Y-104410193D01*
X155626335Y-104588385D01*
X155274197Y-104588385D01*
X155096005Y-104410193D01*
X154917814Y-104588385D01*
X154565676Y-104588385D01*
X154387485Y-104410194D01*
X154209293Y-104588385D01*
X153857155Y-104588385D01*
X153678964Y-104410194D01*
X153500772Y-104588385D01*
X153148634Y-104588385D01*
X152970443Y-104410194D01*
X152792251Y-104588385D01*
X152440113Y-104588385D01*
X152261922Y-104410194D01*
X152083730Y-104588385D01*
X151731592Y-104588385D01*
X151553401Y-104410194D01*
X151375209Y-104588385D01*
X151023071Y-104588385D01*
X150844880Y-104410194D01*
X150666688Y-104588385D01*
X150314550Y-104588385D01*
X150136359Y-104410194D01*
X149958167Y-104588385D01*
X149606029Y-104588385D01*
X149427838Y-104410194D01*
X149249646Y-104588385D01*
X148753651Y-104588385D01*
X148726589Y-104469818D01*
X148638950Y-104246517D01*
X148618538Y-104211163D01*
X148918346Y-104211163D01*
X148948011Y-104286750D01*
X149073577Y-104412316D01*
X149251768Y-104234124D01*
X149603906Y-104234124D01*
X149782098Y-104412316D01*
X149960289Y-104234124D01*
X150312427Y-104234124D01*
X150490619Y-104412316D01*
X150668810Y-104234124D01*
X151020948Y-104234124D01*
X151199140Y-104412316D01*
X151377331Y-104234124D01*
X151729469Y-104234124D01*
X151907661Y-104412316D01*
X152085852Y-104234124D01*
X152437990Y-104234124D01*
X152616182Y-104412316D01*
X152794373Y-104234124D01*
X153146511Y-104234124D01*
X153324703Y-104412316D01*
X153502894Y-104234124D01*
X153855032Y-104234124D01*
X154033224Y-104412316D01*
X154211415Y-104234124D01*
X154563553Y-104234124D01*
X154741745Y-104412316D01*
X154919936Y-104234124D01*
X155272074Y-104234124D01*
X155450266Y-104412316D01*
X155628457Y-104234124D01*
X155980595Y-104234124D01*
X156158787Y-104412316D01*
X156336978Y-104234124D01*
X156689116Y-104234124D01*
X156867308Y-104412316D01*
X157045499Y-104234124D01*
X157397637Y-104234124D01*
X157575829Y-104412316D01*
X157754020Y-104234124D01*
X158106158Y-104234124D01*
X158284350Y-104412316D01*
X158462541Y-104234124D01*
X158814679Y-104234124D01*
X158992871Y-104412316D01*
X159171062Y-104234124D01*
X159523200Y-104234124D01*
X159701392Y-104412316D01*
X159879583Y-104234124D01*
X160231721Y-104234124D01*
X160409913Y-104412316D01*
X160588104Y-104234124D01*
X160940242Y-104234124D01*
X161118434Y-104412316D01*
X161296625Y-104234124D01*
X161648763Y-104234124D01*
X161826955Y-104412316D01*
X162005146Y-104234124D01*
X162357284Y-104234124D01*
X162535476Y-104412316D01*
X162713667Y-104234124D01*
X163065805Y-104234124D01*
X163243997Y-104412316D01*
X163422188Y-104234124D01*
X163243997Y-104055933D01*
X163065805Y-104234124D01*
X162713667Y-104234124D01*
X162535476Y-104055933D01*
X162357284Y-104234124D01*
X162005146Y-104234124D01*
X161826955Y-104055933D01*
X161648763Y-104234124D01*
X161296625Y-104234124D01*
X161118434Y-104055933D01*
X160940242Y-104234124D01*
X160588104Y-104234124D01*
X160409913Y-104055933D01*
X160231721Y-104234124D01*
X159879583Y-104234124D01*
X159701392Y-104055933D01*
X159523200Y-104234124D01*
X159171062Y-104234124D01*
X158992871Y-104055933D01*
X158814679Y-104234124D01*
X158462541Y-104234124D01*
X158284350Y-104055933D01*
X158106158Y-104234124D01*
X157754020Y-104234124D01*
X157575829Y-104055933D01*
X157397637Y-104234124D01*
X157045499Y-104234124D01*
X156867308Y-104055933D01*
X156689116Y-104234124D01*
X156336978Y-104234124D01*
X156158787Y-104055933D01*
X155980595Y-104234124D01*
X155628457Y-104234124D01*
X155450266Y-104055933D01*
X155272074Y-104234124D01*
X154919936Y-104234124D01*
X154741745Y-104055933D01*
X154563553Y-104234124D01*
X154211415Y-104234124D01*
X154033224Y-104055933D01*
X153855032Y-104234124D01*
X153502894Y-104234124D01*
X153324703Y-104055933D01*
X153146511Y-104234124D01*
X152794373Y-104234124D01*
X152616182Y-104055933D01*
X152437990Y-104234124D01*
X152085852Y-104234124D01*
X151907661Y-104055933D01*
X151729469Y-104234124D01*
X151377331Y-104234124D01*
X151199140Y-104055933D01*
X151020948Y-104234124D01*
X150668810Y-104234124D01*
X150490619Y-104055933D01*
X150312427Y-104234124D01*
X149960289Y-104234124D01*
X149782098Y-104055933D01*
X149603906Y-104234124D01*
X149251768Y-104234124D01*
X149073577Y-104055933D01*
X148918346Y-104211163D01*
X148618538Y-104211163D01*
X148519008Y-104038772D01*
X148391475Y-103878852D01*
X148369444Y-103851226D01*
X148321106Y-103806375D01*
X148280187Y-103768408D01*
X148652580Y-103768408D01*
X148737103Y-103874396D01*
X148740413Y-103878887D01*
X148748758Y-103891128D01*
X148751720Y-103895842D01*
X148799234Y-103978137D01*
X148897508Y-103879864D01*
X149249646Y-103879864D01*
X149427838Y-104058055D01*
X149606029Y-103879864D01*
X149958167Y-103879864D01*
X150136359Y-104058055D01*
X150314550Y-103879864D01*
X150666688Y-103879864D01*
X150844880Y-104058055D01*
X151023071Y-103879864D01*
X151375209Y-103879864D01*
X151553401Y-104058055D01*
X151731592Y-103879864D01*
X152083730Y-103879864D01*
X152261922Y-104058055D01*
X152440113Y-103879864D01*
X152792251Y-103879864D01*
X152970443Y-104058055D01*
X153148634Y-103879864D01*
X153500772Y-103879864D01*
X153678964Y-104058055D01*
X153857155Y-103879864D01*
X154209293Y-103879864D01*
X154387485Y-104058055D01*
X154565676Y-103879864D01*
X154917814Y-103879864D01*
X155096005Y-104058055D01*
X155274197Y-103879864D01*
X155626335Y-103879864D01*
X155804526Y-104058055D01*
X155982718Y-103879864D01*
X156334856Y-103879864D01*
X156513047Y-104058055D01*
X156691239Y-103879864D01*
X157043377Y-103879864D01*
X157221568Y-104058055D01*
X157399760Y-103879864D01*
X157751898Y-103879864D01*
X157930089Y-104058055D01*
X158108281Y-103879864D01*
X158460419Y-103879864D01*
X158638610Y-104058055D01*
X158816802Y-103879864D01*
X159168940Y-103879864D01*
X159347131Y-104058055D01*
X159525323Y-103879864D01*
X159877461Y-103879864D01*
X160055652Y-104058055D01*
X160233844Y-103879864D01*
X160585982Y-103879864D01*
X160764173Y-104058055D01*
X160942365Y-103879864D01*
X161294503Y-103879864D01*
X161472694Y-104058055D01*
X161650886Y-103879864D01*
X162003024Y-103879864D01*
X162181215Y-104058055D01*
X162359407Y-103879864D01*
X162711545Y-103879864D01*
X162889736Y-104058055D01*
X163067928Y-103879864D01*
X163420066Y-103879864D01*
X163561603Y-104021401D01*
X163634089Y-103895853D01*
X163637053Y-103891137D01*
X163645428Y-103878852D01*
X163648740Y-103874367D01*
X163702960Y-103806375D01*
X163598257Y-103701672D01*
X163420066Y-103879864D01*
X163067928Y-103879864D01*
X162889736Y-103701672D01*
X162711545Y-103879864D01*
X162359407Y-103879864D01*
X162181215Y-103701672D01*
X162003024Y-103879864D01*
X161650886Y-103879864D01*
X161472694Y-103701672D01*
X161294503Y-103879864D01*
X160942365Y-103879864D01*
X160764173Y-103701672D01*
X160585982Y-103879864D01*
X160233844Y-103879864D01*
X160055652Y-103701672D01*
X159877461Y-103879864D01*
X159525323Y-103879864D01*
X159347131Y-103701672D01*
X159168940Y-103879864D01*
X158816802Y-103879864D01*
X158638610Y-103701672D01*
X158460419Y-103879864D01*
X158108281Y-103879864D01*
X157930089Y-103701672D01*
X157751898Y-103879864D01*
X157399760Y-103879864D01*
X157221568Y-103701672D01*
X157043377Y-103879864D01*
X156691239Y-103879864D01*
X156513047Y-103701672D01*
X156334856Y-103879864D01*
X155982718Y-103879864D01*
X155804526Y-103701672D01*
X155626335Y-103879864D01*
X155274197Y-103879864D01*
X155096005Y-103701672D01*
X154917814Y-103879864D01*
X154565676Y-103879864D01*
X154387485Y-103701673D01*
X154209293Y-103879864D01*
X153857155Y-103879864D01*
X153678964Y-103701673D01*
X153500772Y-103879864D01*
X153148634Y-103879864D01*
X152970443Y-103701673D01*
X152792251Y-103879864D01*
X152440113Y-103879864D01*
X152261922Y-103701673D01*
X152083730Y-103879864D01*
X151731592Y-103879864D01*
X151553401Y-103701673D01*
X151375209Y-103879864D01*
X151023071Y-103879864D01*
X150844880Y-103701673D01*
X150666688Y-103879864D01*
X150314550Y-103879864D01*
X150136359Y-103701673D01*
X149958167Y-103879864D01*
X149606029Y-103879864D01*
X149427838Y-103701673D01*
X149249646Y-103879864D01*
X148897508Y-103879864D01*
X148719316Y-103701672D01*
X148652580Y-103768408D01*
X148280187Y-103768408D01*
X148193595Y-103688062D01*
X147995393Y-103552931D01*
X147995385Y-103552926D01*
X147779271Y-103448852D01*
X147779252Y-103448845D01*
X147695489Y-103423008D01*
X148289459Y-103423008D01*
X148353528Y-103466689D01*
X148358014Y-103470002D01*
X148369610Y-103479249D01*
X148373833Y-103482883D01*
X148483868Y-103584980D01*
X148543247Y-103525603D01*
X148895385Y-103525603D01*
X149073577Y-103703795D01*
X149251768Y-103525603D01*
X149603906Y-103525603D01*
X149782098Y-103703795D01*
X149960289Y-103525603D01*
X150312427Y-103525603D01*
X150490619Y-103703795D01*
X150668810Y-103525603D01*
X151020948Y-103525603D01*
X151199140Y-103703795D01*
X151377331Y-103525603D01*
X151729469Y-103525603D01*
X151907661Y-103703795D01*
X152085852Y-103525603D01*
X152437990Y-103525603D01*
X152616182Y-103703795D01*
X152794373Y-103525603D01*
X153146511Y-103525603D01*
X153324703Y-103703795D01*
X153502894Y-103525603D01*
X153855032Y-103525603D01*
X154033224Y-103703795D01*
X154211415Y-103525603D01*
X154563553Y-103525603D01*
X154741745Y-103703795D01*
X154919936Y-103525603D01*
X155272074Y-103525603D01*
X155450266Y-103703795D01*
X155628457Y-103525603D01*
X155980595Y-103525603D01*
X156158787Y-103703795D01*
X156336978Y-103525603D01*
X156689116Y-103525603D01*
X156867308Y-103703795D01*
X157045499Y-103525603D01*
X157397637Y-103525603D01*
X157575829Y-103703795D01*
X157754020Y-103525603D01*
X158106158Y-103525603D01*
X158284350Y-103703795D01*
X158462541Y-103525603D01*
X158814679Y-103525603D01*
X158992871Y-103703795D01*
X159171062Y-103525603D01*
X159523200Y-103525603D01*
X159701392Y-103703795D01*
X159879583Y-103525603D01*
X160231721Y-103525603D01*
X160409913Y-103703795D01*
X160588104Y-103525603D01*
X160940242Y-103525603D01*
X161118434Y-103703795D01*
X161296625Y-103525603D01*
X161648763Y-103525603D01*
X161826955Y-103703795D01*
X162005146Y-103525603D01*
X162357284Y-103525603D01*
X162535476Y-103703795D01*
X162713667Y-103525603D01*
X163065805Y-103525603D01*
X163243997Y-103703795D01*
X163422188Y-103525603D01*
X163774326Y-103525603D01*
X163866550Y-103617827D01*
X164011975Y-103482894D01*
X164016195Y-103479265D01*
X164027784Y-103470021D01*
X164032272Y-103466707D01*
X164055783Y-103450677D01*
X163952518Y-103347412D01*
X163774326Y-103525603D01*
X163422188Y-103525603D01*
X163243997Y-103347412D01*
X163065805Y-103525603D01*
X162713667Y-103525603D01*
X162535476Y-103347412D01*
X162357284Y-103525603D01*
X162005146Y-103525603D01*
X161826955Y-103347412D01*
X161648763Y-103525603D01*
X161296625Y-103525603D01*
X161118434Y-103347412D01*
X160940242Y-103525603D01*
X160588104Y-103525603D01*
X160409913Y-103347412D01*
X160231721Y-103525603D01*
X159879583Y-103525603D01*
X159701392Y-103347412D01*
X159523200Y-103525603D01*
X159171062Y-103525603D01*
X158992871Y-103347412D01*
X158814679Y-103525603D01*
X158462541Y-103525603D01*
X158284350Y-103347412D01*
X158106158Y-103525603D01*
X157754020Y-103525603D01*
X157575829Y-103347412D01*
X157397637Y-103525603D01*
X157045499Y-103525603D01*
X156867308Y-103347412D01*
X156689116Y-103525603D01*
X156336978Y-103525603D01*
X156158787Y-103347412D01*
X155980595Y-103525603D01*
X155628457Y-103525603D01*
X155450266Y-103347412D01*
X155272074Y-103525603D01*
X154919936Y-103525603D01*
X154741745Y-103347412D01*
X154563553Y-103525603D01*
X154211415Y-103525603D01*
X154033224Y-103347412D01*
X153855032Y-103525603D01*
X153502894Y-103525603D01*
X153324703Y-103347412D01*
X153146511Y-103525603D01*
X152794373Y-103525603D01*
X152616182Y-103347412D01*
X152437990Y-103525603D01*
X152085852Y-103525603D01*
X151907661Y-103347412D01*
X151729469Y-103525603D01*
X151377331Y-103525603D01*
X151199140Y-103347412D01*
X151020948Y-103525603D01*
X150668810Y-103525603D01*
X150490619Y-103347412D01*
X150312427Y-103525603D01*
X149960289Y-103525603D01*
X149782098Y-103347412D01*
X149603906Y-103525603D01*
X149251768Y-103525603D01*
X149073577Y-103347412D01*
X148895385Y-103525603D01*
X148543247Y-103525603D01*
X148365056Y-103347412D01*
X148289459Y-103423008D01*
X147695489Y-103423008D01*
X147550044Y-103378145D01*
X147550034Y-103378142D01*
X147312842Y-103342392D01*
X147308214Y-103342046D01*
X147308386Y-103339747D01*
X147250354Y-103322707D01*
X147204599Y-103269903D01*
X147193393Y-103218392D01*
X147193393Y-103171343D01*
X147832605Y-103171343D01*
X147844559Y-103183297D01*
X147866812Y-103190162D01*
X147872081Y-103192004D01*
X147885899Y-103197429D01*
X147890999Y-103199651D01*
X148073021Y-103287308D01*
X148188987Y-103171343D01*
X148541125Y-103171343D01*
X148719317Y-103349534D01*
X148897508Y-103171343D01*
X149249646Y-103171343D01*
X149427838Y-103349534D01*
X149606029Y-103171343D01*
X149958167Y-103171343D01*
X150136359Y-103349534D01*
X150314550Y-103171343D01*
X150666688Y-103171343D01*
X150844880Y-103349534D01*
X151023071Y-103171343D01*
X151375209Y-103171343D01*
X151553401Y-103349534D01*
X151731592Y-103171343D01*
X152083730Y-103171343D01*
X152261922Y-103349534D01*
X152440113Y-103171343D01*
X152792251Y-103171343D01*
X152970443Y-103349534D01*
X153148634Y-103171343D01*
X153500772Y-103171343D01*
X153678964Y-103349534D01*
X153857155Y-103171343D01*
X154209293Y-103171343D01*
X154387485Y-103349534D01*
X154565676Y-103171343D01*
X154917814Y-103171343D01*
X155096005Y-103349534D01*
X155274197Y-103171343D01*
X155626335Y-103171343D01*
X155804526Y-103349534D01*
X155982718Y-103171343D01*
X156334856Y-103171343D01*
X156513047Y-103349534D01*
X156691239Y-103171343D01*
X157043377Y-103171343D01*
X157221568Y-103349534D01*
X157399760Y-103171343D01*
X157751898Y-103171343D01*
X157930089Y-103349534D01*
X158108281Y-103171343D01*
X158460419Y-103171343D01*
X158638610Y-103349534D01*
X158816802Y-103171343D01*
X159168940Y-103171343D01*
X159347131Y-103349534D01*
X159525323Y-103171343D01*
X159877461Y-103171343D01*
X160055652Y-103349534D01*
X160233844Y-103171343D01*
X160585982Y-103171343D01*
X160764173Y-103349534D01*
X160942365Y-103171343D01*
X161294503Y-103171343D01*
X161472694Y-103349534D01*
X161650886Y-103171343D01*
X162003024Y-103171343D01*
X162181215Y-103349534D01*
X162359407Y-103171343D01*
X162711545Y-103171343D01*
X162889736Y-103349534D01*
X163067928Y-103171343D01*
X163420066Y-103171343D01*
X163598257Y-103349534D01*
X163776449Y-103171343D01*
X164128587Y-103171343D01*
X164266739Y-103309495D01*
X164421204Y-103235107D01*
X164484969Y-103171342D01*
X164403170Y-103089543D01*
X164918908Y-103089543D01*
X164919393Y-103089470D01*
X164919393Y-103089058D01*
X164918908Y-103089543D01*
X164403170Y-103089543D01*
X164306778Y-102993151D01*
X164128587Y-103171343D01*
X163776449Y-103171343D01*
X163598257Y-102993151D01*
X163420066Y-103171343D01*
X163067928Y-103171343D01*
X162889736Y-102993151D01*
X162711545Y-103171343D01*
X162359407Y-103171343D01*
X162181215Y-102993151D01*
X162003024Y-103171343D01*
X161650886Y-103171343D01*
X161472694Y-102993151D01*
X161294503Y-103171343D01*
X160942365Y-103171343D01*
X160764173Y-102993151D01*
X160585982Y-103171343D01*
X160233844Y-103171343D01*
X160055652Y-102993151D01*
X159877461Y-103171343D01*
X159525323Y-103171343D01*
X159347131Y-102993151D01*
X159168940Y-103171343D01*
X158816802Y-103171343D01*
X158638610Y-102993151D01*
X158460419Y-103171343D01*
X158108281Y-103171343D01*
X157930089Y-102993151D01*
X157751898Y-103171343D01*
X157399760Y-103171343D01*
X157221568Y-102993151D01*
X157043377Y-103171343D01*
X156691239Y-103171343D01*
X156513047Y-102993151D01*
X156334856Y-103171343D01*
X155982718Y-103171343D01*
X155804526Y-102993151D01*
X155626335Y-103171343D01*
X155274197Y-103171343D01*
X155096005Y-102993151D01*
X154917814Y-103171343D01*
X154565676Y-103171343D01*
X154387485Y-102993152D01*
X154209293Y-103171343D01*
X153857155Y-103171343D01*
X153678964Y-102993152D01*
X153500772Y-103171343D01*
X153148634Y-103171343D01*
X152970443Y-102993152D01*
X152792251Y-103171343D01*
X152440113Y-103171343D01*
X152261922Y-102993152D01*
X152083730Y-103171343D01*
X151731592Y-103171343D01*
X151553401Y-102993152D01*
X151375209Y-103171343D01*
X151023071Y-103171343D01*
X150844880Y-102993152D01*
X150666688Y-103171343D01*
X150314550Y-103171343D01*
X150136359Y-102993152D01*
X149958167Y-103171343D01*
X149606029Y-103171343D01*
X149427838Y-102993152D01*
X149249646Y-103171343D01*
X148897508Y-103171343D01*
X148719317Y-102993152D01*
X148541125Y-103171343D01*
X148188987Y-103171343D01*
X148010796Y-102993152D01*
X147832605Y-103171343D01*
X147193393Y-103171343D01*
X147193393Y-102817082D01*
X147478343Y-102817082D01*
X147656535Y-102995274D01*
X147834726Y-102817082D01*
X148186864Y-102817082D01*
X148365056Y-102995274D01*
X148543247Y-102817082D01*
X148895385Y-102817082D01*
X149073577Y-102995274D01*
X149251768Y-102817082D01*
X149603906Y-102817082D01*
X149782098Y-102995274D01*
X149960289Y-102817082D01*
X150312427Y-102817082D01*
X150490619Y-102995274D01*
X150668810Y-102817082D01*
X151020948Y-102817082D01*
X151199140Y-102995274D01*
X151377331Y-102817082D01*
X151729469Y-102817082D01*
X151907661Y-102995274D01*
X152085852Y-102817082D01*
X152437990Y-102817082D01*
X152616182Y-102995274D01*
X152794373Y-102817082D01*
X153146511Y-102817082D01*
X153324703Y-102995274D01*
X153502894Y-102817082D01*
X153855032Y-102817082D01*
X154033224Y-102995274D01*
X154211415Y-102817082D01*
X154563553Y-102817082D01*
X154741745Y-102995274D01*
X154919936Y-102817082D01*
X155272074Y-102817082D01*
X155450266Y-102995274D01*
X155628457Y-102817082D01*
X155980595Y-102817082D01*
X156158787Y-102995274D01*
X156336978Y-102817082D01*
X156689116Y-102817082D01*
X156867308Y-102995274D01*
X157045499Y-102817082D01*
X157397637Y-102817082D01*
X157575829Y-102995274D01*
X157754020Y-102817082D01*
X158106158Y-102817082D01*
X158284350Y-102995274D01*
X158462541Y-102817082D01*
X158814679Y-102817082D01*
X158992871Y-102995274D01*
X159171062Y-102817082D01*
X159523200Y-102817082D01*
X159701392Y-102995274D01*
X159879583Y-102817082D01*
X160231721Y-102817082D01*
X160409913Y-102995274D01*
X160588104Y-102817082D01*
X160940242Y-102817082D01*
X161118434Y-102995274D01*
X161296625Y-102817082D01*
X161648763Y-102817082D01*
X161826955Y-102995274D01*
X162005146Y-102817082D01*
X162357284Y-102817082D01*
X162535476Y-102995274D01*
X162713667Y-102817082D01*
X163065805Y-102817082D01*
X163243997Y-102995274D01*
X163422188Y-102817082D01*
X163774326Y-102817082D01*
X163952518Y-102995274D01*
X164130709Y-102817082D01*
X164482847Y-102817082D01*
X164661039Y-102995274D01*
X164839230Y-102817082D01*
X164661039Y-102638891D01*
X164482847Y-102817082D01*
X164130709Y-102817082D01*
X163952518Y-102638891D01*
X163774326Y-102817082D01*
X163422188Y-102817082D01*
X163243997Y-102638891D01*
X163065805Y-102817082D01*
X162713667Y-102817082D01*
X162535476Y-102638891D01*
X162357284Y-102817082D01*
X162005146Y-102817082D01*
X161826955Y-102638891D01*
X161648763Y-102817082D01*
X161296625Y-102817082D01*
X161118434Y-102638891D01*
X160940242Y-102817082D01*
X160588104Y-102817082D01*
X160409913Y-102638891D01*
X160231721Y-102817082D01*
X159879583Y-102817082D01*
X159701392Y-102638891D01*
X159523200Y-102817082D01*
X159171062Y-102817082D01*
X158992871Y-102638891D01*
X158814679Y-102817082D01*
X158462541Y-102817082D01*
X158284350Y-102638891D01*
X158106158Y-102817082D01*
X157754020Y-102817082D01*
X157575829Y-102638891D01*
X157397637Y-102817082D01*
X157045499Y-102817082D01*
X156867308Y-102638891D01*
X156689116Y-102817082D01*
X156336978Y-102817082D01*
X156158787Y-102638891D01*
X155980595Y-102817082D01*
X155628457Y-102817082D01*
X155450266Y-102638891D01*
X155272074Y-102817082D01*
X154919936Y-102817082D01*
X154741745Y-102638891D01*
X154563553Y-102817082D01*
X154211415Y-102817082D01*
X154033224Y-102638891D01*
X153855032Y-102817082D01*
X153502894Y-102817082D01*
X153324703Y-102638891D01*
X153146511Y-102817082D01*
X152794373Y-102817082D01*
X152616182Y-102638891D01*
X152437990Y-102817082D01*
X152085852Y-102817082D01*
X151907661Y-102638891D01*
X151729469Y-102817082D01*
X151377331Y-102817082D01*
X151199140Y-102638891D01*
X151020948Y-102817082D01*
X150668810Y-102817082D01*
X150490619Y-102638891D01*
X150312427Y-102817082D01*
X149960289Y-102817082D01*
X149782098Y-102638891D01*
X149603906Y-102817082D01*
X149251768Y-102817082D01*
X149073577Y-102638891D01*
X148895385Y-102817082D01*
X148543247Y-102817082D01*
X148365056Y-102638891D01*
X148186864Y-102817082D01*
X147834726Y-102817082D01*
X147656535Y-102638891D01*
X147478343Y-102817082D01*
X147193393Y-102817082D01*
X147193393Y-102448749D01*
X147466393Y-102448749D01*
X147466393Y-102476895D01*
X147480466Y-102462822D01*
X147832604Y-102462822D01*
X148010796Y-102641013D01*
X148188987Y-102462822D01*
X148541125Y-102462822D01*
X148719317Y-102641013D01*
X148897508Y-102462822D01*
X149249646Y-102462822D01*
X149427838Y-102641013D01*
X149606029Y-102462822D01*
X149958167Y-102462822D01*
X150136359Y-102641013D01*
X150314550Y-102462822D01*
X150666688Y-102462822D01*
X150844880Y-102641013D01*
X151023071Y-102462822D01*
X151375209Y-102462822D01*
X151553401Y-102641013D01*
X151731592Y-102462822D01*
X152083730Y-102462822D01*
X152261922Y-102641013D01*
X152440113Y-102462822D01*
X152792251Y-102462822D01*
X152970443Y-102641013D01*
X153148634Y-102462822D01*
X153500772Y-102462822D01*
X153678964Y-102641013D01*
X153857155Y-102462822D01*
X154209293Y-102462822D01*
X154387485Y-102641013D01*
X154565676Y-102462822D01*
X154917814Y-102462822D01*
X155096005Y-102641013D01*
X155274197Y-102462822D01*
X155626335Y-102462822D01*
X155804526Y-102641013D01*
X155982718Y-102462822D01*
X156334856Y-102462822D01*
X156513047Y-102641013D01*
X156691239Y-102462822D01*
X157043377Y-102462822D01*
X157221568Y-102641013D01*
X157399760Y-102462822D01*
X157751898Y-102462822D01*
X157930089Y-102641013D01*
X158108281Y-102462822D01*
X158460419Y-102462822D01*
X158638610Y-102641013D01*
X158816802Y-102462822D01*
X159168940Y-102462822D01*
X159347131Y-102641013D01*
X159525323Y-102462822D01*
X159877461Y-102462822D01*
X160055652Y-102641013D01*
X160233844Y-102462822D01*
X160585982Y-102462822D01*
X160764173Y-102641013D01*
X160942365Y-102462822D01*
X161294503Y-102462822D01*
X161472694Y-102641013D01*
X161650886Y-102462822D01*
X162003024Y-102462822D01*
X162181215Y-102641013D01*
X162359407Y-102462822D01*
X162711545Y-102462822D01*
X162889736Y-102641013D01*
X163067928Y-102462822D01*
X163420066Y-102462822D01*
X163598257Y-102641013D01*
X163776449Y-102462822D01*
X164128587Y-102462822D01*
X164306778Y-102641013D01*
X164484970Y-102462822D01*
X164837108Y-102462822D01*
X164919393Y-102545107D01*
X164919393Y-102380537D01*
X164837108Y-102462822D01*
X164484970Y-102462822D01*
X164306778Y-102284630D01*
X164128587Y-102462822D01*
X163776449Y-102462822D01*
X163598257Y-102284630D01*
X163420066Y-102462822D01*
X163067928Y-102462822D01*
X162889736Y-102284630D01*
X162711545Y-102462822D01*
X162359407Y-102462822D01*
X162181215Y-102284630D01*
X162003024Y-102462822D01*
X161650886Y-102462822D01*
X161472694Y-102284630D01*
X161294503Y-102462822D01*
X160942365Y-102462822D01*
X160764173Y-102284630D01*
X160585982Y-102462822D01*
X160233844Y-102462822D01*
X160055652Y-102284630D01*
X159877461Y-102462822D01*
X159525323Y-102462822D01*
X159347131Y-102284630D01*
X159168940Y-102462822D01*
X158816802Y-102462822D01*
X158638610Y-102284630D01*
X158460419Y-102462822D01*
X158108281Y-102462822D01*
X157930089Y-102284630D01*
X157751898Y-102462822D01*
X157399760Y-102462822D01*
X157221568Y-102284630D01*
X157043377Y-102462822D01*
X156691239Y-102462822D01*
X156513047Y-102284630D01*
X156334856Y-102462822D01*
X155982718Y-102462822D01*
X155804526Y-102284630D01*
X155626335Y-102462822D01*
X155274197Y-102462822D01*
X155096005Y-102284630D01*
X154917814Y-102462822D01*
X154565676Y-102462822D01*
X154387485Y-102284631D01*
X154209293Y-102462822D01*
X153857155Y-102462822D01*
X153678964Y-102284631D01*
X153500772Y-102462822D01*
X153148634Y-102462822D01*
X152970443Y-102284631D01*
X152792251Y-102462822D01*
X152440113Y-102462822D01*
X152261922Y-102284631D01*
X152083730Y-102462822D01*
X151731592Y-102462822D01*
X151553401Y-102284631D01*
X151375209Y-102462822D01*
X151023071Y-102462822D01*
X150844880Y-102284631D01*
X150666688Y-102462822D01*
X150314550Y-102462822D01*
X150136359Y-102284631D01*
X149958167Y-102462822D01*
X149606029Y-102462822D01*
X149427838Y-102284631D01*
X149249646Y-102462822D01*
X148897508Y-102462822D01*
X148719317Y-102284631D01*
X148541125Y-102462822D01*
X148188987Y-102462822D01*
X148010796Y-102284631D01*
X147832604Y-102462822D01*
X147480466Y-102462822D01*
X147466393Y-102448749D01*
X147193393Y-102448749D01*
X147193393Y-102108561D01*
X147478343Y-102108561D01*
X147656535Y-102286753D01*
X147834726Y-102108561D01*
X148186864Y-102108561D01*
X148365056Y-102286753D01*
X148543247Y-102108561D01*
X148895385Y-102108561D01*
X149073577Y-102286753D01*
X149251768Y-102108561D01*
X149603906Y-102108561D01*
X149782098Y-102286753D01*
X149960289Y-102108561D01*
X150312427Y-102108561D01*
X150490619Y-102286753D01*
X150668810Y-102108561D01*
X151020948Y-102108561D01*
X151199140Y-102286753D01*
X151377331Y-102108561D01*
X151729469Y-102108561D01*
X151907661Y-102286753D01*
X152085852Y-102108561D01*
X152437990Y-102108561D01*
X152616182Y-102286753D01*
X152794373Y-102108561D01*
X153146511Y-102108561D01*
X153324703Y-102286753D01*
X153502894Y-102108561D01*
X153855032Y-102108561D01*
X154033224Y-102286753D01*
X154211415Y-102108561D01*
X154563553Y-102108561D01*
X154741745Y-102286753D01*
X154919936Y-102108561D01*
X155272074Y-102108561D01*
X155450266Y-102286753D01*
X155628457Y-102108561D01*
X155980595Y-102108561D01*
X156158787Y-102286753D01*
X156336978Y-102108561D01*
X156689116Y-102108561D01*
X156867308Y-102286753D01*
X157045499Y-102108561D01*
X157397637Y-102108561D01*
X157575829Y-102286753D01*
X157754020Y-102108561D01*
X158106158Y-102108561D01*
X158284350Y-102286753D01*
X158462541Y-102108561D01*
X158814679Y-102108561D01*
X158992871Y-102286753D01*
X159171062Y-102108561D01*
X159523200Y-102108561D01*
X159701392Y-102286753D01*
X159879583Y-102108561D01*
X160231721Y-102108561D01*
X160409913Y-102286753D01*
X160588104Y-102108561D01*
X160940242Y-102108561D01*
X161118434Y-102286753D01*
X161296625Y-102108561D01*
X161648763Y-102108561D01*
X161826955Y-102286753D01*
X162005146Y-102108561D01*
X162357284Y-102108561D01*
X162535476Y-102286753D01*
X162713667Y-102108561D01*
X163065805Y-102108561D01*
X163243997Y-102286753D01*
X163422188Y-102108561D01*
X163774326Y-102108561D01*
X163952518Y-102286753D01*
X164130709Y-102108561D01*
X164482847Y-102108561D01*
X164661039Y-102286753D01*
X164839230Y-102108561D01*
X164661039Y-101930370D01*
X164482847Y-102108561D01*
X164130709Y-102108561D01*
X163952518Y-101930370D01*
X163774326Y-102108561D01*
X163422188Y-102108561D01*
X163243997Y-101930370D01*
X163065805Y-102108561D01*
X162713667Y-102108561D01*
X162535476Y-101930370D01*
X162357284Y-102108561D01*
X162005146Y-102108561D01*
X161826955Y-101930370D01*
X161648763Y-102108561D01*
X161296625Y-102108561D01*
X161118434Y-101930370D01*
X160940242Y-102108561D01*
X160588104Y-102108561D01*
X160409913Y-101930370D01*
X160231721Y-102108561D01*
X159879583Y-102108561D01*
X159701392Y-101930370D01*
X159523200Y-102108561D01*
X159171062Y-102108561D01*
X158992871Y-101930370D01*
X158814679Y-102108561D01*
X158462541Y-102108561D01*
X158284350Y-101930370D01*
X158106158Y-102108561D01*
X157754020Y-102108561D01*
X157575829Y-101930370D01*
X157397637Y-102108561D01*
X157045499Y-102108561D01*
X156867308Y-101930370D01*
X156689116Y-102108561D01*
X156336978Y-102108561D01*
X156158787Y-101930370D01*
X155980595Y-102108561D01*
X155628457Y-102108561D01*
X155450266Y-101930370D01*
X155272074Y-102108561D01*
X154919936Y-102108561D01*
X154741745Y-101930370D01*
X154563553Y-102108561D01*
X154211415Y-102108561D01*
X154033224Y-101930370D01*
X153855032Y-102108561D01*
X153502894Y-102108561D01*
X153324703Y-101930370D01*
X153146511Y-102108561D01*
X152794373Y-102108561D01*
X152616182Y-101930370D01*
X152437990Y-102108561D01*
X152085852Y-102108561D01*
X151907661Y-101930370D01*
X151729469Y-102108561D01*
X151377331Y-102108561D01*
X151199140Y-101930370D01*
X151020948Y-102108561D01*
X150668810Y-102108561D01*
X150490619Y-101930370D01*
X150312427Y-102108561D01*
X149960289Y-102108561D01*
X149782098Y-101930370D01*
X149603906Y-102108561D01*
X149251768Y-102108561D01*
X149073577Y-101930370D01*
X148895385Y-102108561D01*
X148543247Y-102108561D01*
X148365056Y-101930370D01*
X148186864Y-102108561D01*
X147834726Y-102108561D01*
X147656535Y-101930370D01*
X147478343Y-102108561D01*
X147193393Y-102108561D01*
X147193393Y-101768374D01*
X147466393Y-101768374D01*
X147480466Y-101754301D01*
X147832604Y-101754301D01*
X148010796Y-101932492D01*
X148188987Y-101754301D01*
X148541125Y-101754301D01*
X148719317Y-101932492D01*
X148897508Y-101754301D01*
X149249646Y-101754301D01*
X149427838Y-101932492D01*
X149606029Y-101754301D01*
X149958167Y-101754301D01*
X150136359Y-101932492D01*
X150314550Y-101754301D01*
X150666688Y-101754301D01*
X150844880Y-101932492D01*
X151023071Y-101754301D01*
X151375209Y-101754301D01*
X151553401Y-101932492D01*
X151731592Y-101754301D01*
X152083730Y-101754301D01*
X152261922Y-101932492D01*
X152440113Y-101754301D01*
X152792251Y-101754301D01*
X152970443Y-101932492D01*
X153148634Y-101754301D01*
X153500772Y-101754301D01*
X153678964Y-101932492D01*
X153857155Y-101754301D01*
X154209293Y-101754301D01*
X154387485Y-101932492D01*
X154565676Y-101754301D01*
X154917814Y-101754301D01*
X155096005Y-101932492D01*
X155274197Y-101754301D01*
X155626335Y-101754301D01*
X155804526Y-101932492D01*
X155982718Y-101754301D01*
X156334856Y-101754301D01*
X156513047Y-101932492D01*
X156691239Y-101754301D01*
X157043377Y-101754301D01*
X157221568Y-101932492D01*
X157399760Y-101754301D01*
X157751898Y-101754301D01*
X157930089Y-101932492D01*
X158108281Y-101754301D01*
X158460419Y-101754301D01*
X158638610Y-101932492D01*
X158816802Y-101754301D01*
X159168940Y-101754301D01*
X159347131Y-101932492D01*
X159525323Y-101754301D01*
X159877461Y-101754301D01*
X160055652Y-101932492D01*
X160233844Y-101754301D01*
X160585982Y-101754301D01*
X160764173Y-101932492D01*
X160942365Y-101754301D01*
X161294503Y-101754301D01*
X161472694Y-101932492D01*
X161650886Y-101754301D01*
X162003024Y-101754301D01*
X162181215Y-101932492D01*
X162359407Y-101754301D01*
X162711545Y-101754301D01*
X162889736Y-101932492D01*
X163067928Y-101754301D01*
X163420066Y-101754301D01*
X163598257Y-101932492D01*
X163776449Y-101754301D01*
X164128587Y-101754301D01*
X164306778Y-101932492D01*
X164484970Y-101754301D01*
X164837108Y-101754301D01*
X164919393Y-101836586D01*
X164919393Y-101754657D01*
X164916682Y-101723669D01*
X164912295Y-101679113D01*
X164837108Y-101754301D01*
X164484970Y-101754301D01*
X164306778Y-101576109D01*
X164128587Y-101754301D01*
X163776449Y-101754301D01*
X163598257Y-101576109D01*
X163420066Y-101754301D01*
X163067928Y-101754301D01*
X162889736Y-101576109D01*
X162711545Y-101754301D01*
X162359407Y-101754301D01*
X162181215Y-101576109D01*
X162003024Y-101754301D01*
X161650886Y-101754301D01*
X161472694Y-101576109D01*
X161294503Y-101754301D01*
X160942365Y-101754301D01*
X160764173Y-101576109D01*
X160585982Y-101754301D01*
X160233844Y-101754301D01*
X160055652Y-101576109D01*
X159877461Y-101754301D01*
X159525323Y-101754301D01*
X159347131Y-101576109D01*
X159168940Y-101754301D01*
X158816802Y-101754301D01*
X158638610Y-101576109D01*
X158460419Y-101754301D01*
X158108281Y-101754301D01*
X157930089Y-101576109D01*
X157751898Y-101754301D01*
X157399760Y-101754301D01*
X157221568Y-101576109D01*
X157043377Y-101754301D01*
X156691239Y-101754301D01*
X156513047Y-101576109D01*
X156334856Y-101754301D01*
X155982718Y-101754301D01*
X155804526Y-101576109D01*
X155626335Y-101754301D01*
X155274197Y-101754301D01*
X155096005Y-101576109D01*
X154917814Y-101754301D01*
X154565676Y-101754301D01*
X154387485Y-101576110D01*
X154209293Y-101754301D01*
X153857155Y-101754301D01*
X153678964Y-101576110D01*
X153500772Y-101754301D01*
X153148634Y-101754301D01*
X152970443Y-101576110D01*
X152792251Y-101754301D01*
X152440113Y-101754301D01*
X152261922Y-101576110D01*
X152083730Y-101754301D01*
X151731592Y-101754301D01*
X151553401Y-101576110D01*
X151375209Y-101754301D01*
X151023071Y-101754301D01*
X150844880Y-101576110D01*
X150666688Y-101754301D01*
X150314550Y-101754301D01*
X150136359Y-101576110D01*
X149958167Y-101754301D01*
X149606029Y-101754301D01*
X149427838Y-101576110D01*
X149249646Y-101754301D01*
X148897508Y-101754301D01*
X148719317Y-101576110D01*
X148541125Y-101754301D01*
X148188987Y-101754301D01*
X148010796Y-101576110D01*
X147832604Y-101754301D01*
X147480466Y-101754301D01*
X147467565Y-101741400D01*
X147466393Y-101754807D01*
X147466393Y-101768374D01*
X147193393Y-101768374D01*
X147193393Y-101745598D01*
X147193629Y-101740193D01*
X147197376Y-101697360D01*
X147209813Y-101571111D01*
X147213435Y-101551208D01*
X147231297Y-101484547D01*
X147240999Y-101452565D01*
X147530868Y-101452565D01*
X147656535Y-101578232D01*
X147834726Y-101400040D01*
X148186864Y-101400040D01*
X148365056Y-101578232D01*
X148543247Y-101400040D01*
X148895385Y-101400040D01*
X149073577Y-101578232D01*
X149251768Y-101400040D01*
X149603906Y-101400040D01*
X149782098Y-101578232D01*
X149960289Y-101400040D01*
X150312427Y-101400040D01*
X150490619Y-101578232D01*
X150668810Y-101400040D01*
X151020948Y-101400040D01*
X151199140Y-101578232D01*
X151377331Y-101400040D01*
X151729469Y-101400040D01*
X151907661Y-101578232D01*
X152085852Y-101400040D01*
X152437990Y-101400040D01*
X152616182Y-101578232D01*
X152794373Y-101400040D01*
X153146511Y-101400040D01*
X153324703Y-101578232D01*
X153502894Y-101400040D01*
X153855032Y-101400040D01*
X154033224Y-101578232D01*
X154211415Y-101400040D01*
X154563553Y-101400040D01*
X154741745Y-101578232D01*
X154919936Y-101400040D01*
X155272074Y-101400040D01*
X155450266Y-101578232D01*
X155628457Y-101400040D01*
X155980595Y-101400040D01*
X156158787Y-101578232D01*
X156336978Y-101400040D01*
X156689116Y-101400040D01*
X156867308Y-101578232D01*
X157045499Y-101400040D01*
X157397637Y-101400040D01*
X157575829Y-101578232D01*
X157754020Y-101400040D01*
X158106158Y-101400040D01*
X158284350Y-101578232D01*
X158462541Y-101400040D01*
X158814679Y-101400040D01*
X158992871Y-101578232D01*
X159171062Y-101400040D01*
X159523200Y-101400040D01*
X159701392Y-101578232D01*
X159879583Y-101400040D01*
X160231721Y-101400040D01*
X160409913Y-101578232D01*
X160588104Y-101400040D01*
X160940242Y-101400040D01*
X161118434Y-101578232D01*
X161296625Y-101400040D01*
X161648763Y-101400040D01*
X161826955Y-101578232D01*
X162005146Y-101400040D01*
X162357284Y-101400040D01*
X162535476Y-101578232D01*
X162713667Y-101400040D01*
X163065805Y-101400040D01*
X163243997Y-101578232D01*
X163422188Y-101400040D01*
X163774326Y-101400040D01*
X163952518Y-101578232D01*
X164130709Y-101400040D01*
X164482847Y-101400040D01*
X164661039Y-101578232D01*
X164832251Y-101407019D01*
X164816223Y-101377033D01*
X164661039Y-101221849D01*
X164482847Y-101400040D01*
X164130709Y-101400040D01*
X163952518Y-101221849D01*
X163774326Y-101400040D01*
X163422188Y-101400040D01*
X163243997Y-101221849D01*
X163065805Y-101400040D01*
X162713667Y-101400040D01*
X162535476Y-101221849D01*
X162357284Y-101400040D01*
X162005146Y-101400040D01*
X161826955Y-101221849D01*
X161648763Y-101400040D01*
X161296625Y-101400040D01*
X161118434Y-101221849D01*
X160940242Y-101400040D01*
X160588104Y-101400040D01*
X160409913Y-101221849D01*
X160231721Y-101400040D01*
X159879583Y-101400040D01*
X159701392Y-101221849D01*
X159523200Y-101400040D01*
X159171062Y-101400040D01*
X158992871Y-101221849D01*
X158814679Y-101400040D01*
X158462541Y-101400040D01*
X158284350Y-101221849D01*
X158106158Y-101400040D01*
X157754020Y-101400040D01*
X157575829Y-101221849D01*
X157397637Y-101400040D01*
X157045499Y-101400040D01*
X156867308Y-101221849D01*
X156689116Y-101400040D01*
X156336978Y-101400040D01*
X156158787Y-101221849D01*
X155980595Y-101400040D01*
X155628457Y-101400040D01*
X155450266Y-101221849D01*
X155272074Y-101400040D01*
X154919936Y-101400040D01*
X154741745Y-101221849D01*
X154563553Y-101400040D01*
X154211415Y-101400040D01*
X154033224Y-101221849D01*
X153855032Y-101400040D01*
X153502894Y-101400040D01*
X153324703Y-101221849D01*
X153146511Y-101400040D01*
X152794373Y-101400040D01*
X152616182Y-101221849D01*
X152437990Y-101400040D01*
X152085852Y-101400040D01*
X151907661Y-101221849D01*
X151729469Y-101400040D01*
X151377331Y-101400040D01*
X151199140Y-101221849D01*
X151020948Y-101400040D01*
X150668810Y-101400040D01*
X150490619Y-101221849D01*
X150312427Y-101400040D01*
X149960289Y-101400040D01*
X149782098Y-101221849D01*
X149603906Y-101400040D01*
X149251768Y-101400040D01*
X149073577Y-101221849D01*
X148895385Y-101400040D01*
X148543247Y-101400040D01*
X148365056Y-101221849D01*
X148186864Y-101400040D01*
X147834726Y-101400040D01*
X147674213Y-101239527D01*
X147660453Y-101253286D01*
X147612883Y-101311251D01*
X147578450Y-101360425D01*
X147542272Y-101428108D01*
X147530868Y-101452565D01*
X147240999Y-101452565D01*
X147259581Y-101391308D01*
X147265846Y-101374936D01*
X147297301Y-101307482D01*
X147298778Y-101304527D01*
X147343663Y-101220555D01*
X147347546Y-101214233D01*
X147393895Y-101148040D01*
X147396733Y-101144302D01*
X147439690Y-101091958D01*
X147878783Y-101091958D01*
X148010796Y-101223971D01*
X148188987Y-101045780D01*
X148541125Y-101045780D01*
X148719317Y-101223971D01*
X148897508Y-101045780D01*
X149249646Y-101045780D01*
X149427838Y-101223971D01*
X149606029Y-101045780D01*
X149958167Y-101045780D01*
X150136359Y-101223971D01*
X150314550Y-101045780D01*
X150666688Y-101045780D01*
X150844880Y-101223971D01*
X151023071Y-101045780D01*
X151375209Y-101045780D01*
X151553401Y-101223971D01*
X151731592Y-101045780D01*
X152083730Y-101045780D01*
X152261922Y-101223971D01*
X152440113Y-101045780D01*
X152792251Y-101045780D01*
X152970443Y-101223971D01*
X153148634Y-101045780D01*
X153500772Y-101045780D01*
X153678964Y-101223971D01*
X153857155Y-101045780D01*
X154209293Y-101045780D01*
X154387485Y-101223971D01*
X154565676Y-101045780D01*
X154917814Y-101045780D01*
X155096005Y-101223971D01*
X155274197Y-101045780D01*
X155626335Y-101045780D01*
X155804526Y-101223971D01*
X155982718Y-101045780D01*
X156334856Y-101045780D01*
X156513047Y-101223971D01*
X156691239Y-101045780D01*
X157043377Y-101045780D01*
X157221568Y-101223971D01*
X157399760Y-101045780D01*
X157751898Y-101045780D01*
X157930089Y-101223971D01*
X158108281Y-101045780D01*
X158460419Y-101045780D01*
X158638610Y-101223971D01*
X158816802Y-101045780D01*
X159168940Y-101045780D01*
X159347131Y-101223971D01*
X159525323Y-101045780D01*
X159877461Y-101045780D01*
X160055652Y-101223971D01*
X160233844Y-101045780D01*
X160585982Y-101045780D01*
X160764173Y-101223971D01*
X160942365Y-101045780D01*
X161294503Y-101045780D01*
X161472694Y-101223971D01*
X161650886Y-101045780D01*
X162003024Y-101045780D01*
X162181215Y-101223971D01*
X162359407Y-101045780D01*
X162711545Y-101045780D01*
X162889736Y-101223971D01*
X163067928Y-101045780D01*
X163420066Y-101045780D01*
X163598257Y-101223971D01*
X163776449Y-101045780D01*
X164128587Y-101045780D01*
X164306778Y-101223971D01*
X164460488Y-101070262D01*
X164455092Y-101067746D01*
X164376270Y-101043836D01*
X164325736Y-101030295D01*
X164213084Y-101019201D01*
X164180981Y-101016393D01*
X164157974Y-101016393D01*
X164128587Y-101045780D01*
X163776449Y-101045780D01*
X163747062Y-101016393D01*
X163449453Y-101016393D01*
X163420066Y-101045780D01*
X163067928Y-101045780D01*
X163038541Y-101016393D01*
X162740932Y-101016393D01*
X162711545Y-101045780D01*
X162359407Y-101045780D01*
X162330020Y-101016393D01*
X162032411Y-101016393D01*
X162003024Y-101045780D01*
X161650886Y-101045780D01*
X161621499Y-101016393D01*
X161323890Y-101016393D01*
X161294503Y-101045780D01*
X160942365Y-101045780D01*
X160912978Y-101016393D01*
X160615369Y-101016393D01*
X160585982Y-101045780D01*
X160233844Y-101045780D01*
X160204457Y-101016393D01*
X159906848Y-101016393D01*
X159877461Y-101045780D01*
X159525323Y-101045780D01*
X159495936Y-101016393D01*
X159198327Y-101016393D01*
X159168940Y-101045780D01*
X158816802Y-101045780D01*
X158787415Y-101016393D01*
X158489806Y-101016393D01*
X158460419Y-101045780D01*
X158108281Y-101045780D01*
X158078894Y-101016393D01*
X157781285Y-101016393D01*
X157751898Y-101045780D01*
X157399760Y-101045780D01*
X157370373Y-101016393D01*
X157072764Y-101016393D01*
X157043377Y-101045780D01*
X156691239Y-101045780D01*
X156661852Y-101016393D01*
X156364243Y-101016393D01*
X156334856Y-101045780D01*
X155982718Y-101045780D01*
X155953331Y-101016393D01*
X155655722Y-101016393D01*
X155626335Y-101045780D01*
X155274197Y-101045780D01*
X155244810Y-101016393D01*
X154947201Y-101016393D01*
X154917814Y-101045780D01*
X154565676Y-101045780D01*
X154536289Y-101016393D01*
X154238681Y-101016393D01*
X154209293Y-101045780D01*
X153857155Y-101045780D01*
X153827768Y-101016393D01*
X153530160Y-101016393D01*
X153500772Y-101045780D01*
X153148634Y-101045780D01*
X153119247Y-101016393D01*
X152821639Y-101016393D01*
X152792251Y-101045780D01*
X152440113Y-101045780D01*
X152410726Y-101016393D01*
X152113118Y-101016393D01*
X152083730Y-101045780D01*
X151731592Y-101045780D01*
X151702205Y-101016393D01*
X151404597Y-101016393D01*
X151375209Y-101045780D01*
X151023071Y-101045780D01*
X150993684Y-101016393D01*
X150696076Y-101016393D01*
X150666688Y-101045780D01*
X150314550Y-101045780D01*
X150285163Y-101016393D01*
X149987555Y-101016393D01*
X149958167Y-101045780D01*
X149606029Y-101045780D01*
X149576642Y-101016393D01*
X149279034Y-101016393D01*
X149249646Y-101045780D01*
X148897508Y-101045780D01*
X148868121Y-101016393D01*
X148570513Y-101016393D01*
X148541125Y-101045780D01*
X148188987Y-101045780D01*
X148163331Y-101020124D01*
X148060044Y-101030298D01*
X148009530Y-101043835D01*
X147930704Y-101067746D01*
X147878783Y-101091958D01*
X147439690Y-101091958D01*
X147456009Y-101072073D01*
X147460057Y-101067605D01*
X147517605Y-101010057D01*
X147522073Y-101006009D01*
X147594302Y-100946733D01*
X147598040Y-100943895D01*
X147664233Y-100897546D01*
X147670555Y-100893663D01*
X147754527Y-100848778D01*
X147757482Y-100847301D01*
X147824936Y-100815846D01*
X147841308Y-100809581D01*
X147934523Y-100781303D01*
X148001208Y-100763435D01*
X148021111Y-100759813D01*
X148147360Y-100747376D01*
X148190197Y-100743628D01*
X148195600Y-100743393D01*
X164190188Y-100743393D01*
X164195587Y-100743628D01*
G37*
%TD.AperFunction*%
%TD*%
M02*
